STARTFONT 2.1
FONT -HP-Batang-Medium-R-Normal--48-480-75-75-C-480-KSC5601.1987-1
SIZE 48 75 75
FONTBOUNDINGBOX 48 48 0 -6

STARTPROPERTIES 23
FONTNAME_REGISTRY ""
FOUNDRY "HP"
FAMILY_NAME "Batang"
WEIGHT_NAME "Medium"
SLANT "R"
SETWIDTH_NAME "Normal"
ADD_STYLE_NAME ""
PIXEL_SIZE 48
POINT_SIZE 480
RESOLUTION_X 75
RESOLUTION_Y 75
SPACING "C"
AVERAGE_WIDTH 480
CHARSET_REGISTRY "KSC5601.1987"
CHARSET_ENCODING "1"
COPYRIGHT "Copyright (c) 1994 Samsung Hewlett-Packard Company."
WEIGHT 19463
X_HEIGHT 42
QUAD_WIDTH 48
_HP_ASXVERSION "@(#) ASX 3.00 $Revision: 13.9 $ bat48h"
DEFAULT_CHAR 41702
FONT_DESCENT 6
FONT_ASCENT 42
ENDPROPERTIES

CHARS 3337

STARTCHAR kor_A1A1
ENCODING 41377
SWIDTH 1024 0
DWIDTH 48 0
BBX 48 48 0 -6
BITMAP
000000000000
000000000000
000000000000
000000000000
000000000000
000000000000
000000000000
000000000000
000000000000
000000000000
000000000000
000000000000
000000000000
000000000000
000000000000
000000000000
000000000000
000000000000
000000000000
000000000000
000000000000
000000000000
000000000000
000000000000
000000000000
000000000000
000000000000
000000000000
000000000000
000000000000
000000000000
000000000000
000000000000
000000000000
000000000000
000000000000
000000000000
000000000000
000000000000
000000000000
000000000000
000000000000
000000000000
000000000000
000000000000
000000000000
000000000000
000000000000
ENDCHAR

STARTCHAR kor_A1A2
ENCODING 41378
SWIDTH 1024 0
DWIDTH 48 0
BBX 48 48 0 -6
BITMAP
000000000000
000000000000
000000003800
000000001E00
000000000F80
0000000007E0
0000000003F0
0000000001F8
0000000000FC
00000000007C
00000000007C
000000000038
000000000000
000000000000
000000000000
000000000000
000000000000
000000000000
000000000000
000000000000
000000000000
000000000000
000000000000
000000000000
000000000000
000000000000
000000000000
000000000000
000000000000
000000000000
000000000000
000000000000
000000000000
000000000000
000000000000
000000000000
000000000000
000000000000
000000000000
000000000000
000000000000
000000000000
000000000000
000000000000
000000000000
000000000000
000000000000
000000000000
ENDCHAR

STARTCHAR kor_A1A3
ENCODING 41379
SWIDTH 1024 0
DWIDTH 48 0
BBX 48 48 0 -6
BITMAP
000000000000
000000000000
000000000000
0000000003C0
000000000FF0
000000001E78
000000001818
00000000381C
00000000300C
00000000300C
00000000381C
000000001818
000000001E78
000000000FF0
0000000003C0
000000000000
000000000000
000000000000
000000000000
000000000000
000000000000
000000000000
000000000000
000000000000
000000000000
000000000000
000000000000
000000000000
000000000000
000000000000
000000000000
000000000000
000000000000
000000000000
000000000000
000000000000
000000000000
000000000000
000000000000
000000000000
000000000000
000000000000
000000000000
000000000000
000000000000
000000000000
000000000000
000000000000
ENDCHAR

STARTCHAR kor_A1A4
ENCODING 41380
SWIDTH 1024 0
DWIDTH 48 0
BBX 48 48 0 -6
BITMAP
000000000000
000000000000
000000000000
000000000000
000000000000
000000000000
000000000000
000000000000
000000000000
000000000000
000000000000
000000000000
000000000000
000000000000
000000000000
000000000000
000000000000
000000000000
000000000000
000000000000
000001C00000
000007F00000
000007F00000
00000FF80000
00000FF80000
00000FF80000
000007F00000
000007F00000
000001C00000
000000000000
000000000000
000000000000
000000000000
000000000000
000000000000
000000000000
000000000000
000000000000
000000000000
000000000000
000000000000
000000000000
000000000000
000000000000
000000000000
000000000000
000000000000
000000000000
ENDCHAR

STARTCHAR kor_A1A5
ENCODING 41381
SWIDTH 1024 0
DWIDTH 48 0
BBX 48 48 0 -6
BITMAP
000000000000
000000000000
000000000000
000000000000
000000000000
000000000000
000000000000
000000000000
000000000000
000000000000
000000000000
000000000000
000000000000
000000000000
000000000000
000000000000
000000000000
000000000000
000000000000
000000000000
001800000C00
007E00003F00
007E00003F00
00FF00007F80
00FF00007F80
007E00003F00
007E00003F00
001800000C00
000000000000
000000000000
000000000000
000000000000
000000000000
000000000000
000000000000
000000000000
000000000000
000000000000
000000000000
000000000000
000000000000
000000000000
000000000000
000000000000
000000000000
000000000000
000000000000
000000000000
ENDCHAR

STARTCHAR kor_A1A6
ENCODING 41382
SWIDTH 1024 0
DWIDTH 48 0
BBX 48 48 0 -6
BITMAP
000000000000
000000000000
000000000000
000000000000
000000000000
000000000000
000000000000
000000000000
000000000000
000000000000
000000000000
000000000000
000000000000
000000000000
000000000000
000000000000
000000000000
000000000000
000000000000
000000000000
018001800180
07E007E007E0
07E007E007E0
0FF00FF00FF0
0FF00FF00FF0
07E007E007E0
07E007E007E0
018001800180
000000000000
000000000000
000000000000
000000000000
000000000000
000000000000
000000000000
000000000000
000000000000
000000000000
000000000000
000000000000
000000000000
000000000000
000000000000
000000000000
000000000000
000000000000
000000000000
000000000000
ENDCHAR

STARTCHAR kor_A1A7
ENCODING 41383
SWIDTH 1024 0
DWIDTH 48 0
BBX 48 48 0 -6
BITMAP
000000000000
000000000000
000000000000
000000000000
000000000000
00018000C000
0007E003F000
0007E003F000
000FF007F800
000FF007F800
0007E003F000
0007E003F000
00018000C000
000000000000
000000000000
000000000000
000000000000
000000000000
000000000000
000000000000
000000000000
000000000000
000000000000
000000000000
000000000000
000000000000
000000000000
000000000000
000000000000
000000000000
000000000000
000000000000
000000000000
000000000000
000000000000
000000000000
000000000000
000000000000
000000000000
000000000000
000000000000
000000000000
000000000000
000000000000
000000000000
000000000000
000000000000
000000000000
ENDCHAR

STARTCHAR kor_A1A8
ENCODING 41384
SWIDTH 1024 0
DWIDTH 48 0
BBX 48 48 0 -6
BITMAP
000000000000
000000000000
000000000000
000000000000
000000000000
000000000000
000000000000
000000000000
000000000000
000000000000
000000000000
000000000000
000000000000
000000000000
000000000000
000007070000
00000F8F8000
00000F8F8000
00000F8F8000
00000F8F8000
00000F0F0000
00000F0F0000
00000F0F0000
00001E1E0000
00001E1E0000
00001C1C0000
00001C1C0000
000038380000
000038380000
000030300000
000070700000
000060600000
0000C0C00000
000080800000
000000000000
000000000000
000000000000
000000000000
000000000000
000000000000
000000000000
000000000000
000000000000
000000000000
000000000000
000000000000
000000000000
000000000000
ENDCHAR

STARTCHAR kor_A1A9
ENCODING 41385
SWIDTH 1024 0
DWIDTH 48 0
BBX 48 48 0 -6
BITMAP
000000000000
000000000000
000000000000
000000000000
000000000000
000000000000
000000000000
000000000000
000000000000
000000000000
000000000000
000000000000
000000000000
000000000000
000000000000
000000000000
000000000000
000000000000
000000000000
000000000000
000000000000
000000000000
0000FFFFC000
0000FFFFC000
0000FFFFC000
000000000000
000000000000
000000000000
000000000000
000000000000
000000000000
000000000000
000000000000
000000000000
000000000000
000000000000
000000000000
000000000000
000000000000
000000000000
000000000000
000000000000
000000000000
000000000000
000000000000
000000000000
000000000000
000000000000
ENDCHAR

STARTCHAR kor_A1AA
ENCODING 41386
SWIDTH 1024 0
DWIDTH 48 0
BBX 48 48 0 -6
BITMAP
000000000000
000000000000
000000000000
000000000000
000000000000
000000000000
000000000000
000000000000
000000000000
000000000000
000000000000
000000000000
000000000000
000000000000
000000000000
000000000000
000000000000
000000000000
000000000000
000000000000
000000000000
000000000000
3FFFFFFFFFFC
3FFFFFFFFFFC
3FFFFFFFFFFC
000000000000
000000000000
000000000000
000000000000
000000000000
000000000000
000000000000
000000000000
000000000000
000000000000
000000000000
000000000000
000000000000
000000000000
000000000000
000000000000
000000000000
000000000000
000000000000
000000000000
000000000000
000000000000
000000000000
ENDCHAR

STARTCHAR kor_A1AB
ENCODING 41387
SWIDTH 1024 0
DWIDTH 48 0
BBX 48 48 0 -6
BITMAP
000000000000
000000000000
0000380E0000
0000380E0000
0000380E0000
0000380E0000
0000380E0000
0000380E0000
0000380E0000
0000380E0000
0000380E0000
0000380E0000
0000380E0000
0000380E0000
0000380E0000
0000380E0000
0000380E0000
0000380E0000
0000380E0000
0000380E0000
0000380E0000
0000380E0000
0000380E0000
0000380E0000
0000380E0000
0000380E0000
0000380E0000
0000380E0000
0000380E0000
0000380E0000
0000380E0000
0000380E0000
0000380E0000
0000380E0000
0000380E0000
0000380E0000
0000380E0000
0000380E0000
0000380E0000
0000380E0000
0000380E0000
0000380E0000
0000380E0000
0000380E0000
0000380E0000
0000380E0000
000000000000
000000000000
ENDCHAR

STARTCHAR kor_A1AC
ENCODING 41388
SWIDTH 1024 0
DWIDTH 48 0
BBX 48 48 0 -6
BITMAP
000000000000
000000000000
300000000000
380000000000
3C0000000000
1E0000000000
0F0000000000
078000000000
03C000000000
01E000000000
00F000000000
007800000000
003C00000000
001E00000000
000F00000000
000780000000
0003C0000000
0001E0000000
0000F0000000
000078000000
00003C000000
00001E000000
00000F000000
000007800000
000003C00000
000001E00000
000000F00000
000000780000
0000003C0000
0000001E0000
0000000F0000
000000078000
00000003C000
00000001E000
00000000F000
000000007800
000000003C00
000000001E00
000000000F00
000000000780
0000000003C0
0000000001E0
0000000000F0
000000000078
00000000003C
00000000001C
000000000000
000000000000
ENDCHAR

STARTCHAR kor_A1AD
ENCODING 41389
SWIDTH 1024 0
DWIDTH 48 0
BBX 48 48 0 -6
BITMAP
000000000000
000000000000
000000000000
000000000000
000000000000
000000000000
000000000000
000000000000
000000000000
000000000000
000000000000
000000000000
000000000000
000000000000
000000000000
000000000000
000000000000
000000000000
000000000000
000000000000
0003F8000030
001FFF000070
007FFFC000E0
00FFFFF803C0
01E007FFFF80
038000FFFF00
0700003FFC00
06000007E000
000000000000
000000000000
000000000000
000000000000
000000000000
000000000000
000000000000
000000000000
000000000000
000000000000
000000000000
000000000000
000000000000
000000000000
000000000000
000000000000
000000000000
000000000000
000000000000
000000000000
ENDCHAR

STARTCHAR kor_A1AE
ENCODING 41390
SWIDTH 1024 0
DWIDTH 48 0
BBX 48 48 0 -6
BITMAP
000000000000
000000000000
000000000180
000000000700
000000000E00
000000001C00
000000003800
000000007800
000000007000
00000000F000
00000000FC00
00000000FE00
00000000FF00
00000000FF00
000000007F00
000000007E00
000000003C00
000000000000
000000000000
000000000000
000000000000
000000000000
000000000000
000000000000
000000000000
000000000000
000000000000
000000000000
000000000000
000000000000
000000000000
000000000000
000000000000
000000000000
000000000000
000000000000
000000000000
000000000000
000000000000
000000000000
000000000000
000000000000
000000000000
000000000000
000000000000
000000000000
000000000000
000000000000
ENDCHAR

STARTCHAR kor_A1AF
ENCODING 41391
SWIDTH 1024 0
DWIDTH 48 0
BBX 48 48 0 -6
BITMAP
000000000000
000000000000
000000000000
001E00000000
003F00000000
007F80000000
007F80000000
007F80000000
003F80000000
000F80000000
000780000000
000700000000
000F00000000
000E00000000
001C00000000
003800000000
007000000000
00C000000000
000000000000
000000000000
000000000000
000000000000
000000000000
000000000000
000000000000
000000000000
000000000000
000000000000
000000000000
000000000000
000000000000
000000000000
000000000000
000000000000
000000000000
000000000000
000000000000
000000000000
000000000000
000000000000
000000000000
000000000000
000000000000
000000000000
000000000000
000000000000
000000000000
000000000000
ENDCHAR

STARTCHAR kor_A1B0
ENCODING 41392
SWIDTH 1024 0
DWIDTH 48 0
BBX 48 48 0 -6
BITMAP
000000000000
000000000000
000000001806
00000000701C
00000000E038
00000001C070
0000000380E0
0000000781E0
0000000701C0
0000000F03C0
0000000FC3F0
0000000FE3F8
0000000FF3FC
0000000FF3FC
00000007F1FC
00000007E1F8
00000003C0F0
000000000000
000000000000
000000000000
000000000000
000000000000
000000000000
000000000000
000000000000
000000000000
000000000000
000000000000
000000000000
000000000000
000000000000
000000000000
000000000000
000000000000
000000000000
000000000000
000000000000
000000000000
000000000000
000000000000
000000000000
000000000000
000000000000
000000000000
000000000000
000000000000
000000000000
000000000000
ENDCHAR

STARTCHAR kor_A1B1
ENCODING 41393
SWIDTH 1024 0
DWIDTH 48 0
BBX 48 48 0 -6
BITMAP
000000000000
000000000000
000000000000
03C078000000
07E0FC000000
0FF1FE000000
0FF1FE000000
0FF1FE000000
07F0FE000000
01F03E000000
00F01E000000
00E01C000000
01E03C000000
01C038000000
038070000000
0700E0000000
0E01C0000000
180300000000
000000000000
000000000000
000000000000
000000000000
000000000000
000000000000
000000000000
000000000000
000000000000
000000000000
000000000000
000000000000
000000000000
000000000000
000000000000
000000000000
000000000000
000000000000
000000000000
000000000000
000000000000
000000000000
000000000000
000000000000
000000000000
000000000000
000000000000
000000000000
000000000000
000000000000
ENDCHAR

STARTCHAR kor_A1B2
ENCODING 41394
SWIDTH 1024 0
DWIDTH 48 0
BBX 48 48 0 -6
BITMAP
000000000000
000000000000
00000000FFF0
00000000FFF0
00000000FFF0
00000000E000
00000000E000
00000000E000
00000000E000
00000000E000
00000000E000
00000000E000
00000000E000
00000000E000
00000000E000
00000000E000
00000000E000
00000000E000
00000000E000
00000000E000
00000000E000
00000000E000
00000000E000
00000000E000
00000000E000
00000000E000
00000000E000
00000000E000
00000000E000
00000000E000
00000000E000
00000000E000
00000000E000
00000000E000
00000000E000
00000000E000
00000000E000
00000000E000
00000000E000
00000000E000
00000000E000
00000000E000
00000000E000
00000000FFF0
00000000FFF0
00000000FFF0
000000000000
000000000000
ENDCHAR

STARTCHAR kor_A1B3
ENCODING 41395
SWIDTH 1024 0
DWIDTH 48 0
BBX 48 48 0 -6
BITMAP
000000000000
000000000000
0FFE00000000
0FFE00000000
0FFE00000000
000E00000000
000E00000000
000E00000000
000E00000000
000E00000000
000E00000000
000E00000000
000E00000000
000E00000000
000E00000000
000E00000000
000E00000000
000E00000000
000E00000000
000E00000000
000E00000000
000E00000000
000E00000000
000E00000000
000E00000000
000E00000000
000E00000000
000E00000000
000E00000000
000E00000000
000E00000000
000E00000000
000E00000000
000E00000000
000E00000000
000E00000000
000E00000000
000E00000000
000E00000000
000E00000000
000E00000000
000E00000000
000E00000000
0FFE00000000
0FFE00000000
0FFE00000000
000000000000
000000000000
ENDCHAR

STARTCHAR kor_A1B4
ENCODING 41396
SWIDTH 1024 0
DWIDTH 48 0
BBX 48 48 0 -6
BITMAP
000000000000
000000000038
000000000078
0000000000F0
0000000001E0
0000000003C0
000000000380
000000000700
000000000F00
000000001E00
000000003C00
000000007800
000000007000
00000000E000
00000001E000
00000003C000
000000078000
0000000F0000
0000000E0000
0000001C0000
0000003C0000
000000780000
000000F00000
000001E00000
000001E00000
000000F00000
000000780000
0000003C0000
0000001C0000
0000000E0000
0000000F0000
000000078000
00000003C000
00000001E000
00000000E000
000000007000
000000007800
000000003C00
000000001E00
000000000F00
000000000700
000000000380
0000000003C0
0000000001E0
0000000000F0
000000000078
000000000038
000000000000
ENDCHAR

STARTCHAR kor_A1B5
ENCODING 41397
SWIDTH 1024 0
DWIDTH 48 0
BBX 48 48 0 -6
BITMAP
000000000000
1C0000000000
1E0000000000
0F0000000000
078000000000
03C000000000
01C000000000
00E000000000
00F000000000
007800000000
003C00000000
001E00000000
000E00000000
000700000000
000780000000
0003C0000000
0001E0000000
0000F0000000
000070000000
000038000000
00003C000000
00001E000000
00000F000000
000007800000
000007800000
00000F000000
00001E000000
00003C000000
000038000000
000070000000
0000F0000000
0001E0000000
0003C0000000
000780000000
000700000000
000E00000000
001E00000000
003C00000000
007800000000
00F000000000
00E000000000
01C000000000
03C000000000
078000000000
0F0000000000
1E0000000000
1C0000000000
000000000000
ENDCHAR

STARTCHAR kor_A1B6
ENCODING 41398
SWIDTH 1024 0
DWIDTH 48 0
BBX 48 48 0 -6
BITMAP
000000000000
000000000738
000000000738
000000000E70
000000000E70
000000001CE0
000000001CE0
0000000039C0
0000000039C0
000000007380
000000007380
00000000E700
00000000E700
00000001CE00
00000001CE00
000000039C00
000000039C00
000000073800
000000073800
0000000E7000
0000000E7000
0000001CE000
0000001CE000
00000039C000
00000039C000
0000001CE000
0000001CE000
0000000E7000
0000000E7000
000000073800
000000073800
000000039C00
000000039C00
00000001CE00
00000001CE00
00000000E700
00000000E700
000000007380
000000007380
0000000039C0
0000000039C0
000000001CE0
000000001CE0
000000000E70
000000000E70
000000000738
000000000738
000000000000
ENDCHAR

STARTCHAR kor_A1B7
ENCODING 41399
SWIDTH 1024 0
DWIDTH 48 0
BBX 48 48 0 -6
BITMAP
000000000000
1CE000000000
1CE000000000
0E7000000000
0E7000000000
073800000000
073800000000
039C00000000
039C00000000
01CE00000000
01CE00000000
00E700000000
00E700000000
007380000000
007380000000
0039C0000000
0039C0000000
001CE0000000
001CE0000000
000E70000000
000E70000000
000738000000
000738000000
00039C000000
00039C000000
000738000000
000738000000
000E70000000
000E70000000
001CE0000000
001CE0000000
0039C0000000
0039C0000000
007380000000
007380000000
00E700000000
00E700000000
01CE00000000
01CE00000000
039C00000000
039C00000000
073800000000
073800000000
0E7000000000
0E7000000000
1CE000000000
1CE000000000
000000000000
ENDCHAR

STARTCHAR kor_A1B8
ENCODING 41400
SWIDTH 1024 0
DWIDTH 48 0
BBX 48 48 0 -6
BITMAP
000000000000
000000000000
00000007FFF8
00000007FFF8
00000007FFF8
000000070000
000000070000
000000070000
000000070000
000000070000
000000070000
000000070000
000000070000
000000070000
000000070000
000000070000
000000070000
000000070000
000000070000
000000070000
000000070000
000000070000
000000070000
000000070000
000000070000
000000070000
000000070000
000000070000
000000070000
000000070000
000000070000
000000070000
000000070000
000000070000
000000070000
000000070000
000000070000
000000070000
000000070000
000000070000
000000070000
000000070000
000000070000
000000070000
000000070000
000000070000
000000000000
000000000000
ENDCHAR

STARTCHAR kor_A1B9
ENCODING 41401
SWIDTH 1024 0
DWIDTH 48 0
BBX 48 48 0 -6
BITMAP
000000000000
000000000000
0000E0000000
0000E0000000
0000E0000000
0000E0000000
0000E0000000
0000E0000000
0000E0000000
0000E0000000
0000E0000000
0000E0000000
0000E0000000
0000E0000000
0000E0000000
0000E0000000
0000E0000000
0000E0000000
0000E0000000
0000E0000000
0000E0000000
0000E0000000
0000E0000000
0000E0000000
0000E0000000
0000E0000000
0000E0000000
0000E0000000
0000E0000000
0000E0000000
0000E0000000
0000E0000000
0000E0000000
0000E0000000
0000E0000000
0000E0000000
0000E0000000
0000E0000000
0000E0000000
0000E0000000
0000E0000000
0000E0000000
0000E0000000
1FFFE0000000
1FFFE0000000
1FFFE0000000
000000000000
000000000000
ENDCHAR

STARTCHAR kor_A1BA
ENCODING 41402
SWIDTH 1024 0
DWIDTH 48 0
BBX 48 48 0 -6
BITMAP
000000000000
000000000000
0000000FFFF8
0000000FFFF8
0000000FFFF8
0000000E0038
0000000E0038
0000000E7FF8
0000000E7FF8
0000000E7FF8
0000000E7000
0000000E7000
0000000E7000
0000000E7000
0000000E7000
0000000E7000
0000000E7000
0000000E7000
0000000E7000
0000000E7000
0000000E7000
0000000E7000
0000000E7000
0000000E7000
0000000E7000
0000000E7000
0000000FF000
0000000FF000
0000000FF000
000000000000
000000000000
000000000000
000000000000
000000000000
000000000000
000000000000
000000000000
000000000000
000000000000
000000000000
000000000000
000000000000
000000000000
000000000000
000000000000
000000000000
000000000000
000000000000
ENDCHAR

STARTCHAR kor_A1BB
ENCODING 41403
SWIDTH 1024 0
DWIDTH 48 0
BBX 48 48 0 -6
BITMAP
000000000000
000000000000
000000000000
000000000000
000000000000
000000000000
000000000000
000000000000
000000000000
000000000000
000000000000
000000000000
000000000000
000000000000
000000000000
000000000000
000000000000
000000000000
000000000000
000000000000
0007F8000000
0007F8000000
0007F8000000
000738000000
000738000000
000738000000
000738000000
000738000000
000738000000
000738000000
000738000000
000738000000
000738000000
000738000000
000738000000
000738000000
000738000000
000738000000
1FFF38000000
1FFF38000000
1FFF38000000
1C0038000000
1C0038000000
1FFFF8000000
1FFFF8000000
1FFFF8000000
000000000000
000000000000
ENDCHAR

STARTCHAR kor_A1BC
ENCODING 41404
SWIDTH 1024 0
DWIDTH 48 0
BBX 48 48 0 -6
BITMAP
000000000000
000000000000
00000007FFF8
00000007FFF0
00000007FFE0
00000007FFC0
00000007FF80
00000007FF80
00000007FF00
00000007FF00
00000007FE00
00000007FE00
00000007FE00
00000007FC00
00000007FC00
00000007FC00
00000007FC00
00000007F800
00000007F800
00000007F800
00000007F800
00000007F800
00000007F800
00000007F800
00000007F800
00000007F800
00000007F800
00000007F800
00000007F800
00000007F800
00000007F800
00000007FC00
00000007FC00
00000007FC00
00000007FC00
00000007FE00
00000007FE00
00000007FE00
00000007FF00
00000007FF00
00000007FF80
00000007FF80
00000007FFC0
00000007FFE0
00000007FFF0
00000007FFF8
000000000000
000000000000
ENDCHAR

STARTCHAR kor_A1BD
ENCODING 41405
SWIDTH 1024 0
DWIDTH 48 0
BBX 48 48 0 -6
BITMAP
000000000000
000000000000
1FFFE0000000
0FFFE0000000
07FFE0000000
03FFE0000000
01FFE0000000
01FFE0000000
00FFE0000000
00FFE0000000
007FE0000000
007FE0000000
007FE0000000
003FE0000000
003FE0000000
003FE0000000
003FE0000000
001FE0000000
001FE0000000
001FE0000000
001FE0000000
001FE0000000
001FE0000000
001FE0000000
001FE0000000
001FE0000000
001FE0000000
001FE0000000
001FE0000000
001FE0000000
001FE0000000
003FE0000000
003FE0000000
003FE0000000
003FE0000000
007FE0000000
007FE0000000
007FE0000000
00FFE0000000
00FFE0000000
01FFE0000000
01FFE0000000
03FFE0000000
07FFE0000000
0FFFE0000000
1FFFE0000000
000000000000
000000000000
ENDCHAR

STARTCHAR kor_A1BE
ENCODING 41406
SWIDTH 1024 0
DWIDTH 48 0
BBX 48 48 0 -6
BITMAP
000000000000
000000000000
000000000000
000000000000
000001C00000
000001C00000
000001C00000
000001C00000
000001C00000
000001C00000
000001C00000
000001C00000
000001C00000
000001C00000
000001C00000
000001C00000
000001C00000
01FFFFFFFFC0
01FFFFFFFFC0
01FFFFFFFFC0
000001C00000
000001C00000
000001C00000
000001C00000
000001C00000
000001C00000
000001C00000
000001C00000
000001C00000
000001C00000
000001C00000
000001C00000
000001C00000
000000000000
000000000000
000000000000
01FFFFFFFFC0
01FFFFFFFFC0
01FFFFFFFFC0
000000000000
000000000000
000000000000
000000000000
000000000000
000000000000
000000000000
000000000000
000000000000
ENDCHAR

STARTCHAR kor_A1BF
ENCODING 41407
SWIDTH 1024 0
DWIDTH 48 0
BBX 48 48 0 -6
BITMAP
000000000000
000000000000
000000000000
000000000000
000000000000
000000000000
000000000000
000000000000
000000000000
007000000E00
007800001E00
003C00003C00
001E00007800
000F0000F000
00078001E000
0003C003C000
0001E0078000
0000F00F0000
0000781E0000
00003C3C0000
00001E780000
00000FF00000
000007E00000
000003C00000
000007E00000
00000FF00000
00001E780000
00003C3C0000
0000781E0000
0000F00F0000
0001E0078000
0003C003C000
00078001E000
000F0000F000
001E00007800
003C00003C00
007800001E00
007000000E00
000000000000
000000000000
000000000000
000000000000
000000000000
000000000000
000000000000
000000000000
000000000000
000000000000
ENDCHAR

STARTCHAR kor_A1C0
ENCODING 41408
SWIDTH 1024 0
DWIDTH 48 0
BBX 48 48 0 -6
BITMAP
000000000000
000000000000
000000000000
000000000000
000000000000
000000000000
000000000000
000000000000
000001800000
000007E00000
000007E00000
00000FF00000
00000FF00000
000007E00000
000007E00000
000001800000
000000000000
000000000000
000000000000
000000000000
000000000000
000000000000
000000000000
03FFFFFFFFC0
03FFFFFFFFC0
03FFFFFFFFC0
000000000000
000000000000
000000000000
000000000000
000000000000
000000000000
000000000000
000001800000
000007E00000
000007E00000
00000FF00000
00000FF00000
000007E00000
000007E00000
000001800000
000000000000
000000000000
000000000000
000000000000
000000000000
000000000000
000000000000
ENDCHAR

STARTCHAR kor_A1C1
ENCODING 41409
SWIDTH 1024 0
DWIDTH 48 0
BBX 48 48 0 -6
BITMAP
000000000000
000000000000
000000000000
000000000000
000000000000
000000000000
000000000000
000038000000
000038000000
000038000000
00001C000000
00001C000000
00001C000000
00000E000000
00000E000000
00000E000000
000007000000
03FFFFFFFFC0
03FFFFFFFFC0
03FFFFFFFFC0
000003800000
000003800000
000001C00000
000001C00000
000001C00000
000000E00000
000000E00000
03FFFFFFFFC0
03FFFFFFFFC0
03FFFFFFFFC0
000000700000
000000380000
000000380000
000000380000
0000001C0000
0000001C0000
0000001C0000
0000000E0000
0000000E0000
0000000E0000
000000000000
000000000000
000000000000
000000000000
000000000000
000000000000
000000000000
000000000000
ENDCHAR

STARTCHAR kor_A1C2
ENCODING 41410
SWIDTH 1024 0
DWIDTH 48 0
BBX 48 48 0 -6
BITMAP
000000000000
000000000000
000000000000
000000000000
000000000000
000000000000
000000000000
000000000000
0000000000F0
0000000007F0
000000003FF0
00000001FF80
0000000FFC00
0000007FE000
000003FF0000
00001FF80000
0000FFC00000
0007FE000000
003FF0000000
01FF80000000
01FC00000000
01FF80000000
003FF0000000
0007FE000000
0000FFC00000
00001FF80000
000003FF0000
0000007FE000
0000000FFC00
00000001FF80
000000003FF0
0000000007F0
0000000000F0
000000000000
000000000000
01FFFFFFFFF0
01FFFFFFFFF0
01FFFFFFFFF0
000000000000
000000000000
000000000000
000000000000
000000000000
000000000000
000000000000
000000000000
000000000000
000000000000
ENDCHAR

STARTCHAR kor_A1C3
ENCODING 41411
SWIDTH 1024 0
DWIDTH 48 0
BBX 48 48 0 -6
BITMAP
000000000000
000000000000
000000000000
000000000000
000000000000
000000000000
000000000000
000000000000
0F0000000000
0FE000000000
0FFC00000000
01FF80000000
003FF0000000
0007FE000000
0000FFC00000
00001FF80000
000003FF0000
0000007FE000
0000000FFC00
00000001FF80
000000003F80
00000001FF80
0000000FFC00
0000007FE000
000003FF0000
00001FF80000
0000FFC00000
0007FE000000
003FF0000000
01FF80000000
0FFC00000000
0FE000000000
0F0000000000
000000000000
000000000000
000000000000
0FFFFFFFFF00
0FFFFFFFFF00
0FFFFFFFFF00
000000000000
000000000000
000000000000
000000000000
000000000000
000000000000
000000000000
000000000000
000000000000
ENDCHAR

STARTCHAR kor_A1C4
ENCODING 41412
SWIDTH 1024 0
DWIDTH 48 0
BBX 48 48 0 -6
BITMAP
000000000000
000000000000
000000000000
000000000000
000000000000
000000000000
000000000000
000000000000
000000000000
000000000000
000000000000
000000000000
000000000000
003FC003FC00
00FFF00FFF00
01FFF81FFF80
03E07C3E07C0
07801E7801E0
0F000E7000F0
0E0007E00070
1E0007E00078
1C0003C00038
1C0003C00038
1C0001800038
1C0003C00038
1C0003C00038
1E0007E00078
0E0007E00070
0F000E7000F0
07801E7801E0
03E07C3E07C0
01FFF81FFF80
00FFF00FFF00
003FC003FC00
000000000000
000000000000
000000000000
000000000000
000000000000
000000000000
000000000000
000000000000
000000000000
000000000000
000000000000
000000000000
000000000000
000000000000
ENDCHAR

STARTCHAR kor_A1C5
ENCODING 41413
SWIDTH 1024 0
DWIDTH 48 0
BBX 48 48 0 -6
BITMAP
000000000000
000000000000
000000000000
000000000000
000000000000
000000000000
000000000000
000000000000
000001800000
000007E00000
000007E00000
00000FF00000
00000FF00000
000007E00000
000007E00000
000001800000
000000000000
000000000000
000000000000
000000000000
000000000000
000000000000
000000000000
000000000000
000000000000
000000000000
000000000000
000000000000
000000000000
000C00003000
003F0000FC00
003F0000FC00
007F8001FE00
007F8001FE00
003F0000FC00
003F0000FC00
000C00003000
000000000000
000000000000
000000000000
000000000000
000000000000
000000000000
000000000000
000000000000
000000000000
000000000000
000000000000
ENDCHAR

STARTCHAR kor_A1C6
ENCODING 41414
SWIDTH 1024 0
DWIDTH 48 0
BBX 48 48 0 -6
BITMAP
000000000000
000000000000
000000000000
03C000000000
0FF000000000
1E7800000000
181800000000
381C00000000
300C00000000
300C00000000
381C00000000
181800000000
1E7800000000
0FF000000000
03C000000000
000000000000
000000000000
000000000000
000000000000
000000000000
000000000000
000000000000
000000000000
000000000000
000000000000
000000000000
000000000000
000000000000
000000000000
000000000000
000000000000
000000000000
000000000000
000000000000
000000000000
000000000000
000000000000
000000000000
000000000000
000000000000
000000000000
000000000000
000000000000
000000000000
000000000000
000000000000
000000000000
000000000000
ENDCHAR

STARTCHAR kor_A1C7
ENCODING 41415
SWIDTH 1024 0
DWIDTH 48 0
BBX 48 48 0 -6
BITMAP
000000000000
000000000000
000000000000
000000000000
01C000000000
03E000000000
03E000000000
03E000000000
03C000000000
07C000000000
078000000000
078000000000
0F0000000000
0E0000000000
1C0000000000
180000000000
300000000000
200000000000
000000000000
000000000000
000000000000
000000000000
000000000000
000000000000
000000000000
000000000000
000000000000
000000000000
000000000000
000000000000
000000000000
000000000000
000000000000
000000000000
000000000000
000000000000
000000000000
000000000000
000000000000
000000000000
000000000000
000000000000
000000000000
000000000000
000000000000
000000000000
000000000000
000000000000
ENDCHAR

STARTCHAR kor_A1C8
ENCODING 41416
SWIDTH 1024 0
DWIDTH 48 0
BBX 48 48 0 -6
BITMAP
000000000000
000000000000
000000000000
000000000000
007070000000
00F8F8000000
00F8F8000000
00F8F8000000
00F0F0000000
01F1F0000000
01E1E0000000
01E1E0000000
03C3C0000000
038380000000
070700000000
060600000000
0C0C00000000
080800000000
000000000000
000000000000
000000000000
000000000000
000000000000
000000000000
000000000000
000000000000
000000000000
000000000000
000000000000
000000000000
000000000000
000000000000
000000000000
000000000000
000000000000
000000000000
000000000000
000000000000
000000000000
000000000000
000000000000
000000000000
000000000000
000000000000
000000000000
000000000000
000000000000
000000000000
ENDCHAR

STARTCHAR kor_A1C9
ENCODING 41417
SWIDTH 1024 0
DWIDTH 48 0
BBX 48 48 0 -6
BITMAP
000000000000
000000000000
000000000000
007800000000
01FE00000000
03CF00000000
030300000000
0703801FC0C0
060180FFF0C0
060183F079C0
070387C01FC0
03030F000FC0
03CF1E0007C0
01FE3C0003C0
0078780001C0
0000780001C0
0000F00000C0
0000F00000C0
0001F0000000
0001E0000000
0001E0000000
0003E0000000
0003E0000000
0003E0000000
0003E0000000
0003E0000000
0003E0000000
0003E0000000
0003E0000000
0003E0000000
0003E0000000
0001E0000000
0001F0000060
0001F0000060
0000F00000E0
0000F80000C0
0000780001C0
00007C000380
00003E000700
00001F000E00
00000FC03C00
000007FFF800
000001FFE000
0000003F8000
000000000000
000000000000
000000000000
000000000000
ENDCHAR

STARTCHAR kor_A1CA
ENCODING 41418
SWIDTH 1024 0
DWIDTH 48 0
BBX 48 48 0 -6
BITMAP
000000000000
000000000000
000001C00000
000007F00000
000007700000
00000E380000
00000C180000
00000E380000
000007700000
000007F00000
000001C00000
000000000000
000000C00000
000001E00000
000003E00000
000007F00000
000007F00000
00000FF80000
00000FF80000
00001CFC0000
00001CFC0000
0000387E0000
0000387E0000
0000703F0000
0000703F0000
0000E01F8000
0000E01F8000
0001C00FC000
0001C00FC000
00038007E000
00038007E000
00070003F000
0007FFFFF000
000FFFFFF800
000E0001F800
001C0000FC00
001C0000FC00
003800007E00
003800007E00
007000003F00
00F000003F80
01E000003F80
03F000007FE0
0FFE0003FFF8
0FFE0003FFF8
000000000000
000000000000
000000000000
ENDCHAR

STARTCHAR kor_A1CB
ENCODING 41419
SWIDTH 1024 0
DWIDTH 48 0
BBX 48 48 0 -6
BITMAP
000000000000
000000000000
000000000000
000000038000
000000038000
000000038000
000000070000
000000070000
000000070000
0000000E0000
0000000E0000
000000FE0000
000003FF8000
00000FDFC000
00001F1DE000
00003C39E000
0000783BF000
0000703BF000
0000F073F000
0000E073F000
0001E071E000
0001E0E00000
0001E0E00000
0001E0E00000
0001E1C00000
0001E1C00000
0001E1C00000
0000F3800000
0000F3808000
00007B818000
00007F030000
00003F0E0000
00001FFC0000
00000FF00000
00000E000000
00000E000000
00001C000000
00001C000000
00001C000000
000038000000
000038000000
000038000000
000070000000
000070000000
000070000000
000000000000
000000000000
000000000000
ENDCHAR

STARTCHAR kor_A1CC
ENCODING 41420
SWIDTH 1024 0
DWIDTH 48 0
BBX 48 48 0 -6
BITMAP
000000000000
000000000000
000000000000
000000000000
000000000000
000000000000
000000000000
0000007E0000
000001FF8000
000003E3E000
00000780F000
00000F007000
00000E007800
00001E00F800
00001C01F800
00003C01F800
00003C01F000
00003C00E000
00003C000000
00003C000000
00003C000000
00003C000000
00003C000000
00003C000000
00003C000000
00001E000000
001FFFFFFC00
001FFFFFFC00
00001E000000
00001E000000
00000E000000
00000E000000
0000FE000C00
0003FE000C00
0007FF001C00
000F1F801C00
000E0FE03800
000E0FF87800
000E0CFFF000
000F1C7FF000
0007F83FE000
0003F00F8000
000000000000
000000000000
000000000000
000000000000
000000000000
000000000000
ENDCHAR

STARTCHAR kor_A1CD
ENCODING 41421
SWIDTH 1024 0
DWIDTH 48 0
BBX 48 48 0 -6
BITMAP
000000000000
000000000000
000000000000
03FFF807FFE0
03FFF807FFE0
007FC0007F00
001F80003C00
000FC0007800
0007C0007000
0007E000E000
0003E000E000
0003F001C000
0001F001C000
0001F8038000
0000F8038000
0000FC070000
00007C070000
00007E0E0000
00003E0E0000
01FFFFFFFFC0
01FFFFFFFFC0
00001FB80000
00000FF80000
00000FF00000
000007F00000
01FFFFFFFFC0
01FFFFFFFFC0
000003E00000
000003E00000
000003E00000
000003E00000
000003E00000
000003E00000
000003E00000
000003E00000
000003E00000
000003E00000
000003E00000
000007F00000
00001FFC0000
0003FFFFE000
0003FFFFE000
000000000000
000000000000
000000000000
000000000000
000000000000
000000000000
ENDCHAR

STARTCHAR kor_A1CE
ENCODING 41422
SWIDTH 1024 0
DWIDTH 48 0
BBX 48 48 0 -6
BITMAP
000000000000
000001C00000
000003E00000
000007F00000
00000FF80000
00001FFC0000
00003DDE0000
000079CF0000
0000F1C78000
0001E1C3C000
0003C1C1E000
000781C0F000
000F01C07800
001E01C03C00
003C01C01E00
003801C00E00
003001C00600
000001C00000
000001C00000
000001C00000
000001C00000
000001C00000
000001C00000
000001C00000
000001C00000
000001C00000
000003E00000
00000FF80000
00003FFE0000
00007C1F0000
0000F0078000
0001E003C000
0001C001C000
0003C001E000
00038000E000
00038000E000
00038000E000
00038000E000
0003C001E000
0001C001C000
0001E003C000
0000F0078000
00007C1F0000
00003FFE0000
00000FF80000
000003E00000
000000000000
000000000000
ENDCHAR

STARTCHAR kor_A1CF
ENCODING 41423
SWIDTH 1024 0
DWIDTH 48 0
BBX 48 48 0 -6
BITMAP
000000000000
000000000000
000003E00000
00000FF80000
00003FFE0000
00007C1F0000
0000F0078000
0001E003C000
0001C001C000
0003C001E000
00038000E000
00038000E000
00038000E000
00038000E000
0003C001E000
0001C001C000
0001E003C000
0000F0078000
00007C1F0000
00003FFE0000
00000FF80000
000003E00000
000001C00000
000001C00000
000001C00000
000001C00000
000001C00000
00FFFFFFFF80
00FFFFFFFF80
00FFFFFFFF80
000001C00000
000001C00000
000001C00000
000001C00000
000001C00000
000001C00000
000001C00000
000001C00000
000001C00000
000001C00000
000001C00000
000001C00000
000001C00000
000001C00000
000001C00000
000001C00000
000001C00000
000000000000
ENDCHAR

STARTCHAR kor_A1D0
ENCODING 41424
SWIDTH 1024 0
DWIDTH 48 0
BBX 48 48 0 -6
BITMAP
000000000000
000000000000
000000000000
000000000000
000000000000
000000000000
000000000000
000000000E00
000000001E00
000000003C00
000000007800
00000000F000
00000001E000
00000003C000
000000078000
0000000F0000
0000001E0000
0000003C0000
000000780000
000000F00000
000001E00000
000003C00000
000007800000
00000F000000
00001E000000
00003C000000
000078000000
0000F0000000
0001E0000000
0003C0000000
000780000000
000F00000000
001E00000000
003C00000000
007800000000
00FFFFFFFF80
00FFFFFFFF80
00FFFFFFFF80
000000000000
000000000000
000000000000
000000000000
000000000000
000000000000
000000000000
000000000000
000000000000
000000000000
ENDCHAR

STARTCHAR kor_A1D1
ENCODING 41425
SWIDTH 1024 0
DWIDTH 48 0
BBX 48 48 0 -6
BITMAP
000000000000
000000000000
000000000000
000000000000
000000000000
000000000000
000000000000
000000000000
000001C00000
000001C00000
000001C00000
000001C00000
000001C00000
000001C00000
000001C00000
000001C00000
000001C00000
000001C00000
000001C00000
000001C00000
000001C00000
000001C00000
000001C00000
000001C00000
000001C00000
000001C00000
000001C00000
000001C00000
000001C00000
000001C00000
000001C00000
000001C00000
000001C00000
000001C00000
000001C00000
01FFFFFFFFC0
01FFFFFFFFC0
01FFFFFFFFC0
000000000000
000000000000
000000000000
000000000000
000000000000
000000000000
000000000000
000000000000
000000000000
000000000000
ENDCHAR

STARTCHAR kor_A1D2
ENCODING 41426
SWIDTH 1024 0
DWIDTH 48 0
BBX 48 48 0 -6
BITMAP
000000000000
000000000000
000007F00000
00001FFC0000
00007FFF0000
0000FC1F8000
0001E003C000
00038000E000
000700007000
000600003000
000400001000
000000000000
000000000000
000000000000
000000000000
000000000000
000000000000
000000000000
000000000000
000000000000
000000000000
000000000000
000000000000
000000000000
000000000000
000000000000
000000000000
000000000000
000000000000
000000000000
000000000000
000000000000
000000000000
000000000000
000000000000
000000000000
000000000000
000000000000
000000000000
000000000000
000000000000
000000000000
000000000000
000000000000
000000000000
000000000000
000000000000
000000000000
ENDCHAR

STARTCHAR kor_A1D3
ENCODING 41427
SWIDTH 1024 0
DWIDTH 48 0
BBX 48 48 0 -6
BITMAP
000000000000
000000000000
000000000000
000000FC0000
000003FF0000
000007FF8000
00000FFFC000
00001F0FC000
00001C03E000
00003801E000
00003000E000
00007000F000
000060007000
000000007000
000000007000
000000007000
000000007000
000000007000
000000007000
000000007000
00000FC07000
00003FF0F000
0000F8F8E000
0001E03CE000
0003C01FE000
0007800FE000
0007800FC000
000F0007C000
000F0007C000
000F00078000
001E000F8000
001E000F0000
001E000F0000
001E001E0000
001E001E0000
001E003C0000
001E003C0000
000F00780000
000F00F00000
000781E00000
0003E7C00000
0001FF800000
00007E000000
000000000000
000000000000
000000000000
000000000000
000000000000
ENDCHAR

STARTCHAR kor_A1D4
ENCODING 41428
SWIDTH 1024 0
DWIDTH 48 0
BBX 48 48 0 -6
BITMAP
000000000000
000000000000
000000000000
000000000000
000000000000
000000000000
000000000000
000000000000
0FFFFFFFFFFC
0FFFFFFFFFFC
0FFFFFFFFFFC
078000000078
038000000070
03C0000000F0
01E0000001E0
00E0000001C0
00F0000003C0
007800000780
003800000700
003C00000F00
001E00001E00
000E00001C00
000F00003C00
000780007800
000380007000
0003C000F000
0001E001E000
0000E001C000
0000F003C000
000078078000
000038070000
00003C0F0000
00001E1E0000
00000E1C0000
00000F3C0000
000007F80000
000003F00000
000003F00000
000001E00000
000000C00000
000000000000
000000000000
000000000000
000000000000
000000000000
000000000000
000000000000
000000000000
ENDCHAR

STARTCHAR kor_A1D5
ENCODING 41429
SWIDTH 1024 0
DWIDTH 48 0
BBX 48 48 0 -6
BITMAP
000000000000
000000000000
000000000000
000000000000
000000000000
000000000000
000000000000
000000000000
000000000000
000000000000
000000000000
000000000000
000000000000
000000000000
000000000000
07FFFFFFFFE0
07FFFFFFFFE0
07FFFFFFFFE0
000000000000
000000000000
000000000000
000000000000
000000000000
07FFFFFFFFE0
07FFFFFFFFE0
07FFFFFFFFE0
000000000000
000000000000
000000000000
000000000000
000000000000
07FFFFFFFFE0
07FFFFFFFFE0
07FFFFFFFFE0
000000000000
000000000000
000000000000
000000000000
000000000000
000000000000
000000000000
000000000000
000000000000
000000000000
000000000000
000000000000
000000000000
000000000000
ENDCHAR

STARTCHAR kor_A1D6
ENCODING 41430
SWIDTH 1024 0
DWIDTH 48 0
BBX 48 48 0 -6
BITMAP
000000000000
000000000000
000000000000
000000000000
000000000000
000000000000
000000000000
000000000000
000600000000
001F80000000
001F80000000
003FC0000000
003FC0000000
001F80000000
001F80000000
000600000000
000000000000
000000000000
000000000000
07FFFFFFFFE0
07FFFFFFFFE0
07FFFFFFFFE0
000000000000
000000000000
000000000000
000000000000
000000000000
000000000000
07FFFFFFFFE0
07FFFFFFFFE0
07FFFFFFFFE0
000000000000
000000000000
000000000000
000000006000
00000001F800
00000001F800
00000003FC00
00000003FC00
00000001F800
00000001F800
000000006000
000000000000
000000000000
000000000000
000000000000
000000000000
000000000000
ENDCHAR

STARTCHAR kor_A1D7
ENCODING 41431
SWIDTH 1024 0
DWIDTH 48 0
BBX 48 48 0 -6
BITMAP
000000000000
00000FF80000
00003FFE0000
00007C1F0000
0000780F8000
0000F80F8000
0000F81FC000
0000F81FC000
0000FC1FC000
00007C0F8000
00007E070000
00003F000000
00001F800000
00000FC00000
000007E00000
000003F00000
000001F80000
00003FFC0000
0000FFFE0000
0001F03F0000
0001E01F8000
0003E00FC000
0003E007E000
0003E003F000
0003F001F000
0001F001F800
0001F800F800
0000FC00F800
00007E00F800
00003F01F000
00001F81F000
00000FC7E000
000007FFC000
000003FF0000
000001F80000
000000FC0000
0000007E0000
0000783F0000
0000FC1F8000
0001FE0F8000
0001FE0FC000
0001FE07C000
0000FC07C000
0000FC078000
00007E0F8000
00003FFF0000
00000FFC0000
000000000000
ENDCHAR

STARTCHAR kor_A1D8
ENCODING 41432
SWIDTH 1024 0
DWIDTH 48 0
BBX 48 48 0 -6
BITMAP
000000000000
000000000000
000000000000
000000000000
000000000000
000000000000
000000000000
01C0000001C0
01E001C003C0
00F007F00780
007807F00F00
003C0FF81E00
001E0FF83C00
000F0FF87800
000787F0F000
0003C7F1E000
0001E1C3C000
0000F0078000
0000780F0000
00003C1E0000
000E1E3C3800
003F8F78FE00
003F87F0FE00
007FC3E1FF00
007FC3E1FF00
007FC7F1FF00
003F8F78FE00
003F9E3CFE00
000E3C1E3800
0000780F0000
0000F0078000
0001E1C3C000
0003C7F1E000
000787F0F000
000F0FF87800
001E0FF83C00
003C0FF81E00
007807F00F00
00F007F00780
01E001C003C0
01C0000001C0
0180000000C0
000000000000
000000000000
000000000000
000000000000
000000000000
000000000000
ENDCHAR

STARTCHAR kor_A1D9
ENCODING 41433
SWIDTH 1024 0
DWIDTH 48 0
BBX 48 48 0 -6
BITMAP
000000000000
000000000000
000000C00000
000000C00000
000000C00000
000001E00000
000001E00000
000001E00000
000003F00000
000003300000
000003300000
000007380000
000006180000
000006180000
00000E1C0000
00000C0C0000
07FFFC0FFFF8
07FFFC0FFFF8
038000000070
01C0000000E0
00E0000001C0
007000000380
003800000700
001C00000E00
000E00001C00
000700003800
000380007000
0001C000E000
0001C000E000
000180C06000
000381E07000
000303F03000
000307383000
00070E1C3800
00061C0E1800
000638071800
000E70039C00
000CE001CC00
000DC000EC00
001F80007E00
001F00003E00
001E00001E00
003C00000F00
003800000700
003000000300
000000000000
000000000000
000000000000
ENDCHAR

STARTCHAR kor_A1DA
ENCODING 41434
SWIDTH 1024 0
DWIDTH 48 0
BBX 48 48 0 -6
BITMAP
000000000000
000000000000
000000C00000
000000C00000
000000C00000
000001E00000
000001E00000
000001E00000
000003F00000
000003F00000
000003F00000
000007F80000
000007F80000
000007F80000
00000FFC0000
00000FFC0000
07FFFFFFFFF8
07FFFFFFFFF8
03FFFFFFFFF0
01FFFFFFFFE0
00FFFFFFFFC0
007FFFFFFF80
003FFFFFFF00
001FFFFFFE00
000FFFFFFC00
0007FFFFF800
0003FFFFF000
0001FFFFE000
0001FFFFE000
0001FFFFE000
0003FFFFF000
0003FFFFF000
0003FF3FF000
0007FE1FF800
0007FC0FF800
0007F807F800
000FF003FC00
000FE001FC00
000FC000FC00
001F80007E00
001F00003E00
001E00001E00
003C00000F00
003800000700
003000000300
000000000000
000000000000
000000000000
ENDCHAR

STARTCHAR kor_A1DB
ENCODING 41435
SWIDTH 1024 0
DWIDTH 48 0
BBX 48 48 0 -6
BITMAP
000000000000
000000000000
000000000000
00001FFC0000
0000FFFF8000
0003FFFFE000
000FE003F800
003F00007E00
007C00001F00
00F000000780
01E0000003C0
03C0000001E0
0780000000F0
070000000070
0E0000000078
0E0000000038
1C000000003C
1C000000001C
1C000000001C
38000000001E
38000000000E
38000000000E
38000000000E
38000000000E
38000000000E
38000000000E
38000000000E
38000000000E
38000000000E
38000000001E
1C000000001C
1C000000001C
1C000000003C
0E0000000038
0E0000000078
070000000070
0780000000F0
03C0000001E0
01E0000003C0
00F000000780
007800000F00
003E00003E00
001FC001FC00
0007FFFFF000
0001FFFFC000
00003FFE0000
000000000000
000000000000
ENDCHAR

STARTCHAR kor_A1DC
ENCODING 41436
SWIDTH 1024 0
DWIDTH 48 0
BBX 48 48 0 -6
BITMAP
000000000000
000000000000
000000000000
00001FFC0000
0000FFFF8000
0003FFFFE000
000FFFFFF800
003FFFFFFE00
007FFFFFFF00
00FFFFFFFF80
01FFFFFFFFC0
03FFFFFFFFE0
07FFFFFFFFF0
07FFFFFFFFF0
0FFFFFFFFFF8
0FFFFFFFFFF8
1FFFFFFFFFFC
1FFFFFFFFFFC
1FFFFFFFFFFC
3FFFFFFFFFFE
3FFFFFFFFFFE
3FFFFFFFFFFE
3FFFFFFFFFFE
3FFFFFFFFFFE
3FFFFFFFFFFE
3FFFFFFFFFFE
3FFFFFFFFFFE
3FFFFFFFFFFE
3FFFFFFFFFFE
3FFFFFFFFFFE
1FFFFFFFFFFC
1FFFFFFFFFFC
1FFFFFFFFFFC
0FFFFFFFFFF8
0FFFFFFFFFF8
07FFFFFFFFF0
07FFFFFFFFF0
03FFFFFFFFE0
01FFFFFFFFC0
00FFFFFFFF80
007FFFFFFF00
003FFFFFFE00
001FFFFFFC00
0007FFFFF000
0001FFFFC000
00003FFE0000
000000000000
000000000000
ENDCHAR

STARTCHAR kor_A1DD
ENCODING 41437
SWIDTH 1024 0
DWIDTH 48 0
BBX 48 48 0 -6
BITMAP
000000000000
000000000000
000000000000
00003FF80000
0001FFFF0000
0007FFFFC000
001FC007F000
003E0000FC00
007800003E00
00F00FF00F00
01E07FFE0780
03C1FFFF83C0
0783F00FC1E0
0707C003E0E0
0E0F0000F070
0E1E00007870
1C3C00003C38
1C3800001C38
1C7000000E38
387000000E1C
387000000E1C
38E00000071C
38E00000071C
38E00000071C
38E00000071C
38E00000071C
38E00000071C
38E00000071C
387000000E1C
387000000E1C
1C7800000E38
1C3800001C38
1C3C00003C38
0E1E00007870
0E0F0000F070
07078003E0E0
0783F00FC1E0
03C1FFFF83C0
01E07FFE0780
00F00FF00F00
007800001E00
003E00007C00
001FC003F800
0007FFFFE000
0001FFFF8000
00003FFC0000
000000000000
000000000000
ENDCHAR

STARTCHAR kor_A1DE
ENCODING 41438
SWIDTH 1024 0
DWIDTH 48 0
BBX 48 48 0 -6
BITMAP
000000000000
000001000000
000003800000
000007C00000
00000FE00000
00001EF00000
00003C780000
0000783C0000
0000F01E0000
0001E00F0000
0003C0078000
00078003C000
000F0001E000
001E0000F000
003C00007800
007800003C00
00F000001E00
01E000000F00
03C000000780
0780000003C0
0F00000001E0
1E00000000F0
3C0000000078
78000000003C
3C000000001E
1E000000003C
0F0000000078
0780000000F0
03C0000001E0
01E0000003C0
00F000000780
007800000F00
003C00001E00
001E00003C00
000F00007800
00078000F000
0003C001E000
0001E003C000
0000F0078000
0000780F0000
00003C1E0000
00001E3C0000
00000F780000
000007F00000
000003E00000
000001C00000
000000800000
000000000000
ENDCHAR

STARTCHAR kor_A1DF
ENCODING 41439
SWIDTH 1024 0
DWIDTH 48 0
BBX 48 48 0 -6
BITMAP
000000000000
000001000000
000003800000
000007C00000
00000FE00000
00001FF00000
00003FF80000
00007FFC0000
0000FFFE0000
0001FFFF0000
0003FFFF8000
0007FFFFC000
000FFFFFE000
001FFFFFF000
003FFFFFF800
007FFFFFFC00
00FFFFFFFE00
01FFFFFFFF00
03FFFFFFFF80
07FFFFFFFFC0
0FFFFFFFFFE0
1FFFFFFFFFF0
3FFFFFFFFFF8
7FFFFFFFFFFC
3FFFFFFFFFFE
1FFFFFFFFFFC
0FFFFFFFFFF8
07FFFFFFFFF0
03FFFFFFFFE0
01FFFFFFFFC0
00FFFFFFFF80
007FFFFFFF00
003FFFFFFE00
001FFFFFFC00
000FFFFFF800
0007FFFFF000
0003FFFFE000
0001FFFFC000
0000FFFF8000
00007FFF0000
00003FFE0000
00001FFC0000
00000FF80000
000007F00000
000003E00000
000001C00000
000000800000
000000000000
ENDCHAR

STARTCHAR kor_A1E0
ENCODING 41440
SWIDTH 1024 0
DWIDTH 48 0
BBX 48 48 0 -6
BITMAP
000000000000
000000000000
000000000000
1FFFFFFFFFF8
1FFFFFFFFFF8
1FFFFFFFFFF8
1C0000000038
1C0000000038
1C0000000038
1C0000000038
1C0000000038
1C0000000038
1C0000000038
1C0000000038
1C0000000038
1C0000000038
1C0000000038
1C0000000038
1C0000000038
1C0000000038
1C0000000038
1C0000000038
1C0000000038
1C0000000038
1C0000000038
1C0000000038
1C0000000038
1C0000000038
1C0000000038
1C0000000038
1C0000000038
1C0000000038
1C0000000038
1C0000000038
1C0000000038
1C0000000038
1C0000000038
1C0000000038
1C0000000038
1C0000000038
1C0000000038
1C0000000038
1FFFFFFFFFF8
1FFFFFFFFFF8
1FFFFFFFFFF8
000000000000
000000000000
000000000000
ENDCHAR

STARTCHAR kor_A1E1
ENCODING 41441
SWIDTH 1024 0
DWIDTH 48 0
BBX 48 48 0 -6
BITMAP
000000000000
000000000000
000000000000
1FFFFFFFFFF8
1FFFFFFFFFF8
1FFFFFFFFFF8
1FFFFFFFFFF8
1FFFFFFFFFF8
1FFFFFFFFFF8
1FFFFFFFFFF8
1FFFFFFFFFF8
1FFFFFFFFFF8
1FFFFFFFFFF8
1FFFFFFFFFF8
1FFFFFFFFFF8
1FFFFFFFFFF8
1FFFFFFFFFF8
1FFFFFFFFFF8
1FFFFFFFFFF8
1FFFFFFFFFF8
1FFFFFFFFFF8
1FFFFFFFFFF8
1FFFFFFFFFF8
1FFFFFFFFFF8
1FFFFFFFFFF8
1FFFFFFFFFF8
1FFFFFFFFFF8
1FFFFFFFFFF8
1FFFFFFFFFF8
1FFFFFFFFFF8
1FFFFFFFFFF8
1FFFFFFFFFF8
1FFFFFFFFFF8
1FFFFFFFFFF8
1FFFFFFFFFF8
1FFFFFFFFFF8
1FFFFFFFFFF8
1FFFFFFFFFF8
1FFFFFFFFFF8
1FFFFFFFFFF8
1FFFFFFFFFF8
1FFFFFFFFFF8
1FFFFFFFFFF8
1FFFFFFFFFF8
1FFFFFFFFFF8
000000000000
000000000000
000000000000
ENDCHAR

STARTCHAR kor_A1E2
ENCODING 41442
SWIDTH 1024 0
DWIDTH 48 0
BBX 48 48 0 -6
BITMAP
000000000000
000000000000
000000000000
000000000000
000000000000
000000000000
000000000000
000000000000
000000000000
000001800000
000003C00000
000007E00000
000007E00000
00000E700000
00001E780000
00001C380000
0000381C0000
0000781E0000
0000700E0000
0000E0070000
0001E0078000
0001C0038000
00038001C000
00078001E000
00070000E000
000E00007000
001E00007800
001C00003800
003800001C00
007800001E00
007000000E00
00E000000700
01E000000780
01C000000380
0380000001C0
0780000001E0
0700000000E0
0E0000000070
1FFFFFFFFFF8
1FFFFFFFFFF8
1FFFFFFFFFF8
000000000000
000000000000
000000000000
000000000000
000000000000
000000000000
000000000000
ENDCHAR

STARTCHAR kor_A1E3
ENCODING 41443
SWIDTH 1024 0
DWIDTH 48 0
BBX 48 48 0 -6
BITMAP
000000000000
000000000000
000000000000
000000000000
000000000000
000000000000
000000000000
000000000000
000000000000
000001800000
000003C00000
000007E00000
000007E00000
00000FF00000
00001FF80000
00001FF80000
00003FFC0000
00007FFE0000
00007FFE0000
0000FFFF0000
0001FFFF8000
0001FFFF8000
0003FFFFC000
0007FFFFE000
0007FFFFE000
000FFFFFF000
001FFFFFF800
001FFFFFF800
003FFFFFFC00
007FFFFFFE00
007FFFFFFE00
00FFFFFFFF00
01FFFFFFFF80
01FFFFFFFF80
03FFFFFFFFC0
07FFFFFFFFE0
07FFFFFFFFE0
0FFFFFFFFFF0
1FFFFFFFFFF8
1FFFFFFFFFF8
1FFFFFFFFFF8
000000000000
000000000000
000000000000
000000000000
000000000000
000000000000
000000000000
ENDCHAR

STARTCHAR kor_A1E4
ENCODING 41444
SWIDTH 1024 0
DWIDTH 48 0
BBX 48 48 0 -6
BITMAP
000000000000
000000000000
000000000000
000000000000
000000000000
000000000000
000000000000
000000000000
1FFFFFFFFFF8
1FFFFFFFFFF8
1FFFFFFFFFF8
0F0000000070
0700000000E0
0780000001E0
0380000001C0
01C000000380
01E000000780
00E000000700
007000000E00
007800001E00
003800001C00
001C00003800
001E00007800
000E00007000
00070000E000
00078001E000
00038001C000
0001C0038000
0001E0078000
0000E0070000
0000700E0000
0000781E0000
0000381C0000
00001C380000
00001E780000
00000E700000
000007E00000
000007E00000
000003C00000
000001800000
000000000000
000000000000
000000000000
000000000000
000000000000
000000000000
000000000000
000000000000
ENDCHAR

STARTCHAR kor_A1E5
ENCODING 41445
SWIDTH 1024 0
DWIDTH 48 0
BBX 48 48 0 -6
BITMAP
000000000000
000000000000
000000000000
000000000000
000000000000
000000000000
000000000000
000000000000
1FFFFFFFFFF8
1FFFFFFFFFF8
1FFFFFFFFFF8
0FFFFFFFFFF0
07FFFFFFFFE0
07FFFFFFFFE0
03FFFFFFFFC0
01FFFFFFFF80
01FFFFFFFF80
00FFFFFFFF00
007FFFFFFE00
007FFFFFFE00
003FFFFFFC00
001FFFFFF800
001FFFFFF800
000FFFFFF000
0007FFFFE000
0007FFFFE000
0003FFFFC000
0001FFFF8000
0001FFFF8000
0000FFFF0000
00007FFE0000
00007FFE0000
00003FFC0000
00001FF80000
00001FF80000
00000FF00000
000007E00000
000007E00000
000003C00000
000001800000
000000000000
000000000000
000000000000
000000000000
000000000000
000000000000
000000000000
000000000000
ENDCHAR

STARTCHAR kor_A1E6
ENCODING 41446
SWIDTH 1024 0
DWIDTH 48 0
BBX 48 48 0 -6
BITMAP
000000000000
000000000000
000000000000
000000000000
000000000000
000000000000
000000000000
000000000000
000000000000
000000000000
000000000000
000000000000
000000000000
000000000000
00000000C000
00000000F000
000000007800
000000003E00
000000001F00
000000000F80
0000000007E0
0000000003F0
0000000001F8
7FFFFFFFFFFC
7FFFFFFFFFFE
7FFFFFFFFFFC
0000000001F8
0000000003F0
0000000007C0
000000000F80
000000001F00
000000003C00
000000007800
00000000E000
00000000C000
000000000000
000000000000
000000000000
000000000000
000000000000
000000000000
000000000000
000000000000
000000000000
000000000000
000000000000
000000000000
000000000000
ENDCHAR

STARTCHAR kor_A1E7
ENCODING 41447
SWIDTH 1024 0
DWIDTH 48 0
BBX 48 48 0 -6
BITMAP
000000000000
000000000000
000000000000
000000000000
000000000000
000000000000
000000000000
000000000000
000000000000
000000000000
000000000000
000000000000
000000000000
000000000000
000300000000
000700000000
001E00000000
003C00000000
00F800000000
01F000000000
03E000000000
0FC000000000
1F8000000000
3FFFFFFFFFFE
7FFFFFFFFFFE
3FFFFFFFFFFE
1F8000000000
0FC000000000
03E000000000
01F000000000
00F800000000
003C00000000
001E00000000
000700000000
000300000000
000000000000
000000000000
000000000000
000000000000
000000000000
000000000000
000000000000
000000000000
000000000000
000000000000
000000000000
000000000000
000000000000
ENDCHAR

STARTCHAR kor_A1E8
ENCODING 41448
SWIDTH 1024 0
DWIDTH 48 0
BBX 48 48 0 -6
BITMAP
000000000000
000000800000
000001C00000
000003E00000
000007F00000
000007F00000
00000FF80000
00001FFC0000
00003FFE0000
00003DDE0000
000079CF0000
0000F1C78000
0000E1C38000
0001C1C1C000
000381C0E000
000301C06000
000001C00000
000001C00000
000001C00000
000001C00000
000001C00000
000001C00000
000001C00000
000001C00000
000001C00000
000001C00000
000001C00000
000001C00000
000001C00000
000001C00000
000001C00000
000001C00000
000001C00000
000001C00000
000001C00000
000001C00000
000001C00000
000001C00000
000001C00000
000001C00000
000001C00000
000001C00000
000001C00000
000001C00000
000001C00000
000001C00000
000001C00000
000000000000
ENDCHAR

STARTCHAR kor_A1E9
ENCODING 41449
SWIDTH 1024 0
DWIDTH 48 0
BBX 48 48 0 -6
BITMAP
000000000000
000001C00000
000001C00000
000001C00000
000001C00000
000001C00000
000001C00000
000001C00000
000001C00000
000001C00000
000001C00000
000001C00000
000001C00000
000001C00000
000001C00000
000001C00000
000001C00000
000001C00000
000001C00000
000001C00000
000001C00000
000001C00000
000001C00000
000001C00000
000001C00000
000001C00000
000001C00000
000001C00000
000001C00000
000001C00000
000001C00000
000001C00000
000301C06000
000381C0E000
0001C1C1C000
0000E1C38000
0000F1C78000
000079CF0000
00003DDE0000
00003FFE0000
00001FFC0000
00000FF80000
000007F00000
000007F00000
000003E00000
000001C00000
000000800000
000000000000
ENDCHAR

STARTCHAR kor_A1EA
ENCODING 41450
SWIDTH 1024 0
DWIDTH 48 0
BBX 48 48 0 -6
BITMAP
000000000000
000000000000
000000000000
000000000000
000000000000
000000000000
000000000000
000000000000
000000000000
000000000000
000000000000
000000000000
000000000000
000000000000
00030000C000
00070000E000
001E00007800
003C00003C00
00F800001F00
01F000000F80
03E0000007C0
0FC0000003F0
1F80000001F8
3FFFFFFFFFFC
7FFFFFFFFFFE
3FFFFFFFFFFC
1F80000001F8
0FC0000003F0
03E0000007C0
01F000000F80
00F800001F00
003C00003C00
001E00007800
00070000E000
00030001C000
000000000000
000000000000
000000000000
000000000000
000000000000
000000000000
000000000000
000000000000
000000000000
000000000000
000000000000
000000000000
000000000000
ENDCHAR

STARTCHAR kor_A1EB
ENCODING 41451
SWIDTH 1024 0
DWIDTH 48 0
BBX 48 48 0 -6
BITMAP
000000000000
000000000000
000000000000
000000000000
000000000000
000000000000
000000000000
000000000000
000000000000
000000000000
000000000000
000000000000
000000000000
000000000000
000000000000
000000000000
7FFFFFFFFFFE
7FFFFFFFFFFE
7FFFFFFFFFFE
000000000000
000000000000
000000000000
000000000000
000000000000
000000000000
000000000000
000000000000
000000000000
000000000000
000000000000
7FFFFFFFFFFE
7FFFFFFFFFFE
7FFFFFFFFFFE
000000000000
000000000000
000000000000
000000000000
000000000000
000000000000
000000000000
000000000000
000000000000
000000000000
000000000000
000000000000
000000000000
000000000000
000000000000
ENDCHAR

STARTCHAR kor_A1EC
ENCODING 41452
SWIDTH 1024 0
DWIDTH 48 0
BBX 48 48 0 -6
BITMAP
000000000000
000000000000
000000000000
000000000000
000000000000
000000038038
000000078078
0000001F81F8
0000003E03E0
000000FC0FC0
000001F01F00
000007E07E00
00000F80F800
00003F03F000
00007C07C000
0001F81F8000
0003E03E0000
000FC0FC0000
001F01F00000
007E07E00000
00F80F800000
01F03F000000
07C07C000000
0F80F8000000
1F01F0000000
0F80F8000000
07C07C000000
01F03F000000
00F80F800000
007E07E00000
001F01F00000
000FC0FC0000
0003E03E0000
0001F81F8000
00007C07C000
00003F03F000
00000F80F800
000007E07E00
000001F01F00
000000FC0FC0
0000003E03E0
0000001F81F8
000000078078
000000038038
000000000000
000000000000
000000000000
000000000000
ENDCHAR

STARTCHAR kor_A1ED
ENCODING 41453
SWIDTH 1024 0
DWIDTH 48 0
BBX 48 48 0 -6
BITMAP
000000000000
000000000000
000000000000
000000000000
1C01C0000000
1E01E0000000
1F81F8000000
07C07C000000
03F03F000000
00F80F800000
007E07E00000
001F01F00000
000FC0FC0000
0003E03E0000
0001F81F8000
00007C07C000
00003F03F000
00000F80F800
000007E07E00
000001F01F00
000000FC0FC0
0000003E03E0
0000001F01F0
0000000F80F8
0000001F01F0
0000003E03E0
000000FC0FC0
000001F01F00
000007E07E00
00000F80F800
00003F03F000
00007C07C000
0001F81F8000
0003E03E0000
000FC0FC0000
001F01F00000
007E07E00000
00F80F800000
03F03F000000
07C07C000000
1F81F8000000
1E01E0000000
1C01C0000000
000000000000
000000000000
000000000000
000000000000
000000000000
ENDCHAR

STARTCHAR kor_A1EE
ENCODING 41454
SWIDTH 1024 0
DWIDTH 48 0
BBX 48 48 0 -6
BITMAP
000000000000
000000380000
000000380000
000000700000
000000700000
000000700000
000000E00000
000000E00000
000000E00000
000001C00000
000001C00000
000001C00000
000003800000
000003800000
000003800000
000007000000
000007000000
000007000000
00000E000000
00000E000000
00000E000000
00001C000000
00001C000000
00001C000000
000038000000
000038000000
000038000000
018070000000
03C070000000
07C070000000
0FE0E0000000
1FE0E0000000
3DF0E0000000
39F1C0000000
30F9C0000000
00F9C0000000
007F80000000
007F80000000
003F80000000
003F00000000
001F00000000
001F00000000
000E00000000
000E00000000
000E00000000
000000000000
000000000000
000000000000
ENDCHAR

STARTCHAR kor_A1EF
ENCODING 41455
SWIDTH 1024 0
DWIDTH 48 0
BBX 48 48 0 -6
BITMAP
000000000000
000000000000
000000000000
000000000000
000000000000
000000000000
000000000000
000000000000
000000000000
000000000000
000000000000
000000000000
000000000000
003F8001FC00
00FF8007FF00
01FF800FFF80
03E0001F07C0
0780003C01E0
0F00007800F0
0E0000700070
1E0000F00078
1C0001E00038
1C0001C00038
1C0003C00038
1C0003800038
1C0007800038
1E000F000078
0E000E000070
0F001E0000F0
07803C0001E0
03E0F80007C0
01FFF001FF80
00FFE001FF00
003F8001FC00
000000000000
000000000000
000000000000
000000000000
000000000000
000000000000
000000000000
000000000000
000000000000
000000000000
000000000000
000000000000
000000000000
000000000000
ENDCHAR

STARTCHAR kor_A1F0
ENCODING 41456
SWIDTH 1024 0
DWIDTH 48 0
BBX 48 48 0 -6
BITMAP
000000000000
000000000000
000000000000
000000000000
000000000000
000000000000
000000000000
000000000000
000000000000
000000000000
000000000000
000000000000
000000000000
003FC0007FF0
00FFF003FFF0
01FFFC0FFFF0
03E07E1FC000
07801F3E0000
0F000F780000
0E0007F00000
1E0003F00000
1C0003E00000
1C0001E00000
1C0001C00000
1C0001E00000
1C0003E00000
1E0003F00000
0E0007F00000
0F000F780000
07801F3E0000
03E07E1FC000
01FFFC0FFFF0
00FFF003FFF0
003FC0007FF0
000000000000
000000000000
000000000000
000000000000
000000000000
000000000000
000000000000
000000000000
000000000000
000000000000
000000000000
000000000000
000000000000
000000000000
ENDCHAR

STARTCHAR kor_A1F1
ENCODING 41457
SWIDTH 1024 0
DWIDTH 48 0
BBX 48 48 0 -6
BITMAP
000000000000
000000000000
000000000000
000000000000
000000000000
000000000000
000000000000
000000000000
000000000000
001800003000
007E0000FC00
007E0000FC00
00FF0001FE00
00FF0001FE00
007E0000FC00
007E0000FC00
001800003000
000000000000
000000000000
000000000000
000000000000
000000000000
000000000000
000000000000
000000000000
000000000000
000000000000
000000000000
000000000000
000000000000
000000000000
000001800000
000007E00000
000007E00000
00000FF00000
00000FF00000
000007E00000
000007E00000
000001800000
000000000000
000000000000
000000000000
000000000000
000000000000
000000000000
000000000000
000000000000
000000000000
ENDCHAR

STARTCHAR kor_A1F2
ENCODING 41458
SWIDTH 1024 0
DWIDTH 48 0
BBX 48 48 0 -6
BITMAP
000000000000
000000E00000
000003F80000
000007FC0000
00000FFC0000
00000EFC0000
00001CFC0000
00001C780000
000038000000
000038000000
000038000000
000038000000
00003C000000
00003C000000
00003C000000
00001E000000
00001E000000
00001E000000
00001F000000
00000F000000
00000F000000
00000F800000
000007800000
000007800000
000007800000
000003C00000
000003C00000
000003C00000
000001E00000
000001E00000
000001E00000
000000E00000
000000F00000
000000F00000
000000F00000
000000700000
000000700000
000000700000
000000700000
000000700000
00003C700000
00007EE00000
00007EE00000
00007FC00000
00007FC00000
00003F800000
00001E000000
000000000000
ENDCHAR

STARTCHAR kor_A1F3
ENCODING 41459
SWIDTH 1024 0
DWIDTH 48 0
BBX 48 48 0 -6
BITMAP
000000000000
00007001C000
0001FC07F000
0003FE0FF800
0007FE1FF800
00077E1DF800
000E7E39F800
000E3C38F000
001C00700000
001C00700000
001C00700000
001C00700000
001E00780000
001E00780000
001E00780000
000F003C0000
000F003C0000
000F003C0000
000F803E0000
0007801E0000
0007801E0000
0007C01F0000
0003C00F0000
0003C00F0000
0003C00F0000
0001E0078000
0001E0078000
0001E0078000
0000F003C000
0000F003C000
0000F003C000
00007001C000
00007801E000
00007801E000
00007801E000
00003800E000
00003800E000
00003800E000
00003800E000
00003800E000
001E3878E000
003F70FDC000
003F70FDC000
003FE0FF8000
003FE0FF8000
001FC07F0000
000F003C0000
000000000000
ENDCHAR

STARTCHAR kor_A1F4
ENCODING 41460
SWIDTH 1024 0
DWIDTH 48 0
BBX 48 48 0 -6
BITMAP
000000000000
000000000000
000000000000
000000000000
000000000000
000000000000
000000000000
000000000000
000000000000
0001FFFFFFF0
000FFFFFFFF0
003FFFFFFFF0
007F00000000
00F800000000
01E000000000
03C000000000
038000000000
078000000000
070000000000
0F0000000000
0E0000000000
0E0000000000
0FFFFFFFFFF0
0FFFFFFFFFF0
0FFFFFFFFFF0
0E0000000000
0E0000000000
0F0000000000
070000000000
078000000000
038000000000
03C000000000
01E000000000
00F800000000
007F00000000
003FFFFFFFF0
000FFFFFFFF0
0001FFFFFFF0
000000000000
000000000000
000000000000
000000000000
000000000000
000000000000
000000000000
000000000000
000000000000
000000000000
ENDCHAR

STARTCHAR kor_A1F5
ENCODING 41461
SWIDTH 1024 0
DWIDTH 48 0
BBX 48 48 0 -6
BITMAP
000000000000
000000000000
000000000000
000000000000
000000000000
000000000000
000000000000
000000000000
000000000000
0FFFFFFF8000
0FFFFFFFF000
0FFFFFFFFC00
00000000FE00
000000001F00
000000000780
0000000003C0
0000000001C0
0000000001E0
0000000000E0
0000000000F0
000000000070
000000000070
0FFFFFFFFFF0
0FFFFFFFFFF0
0FFFFFFFFFF0
000000000070
000000000070
0000000000F0
0000000000E0
0000000001E0
0000000001C0
0000000003C0
000000000780
000000001F00
00000000FE00
0FFFFFFFFC00
0FFFFFFFF000
0FFFFFFF8000
000000000000
000000000000
000000000000
000000000000
000000000000
000000000000
000000000000
000000000000
000000000000
000000000000
ENDCHAR

STARTCHAR kor_A1F6
ENCODING 41462
SWIDTH 1024 0
DWIDTH 48 0
BBX 48 48 0 -6
BITMAP
000000000000
000000000000
000000000000
000000000000
000000000000
000000000000
000000000000
000000000000
0001FFFFFF80
000FFFFFFF80
003FFFFFFF80
007F00000000
00F800000000
01E000000000
01C000000000
03C000000000
038000000000
038000000000
038000000000
038000000000
038000000000
038000000000
03C000000000
01C000000000
01E000000000
00F800000000
007F00000000
003FFFFFFF80
000FFFFFFF80
0001FFFFFF80
000000000000
000000000000
000000000000
000000000000
000000000000
000000000000
03FFFFFFFF80
03FFFFFFFF80
03FFFFFFFF80
000000000000
000000000000
000000000000
000000000000
000000000000
000000000000
000000000000
000000000000
000000000000
ENDCHAR

STARTCHAR kor_A1F7
ENCODING 41463
SWIDTH 1024 0
DWIDTH 48 0
BBX 48 48 0 -6
BITMAP
000000000000
000000000000
000000000000
000000000000
000000000000
000000000000
000000000000
000000000000
01FFFFFF0000
01FFFFFFE000
01FFFFFFF800
00000003FC00
000000007E00
000000001F00
000000000F00
000000000780
000000000780
000000000380
000000000380
000000000380
000000000380
000000000380
000000000780
000000000780
000000000F00
000000001F00
000000007E00
00000003FC00
01FFFFFFF800
01FFFFFFE000
01FFFFFF0000
000000000000
000000000000
000000000000
000000000000
000000000000
01FFFFFFFF80
01FFFFFFFF80
01FFFFFFFF80
000000000000
000000000000
000000000000
000000000000
000000000000
000000000000
000000000000
000000000000
000000000000
ENDCHAR

STARTCHAR kor_A1F8
ENCODING 41464
SWIDTH 1024 0
DWIDTH 48 0
BBX 48 48 0 -6
BITMAP
000000000000
000000000000
000000000000
000000000000
000000000000
000000000000
000000000000
000000000000
000000000000
0000FFFFFFE0
0007FFFFFFE0
001FFFFFFFE0
003F80000000
007C00000000
00F000000000
01E000000000
01C000000000
03C000000000
038000000000
078000000000
070000000000
070000000000
070000000000
070000000000
070000000000
070000000000
070000000000
070000000000
078000000000
038000000000
03C000000000
01C000000000
01E000000000
00F000000000
007C00000000
003F80000000
001FFFFFFFE0
0007FFFFFFE0
0000FFFFFFE0
000000000000
000000000000
000000000000
000000000000
000000000000
000000000000
000000000000
000000000000
000000000000
ENDCHAR

STARTCHAR kor_A1F9
ENCODING 41465
SWIDTH 1024 0
DWIDTH 48 0
BBX 48 48 0 -6
BITMAP
000000000000
000000000000
000000000000
000000000000
000000000000
000000000000
000000000000
000000000000
000000000000
07FFFFFF0000
07FFFFFFE000
07FFFFFFF800
00000001FC00
000000003E00
000000000F00
000000000780
000000000380
0000000003C0
0000000001C0
0000000001E0
0000000000E0
0000000000E0
0000000000E0
0000000000E0
0000000000E0
0000000000E0
0000000000E0
0000000000E0
0000000001E0
0000000001C0
0000000003C0
000000000380
000000000780
000000000F00
000000003E00
00000001FC00
07FFFFFFF800
07FFFFFFE000
07FFFFFF0000
000000000000
000000000000
000000000000
000000000000
000000000000
000000000000
000000000000
000000000000
000000000000
ENDCHAR

STARTCHAR kor_A1FA
ENCODING 41466
SWIDTH 1024 0
DWIDTH 48 0
BBX 48 48 0 -6
BITMAP
000000000000
000000000000
000000000000
000000000000
000000000000
003800000E00
003800000E00
003800000E00
003800000E00
003800000E00
003800000E00
003800000E00
003800000E00
003800000E00
003800000E00
003800000E00
003800000E00
003800000E00
003800000E00
003800000E00
003800000E00
003800000E00
003800000E00
003800000E00
003800000E00
003800000E00
003800000E00
003800000E00
003800000E00
003800000E00
003800000E00
003800000E00
003C00001E00
001C00001C00
001C00001C00
001E00003C00
000E00003800
000F00007800
0007C001F000
0003F007E000
0001FFFFC000
00007FFF0000
00001FFC0000
000000000000
000000000000
000000000000
000000000000
000000000000
ENDCHAR

STARTCHAR kor_A1FB
ENCODING 41467
SWIDTH 1024 0
DWIDTH 48 0
BBX 48 48 0 -6
BITMAP
000000000000
000000000000
000000000000
000000000000
000000000000
00000FF80000
00003FFE0000
0000FFFF8000
0001F80FC000
0003E003E000
00078000F000
000F00007800
000E00003800
001E00003C00
001C00001C00
001C00001C00
003C00001E00
003800000E00
003800000E00
003800000E00
003800000E00
003800000E00
003800000E00
003800000E00
003800000E00
003800000E00
003800000E00
003800000E00
003800000E00
003800000E00
003800000E00
003800000E00
003800000E00
003800000E00
003800000E00
003800000E00
003800000E00
003800000E00
003800000E00
003800000E00
003800000E00
003800000E00
003800000E00
000000000000
000000000000
000000000000
000000000000
000000000000
ENDCHAR

STARTCHAR kor_A1FC
ENCODING 41468
SWIDTH 1024 0
DWIDTH 48 0
BBX 48 48 0 -6
BITMAP
000000000000
000000000000
000000000000
000000000000
000000000000
000000000000
000000800000
000001C00000
000001C00000
000003E00000
000003E00000
000007F00000
000007700000
00000F780000
00000E380000
00001E3C0000
00001C1C0000
00003C1E0000
0000380E0000
0000780F0000
000070070000
0000F0078000
0000E0038000
0001E003C000
0001C001C000
0003C001E000
00038000E000
00078000F000
000700007000
000F00007800
000E00003800
001E00003C00
001C00001C00
003C00001E00
003800000E00
007800000F00
007000000700
00F000000780
00E000000380
01E0000003C0
01C0000001C0
01C0000001C0
000000000000
000000000000
000000000000
000000000000
000000000000
000000000000
ENDCHAR

STARTCHAR kor_A1FD
ENCODING 41469
SWIDTH 1024 0
DWIDTH 48 0
BBX 48 48 0 -6
BITMAP
000000000000
000000000000
000000000000
000000000000
000000000000
000000000000
01C0000001C0
01C0000001C0
01E0000003C0
00E000000380
00F000000780
007000000700
007800000F00
003800000E00
003C00001E00
001C00001C00
001E00003C00
000E00003800
000F00007800
000700007000
00078000F000
00038000E000
0003C001E000
0001C001C000
0001E003C000
0000E0038000
0000F0078000
000070070000
0000780F0000
0000380E0000
00003C1E0000
00001C1C0000
00001E3C0000
00000E380000
00000F780000
000007700000
000007F00000
000003E00000
000003E00000
000001C00000
000001C00000
000000800000
000000000000
000000000000
000000000000
000000000000
000000000000
000000000000
ENDCHAR

STARTCHAR kor_A1FE
ENCODING 41470
SWIDTH 1024 0
DWIDTH 48 0
BBX 48 48 0 -6
BITMAP
000000000000
000000000000
000000000000
000000000000
3FFFFFFFFFF8
3FFFFFFFFFF8
3FFFFFFFFFF8
000000000038
000000000038
000000000038
000000000038
000000000038
000000000038
000000000038
000000000038
000000000038
000000000038
000000000038
000000000038
000000000038
000000000038
000000000038
000000000038
000000000000
000000000000
000000000000
000000000000
000000000000
000000000000
000000000000
000000000000
000000000000
000000000000
000000000000
000000000000
000000000000
000000000000
000000000000
000000000000
000000000000
000000000000
000000000000
000000000000
000000000000
000000000000
000000000000
000000000000
000000000000
ENDCHAR

STARTCHAR kor_A2A1
ENCODING 41633
SWIDTH 1024 0
DWIDTH 48 0
BBX 48 48 0 -6
BITMAP
000000000000
000000000000
000000000000
000000000000
000000000000
000000000000
000000E00000
000000F00000
000000780000
0000003C0000
0000001E0000
0000000F0000
000000078000
0FFFFFFFC000
0FFFFFFFE000
0FFFFFFFF000
000000007800
000000003C00
000000001E00
000000000F00
000000000780
0000000003C0
0000000001E0
0000000000F0
0000000000F0
0000000001E0
0000000003C0
000000000780
000000000F00
000000001E00
000000003C00
000000007800
0FFFFFFFF000
0FFFFFFFE000
0FFFFFFFC000
000000078000
0000000F0000
0000001E0000
0000003C0000
000000780000
000000F00000
000001E00000
000001C00000
000000000000
000000000000
000000000000
000000000000
000000000000
ENDCHAR

STARTCHAR kor_A2A2
ENCODING 41634
SWIDTH 1024 0
DWIDTH 48 0
BBX 48 48 0 -6
BITMAP
000000000000
000000000000
000000000000
000000000000
000000000000
000000000000
000000000000
000000000000
000000000000
000000000000
00038001C000
00078001E000
000F0000F000
001E00007800
003C00003C00
007800001E00
00F000000F00
01FFFFFFFF80
03FFFFFFFFC0
07FFFFFFFFE0
0F00000000F0
1E0000000078
3C000000003C
78000000001E
78000000001E
3C000000003C
1E0000000078
0F00000000F0
07FFFFFFFFE0
03FFFFFFFFC0
01FFFFFFFF80
00F000000F00
007800001E00
003C00003C00
001E00007800
000F0000F000
00078001E000
00038001C000
000000000000
000000000000
000000000000
000000000000
000000000000
000000000000
000000000000
000000000000
000000000000
000000000000
ENDCHAR

STARTCHAR kor_A2A3
ENCODING 41635
SWIDTH 1024 0
DWIDTH 48 0
BBX 48 48 0 -6
BITMAP
000000000000
000000000000
000000000000
000000000000
00E000000380
00E000000380
007000000780
007000000700
007000000700
003800000E00
003800000E00
003800000E00
001C00001C00
001C00001C00
000E00003800
000FFFFFF800
000FFFFFF800
0007FFFFF000
000700007000
00038000E000
00038000E000
00038000E000
0001C001C000
0001C001C000
0000E0038000
0000E0038000
0000E0038000
000070070000
000070070000
0000380E0000
0000380E0000
0000380E0000
00001C1C0000
00001C1C0000
00000E380000
00000E380000
00000E380000
000007700000
000007700000
000003E00000
000003E00000
000003E00000
000001C00000
000001C00000
000000800000
000000000000
000000000000
000000000000
ENDCHAR

STARTCHAR kor_A2A4
ENCODING 41636
SWIDTH 1024 0
DWIDTH 48 0
BBX 48 48 0 -6
BITMAP
000000000000
000000000000
000000000000
000000000000
003FFFFFF800
003FFFFFF800
003FFFFFF800
000000003800
000000003800
000000003800
000000003800
000000003800
000000003800
000000003800
000000003800
000000003800
000000003800
000000003800
000000003800
000000003800
000000003800
003FFFFFF800
003FFFFFF800
003FFFFFF800
000000003800
000000003800
000000003800
000000003800
000000003800
000000003800
000000003800
000000003800
000000003800
000000003800
000000003800
000000003800
000000003800
000000003800
000000003800
003FFFFFF800
003FFFFFF800
003FFFFFF800
000000000000
000000000000
000000000000
000000000000
000000000000
000000000000
ENDCHAR

STARTCHAR kor_A2A5
ENCODING 41637
SWIDTH 1024 0
DWIDTH 48 0
BBX 48 48 0 -6
BITMAP
000000000000
000000000000
000000E00000
000001F00000
000001F00000
000003F00000
000003E00000
000007C00000
000007800000
00000F000000
00000E000000
00001C000000
000018000000
000000000000
000000000000
000000000000
000000000000
000000000000
000000000000
000000000000
000000000000
000000000000
000000000000
000000000000
000000000000
000000000000
000000000000
000000000000
000000000000
000000000000
000000000000
000000000000
000000000000
000000000000
000000000000
000000000000
000000000000
000000000000
000000000000
000000000000
000000000000
000000000000
000000000000
000000000000
000000000000
000000000000
000000000000
000000000000
ENDCHAR

STARTCHAR kor_A2A6
ENCODING 41638
SWIDTH 1024 0
DWIDTH 48 0
BBX 48 48 0 -6
BITMAP
000000000000
000000000400
00007F000C00
0001FFC01800
0003FFF07800
0007FFFFF000
000F03FFE000
000C00FFC000
0018001F0000
001000000000
000000000000
000000000000
000000000000
000000000000
000000000000
000000000000
000000000000
000000000000
000000000000
000000000000
000000000000
000000000000
000000000000
000000000000
000000000000
000000000000
000000000000
000000000000
000000000000
000000000000
000000000000
000000000000
000000000000
000000000000
000000000000
000000000000
000000000000
000000000000
000000000000
000000000000
000000000000
000000000000
000000000000
000000000000
000000000000
000000000000
000000000000
000000000000
ENDCHAR

STARTCHAR kor_A2A7
ENCODING 41639
SWIDTH 1024 0
DWIDTH 48 0
BBX 48 48 0 -6
BITMAP
000000000000
000C00006000
00070001C000
000380038000
0001E00F0000
0000F83E0000
00007EFC0000
00003FF80000
00001FF00000
00000FE00000
000007C00000
000000000000
000000000000
000000000000
000000000000
000000000000
000000000000
000000000000
000000000000
000000000000
000000000000
000000000000
000000000000
000000000000
000000000000
000000000000
000000000000
000000000000
000000000000
000000000000
000000000000
000000000000
000000000000
000000000000
000000000000
000000000000
000000000000
000000000000
000000000000
000000000000
000000000000
000000000000
000000000000
000000000000
000000000000
000000000000
000000000000
000000000000
ENDCHAR

STARTCHAR kor_A2A8
ENCODING 41640
SWIDTH 1024 0
DWIDTH 48 0
BBX 48 48 0 -6
BITMAP
000000000000
000000000000
000C00001800
000600003000
000300006000
0001C001C000
0000F80F8000
00007FFF0000
00003FFE0000
00000FF80000
000003E00000
000000000000
000000000000
000000000000
000000000000
000000000000
000000000000
000000000000
000000000000
000000000000
000000000000
000000000000
000000000000
000000000000
000000000000
000000000000
000000000000
000000000000
000000000000
000000000000
000000000000
000000000000
000000000000
000000000000
000000000000
000000000000
000000000000
000000000000
000000000000
000000000000
000000000000
000000000000
000000000000
000000000000
000000000000
000000000000
000000000000
000000000000
ENDCHAR

STARTCHAR kor_A2A9
ENCODING 41641
SWIDTH 1024 0
DWIDTH 48 0
BBX 48 48 0 -6
BITMAP
000000000000
000000000000
000007038000
00000F87C000
00000F87C000
00001F8FC000
00001F0F8000
00003E1F0000
00003C1E0000
0000783C0000
000070380000
0000E0700000
0000C0600000
000080400000
000000000000
000000000000
000000000000
000000000000
000000000000
000000000000
000000000000
000000000000
000000000000
000000000000
000000000000
000000000000
000000000000
000000000000
000000000000
000000000000
000000000000
000000000000
000000000000
000000000000
000000000000
000000000000
000000000000
000000000000
000000000000
000000000000
000000000000
000000000000
000000000000
000000000000
000000000000
000000000000
000000000000
000000000000
ENDCHAR

STARTCHAR kor_A2AA
ENCODING 41642
SWIDTH 1024 0
DWIDTH 48 0
BBX 48 48 0 -6
BITMAP
000000000000
000000000000
000001E00000
000007F80000
00000F3C0000
00000C0C0000
00001C0E0000
000018060000
00001C0E0000
00000C0C0000
00000F3C0000
000007F80000
000001E00000
000000000000
000000000000
000000000000
000000000000
000000000000
000000000000
000000000000
000000000000
000000000000
000000000000
000000000000
000000000000
000000000000
000000000000
000000000000
000000000000
000000000000
000000000000
000000000000
000000000000
000000000000
000000000000
000000000000
000000000000
000000000000
000000000000
000000000000
000000000000
000000000000
000000000000
000000000000
000000000000
000000000000
000000000000
000000000000
ENDCHAR

STARTCHAR kor_A2AB
ENCODING 41643
SWIDTH 1024 0
DWIDTH 48 0
BBX 48 48 0 -6
BITMAP
000000000000
000000000000
000001800000
000007E00000
000007E00000
00000FF00000
00000FF00000
000007E00000
000007E00000
000001800000
000000000000
000000000000
000000000000
000000000000
000000000000
000000000000
000000000000
000000000000
000000000000
000000000000
000000000000
000000000000
000000000000
000000000000
000000000000
000000000000
000000000000
000000000000
000000000000
000000000000
000000000000
000000000000
000000000000
000000000000
000000000000
000000000000
000000000000
000000000000
000000000000
000000000000
000000000000
000000000000
000000000000
000000000000
000000000000
000000000000
000000000000
000000000000
ENDCHAR

STARTCHAR kor_A2AC
ENCODING 41644
SWIDTH 1024 0
DWIDTH 48 0
BBX 48 48 0 -6
BITMAP
000000000000
000000000000
000000000000
000000000000
000000000000
000000000000
000000000000
000000000000
000000000000
000000000000
000000000000
000000000000
000000000000
000000000000
000000000000
000000000000
000000000000
000000000000
000000000000
000000000000
000000000000
000000000000
000000000000
000000000000
000000000000
000000000000
000000000000
000000000000
000000000000
000000000000
000000000000
000000000000
000000000000
000003800000
000003800000
000007000000
000007000000
00000E000000
00000FC00000
00001FF00000
000000F80000
000000780000
000000780000
000000F80000
000003F00000
00003FE00000
00003F800000
000000000000
ENDCHAR

STARTCHAR kor_A2AD
ENCODING 41645
SWIDTH 1024 0
DWIDTH 48 0
BBX 48 48 0 -6
BITMAP
000000000000
000000000000
000000000000
000000000000
000000000000
000000000000
000000000000
000000000000
000000000000
000000000000
000000000000
000000000000
000000000000
000000000000
000000000000
000000000000
000000000000
000000000000
000000000000
000000000000
000000000000
000000000000
000000000000
000000000000
000000000000
000000000000
000000000000
000000000000
000000000000
000000000000
000000000000
000000000000
000000000000
000000000000
000000000000
000000600000
000000C00000
000001C00000
000003800000
000003800000
000007000000
000007020000
000007060000
0000078C0000
000007FC0000
000003F80000
000001E00000
000000000000
ENDCHAR

STARTCHAR kor_A2AE
ENCODING 41646
SWIDTH 1024 0
DWIDTH 48 0
BBX 48 48 0 -6
BITMAP
000000000000
000000000000
000001C00000
000003E00000
000007F00000
000007F00000
000007F00000
000003E00000
000001C00000
000000000000
000000000000
000000000000
000000000000
000001C00000
000001C00000
000001C00000
000001C00000
000001C00000
000001C00000
000001C00000
000001C00000
000001C00000
000001C00000
000001C00000
000001C00000
000001C00000
000001C00000
000003E00000
000003E00000
000003E00000
000003E00000
000003E00000
000003E00000
000003E00000
000003E00000
000003E00000
000003E00000
000003E00000
000003E00000
000003E00000
000003E00000
000001C00000
000000000000
000000000000
000000000000
000000000000
000000000000
000000000000
ENDCHAR

STARTCHAR kor_A2AF
ENCODING 41647
SWIDTH 1024 0
DWIDTH 48 0
BBX 48 48 0 -6
BITMAP
000000000000
000000300000
000000FC0000
000000FC0000
000001FE0000
000001FE0000
000000FC0000
000000FC0000
000000300000
000000000000
000000000000
000000000000
000000000000
000000700000
000000700000
000000700000
000000700000
000000700000
000000700000
000000F00000
000003F00000
00000FF00000
00001FF00000
00003F000000
00003C000000
000078000000
000070000000
0000F0000000
0000E0000000
0000E0000000
0000E0000000
0000E0000000
0000E0000000
0000E01E0000
0000703F0000
0000703F0000
0000383F0000
00001E7E0000
00000FFC0000
000003F00000
000000000000
000000000000
000000000000
000000000000
000000000000
000000000000
000000000000
000000000000
ENDCHAR

STARTCHAR kor_A2B0
ENCODING 41648
SWIDTH 1024 0
DWIDTH 48 0
BBX 48 48 0 -6
BITMAP
000000000000
000000000000
000000000000
000000000000
000000000000
000000000000
000000000000
000000000000
000000000000
000000000000
000000000000
000000000000
000000000000
00001FF80000
00001FF80000
00000FF00000
00000FF00000
000007E00000
000007E00000
000003C00000
000003C00000
000001800000
000001800000
000000000000
000000000000
000000000000
000000000000
000000000000
000001800000
000001800000
000003C00000
000003C00000
000007E00000
000007E00000
00000FF00000
00000FF00000
00001FF80000
00001FF80000
000000000000
000000000000
000000000000
000000000000
000000000000
000000000000
000000000000
000000000000
000000000000
000000000000
ENDCHAR

STARTCHAR kor_A2B1
ENCODING 41649
SWIDTH 1024 0
DWIDTH 48 0
BBX 48 48 0 -6
BITMAP
000000000000
00000000F800
00000001FE00
000000039F00
000000073F00
000000073F00
0000000E3F00
0000000E1E00
0000001E0000
0000001C0000
0000001C0000
0000003C0000
000000380000
000000380000
000000380000
000003F80000
00000FFC0000
00001FFE0000
00003EFF0000
000078F78000
000070F38000
0000F0F3C000
0000E1F1C000
0000E1E1C000
0000E1E1C000
0000F1E3C000
000071E38000
00007BE78000
00003FEF0000
00001FFE0000
00000FFC0000
000003F00000
000003C00000
000007C00000
000007800000
000007800000
000007800000
00000F800000
00000F000000
00000F000000
001C0F000000
003E1E000000
003E1E000000
003E3C000000
001C78000000
000FF0000000
0007C0000000
000000000000
ENDCHAR

STARTCHAR kor_A2B2
ENCODING 41650
SWIDTH 1024 0
DWIDTH 48 0
BBX 48 48 0 -6
BITMAP
000000000000
000000000000
1FFFFFFFFFF8
1FFFFFFFFFF8
0FE0000001F8
07F0000001F8
03F8000001F8
01FC000000F8
00FE000000F8
007F000000F8
003F800000F8
001FC0000078
000FE0000078
0007F0000078
0003F8000078
0001FC000038
0000FE000038
00007F000038
00003F800038
00001FC00038
00000FE00000
000007F00000
000003F80000
000001F00000
000000E00000
000001C00000
000003800000
000007000000
00000E000000
00001C000000
000038000000
000070000000
0000E0000038
0001C0000038
000380000038
000700000038
000E00000038
001C00000038
003800000038
007000000038
00E000000038
01FFFFFFFFF8
03FFFFFFFFF8
07FFFFFFFFF8
0FFFFFFFFFF8
1FFFFFFFFFF8
000000000000
000000000000
ENDCHAR

STARTCHAR kor_A2B3
ENCODING 41651
SWIDTH 1024 0
DWIDTH 48 0
BBX 48 48 0 -6
BITMAP
000000000000
000000000000
000000000000
000000000000
01FFFFFFFFC0
01FFFFFFFFC0
001FC001FC00
000F8000F800
000F8000F800
000F8000F800
000F8000F800
000F8000F800
000F8000F800
000F8000F800
000F8000F800
000F8000F800
000F8000F800
000F8000F800
000F8000F800
000F8000F800
000F8000F800
000F8000F800
000F8000F800
000F8000F800
000F8000F800
000F8000F800
000F8000F800
000F8000F800
000F8000F800
000F8000F800
000F8000F800
000F8000F800
000F8000F800
000F8000F800
000F8000F800
000F8000F800
000F8000F800
000F8000F800
000F8000F800
000F8000F800
000F8000F800
000F8000F800
000F8000F800
001FC001FC00
01FFFC1FFFC0
01FFFC1FFFC0
000000000000
000000000000
ENDCHAR

STARTCHAR kor_A2B4
ENCODING 41652
SWIDTH 1024 0
DWIDTH 48 0
BBX 48 48 0 -6
BITMAP
000000000000
000000000000
000000000000
000000000000
060000000030
0F0000000078
0780000000F0
03C0000001E0
01E0000003C0
00F00FF80780
00787FFF0F00
003DFFFFDE00
001FF80FFC00
000FC001F800
000F00007800
001E00003C00
003C00001E00
003800000E00
007800000F00
007000000700
007000000700
00F000000780
00E000000380
00E000000380
00E000000380
00E000000380
00E000000380
00F000000780
007000000700
007000000700
007800000F00
003800000E00
003C00001E00
001E00003C00
000F00007800
001FC001FC00
003FF80FFE00
0079FFFFCF00
00F07FFF0780
01E00FF803C0
03C0000001E0
0780000000F0
0F0000000078
1E000000003C
0C0000000018
000000000000
000000000000
000000000000
ENDCHAR

STARTCHAR kor_A2B5
ENCODING 41653
SWIDTH 1024 0
DWIDTH 48 0
BBX 48 48 0 -6
BITMAP
000000000000
000000000000
0000FFFFFFFC
03C0FFFFFFFC
0FF01FF001FC
1E7807E0007C
181803E0003C
381C03E0001E
300C03E0000E
381C03E0000E
181803E00006
1E7803E00006
0FF003E00300
03C003E00300
000003E00300
000003E00300
000003E00700
000003E00700
000003E00F00
000003FFFF00
000003FFFF00
000003E00F00
000003E00700
000003E00700
000003E00300
000003E00300
000003E00300
000003E00300
000003E00000
000003E00000
000003E00000
000003E00000
000003E00000
000003E00000
000003E00000
000007F00000
00001FFC0000
0000FFFF8000
0000FFFF8000
000000000000
000000000000
000000000000
000000000000
000000000000
000000000000
000000000000
000000000000
000000000000
ENDCHAR

STARTCHAR kor_A2B6
ENCODING 41654
SWIDTH 1024 0
DWIDTH 48 0
BBX 48 48 0 -6
BITMAP
000000000000
00000000C000
003C0001E000
00FF0003E000
01E78003C000
03C3C0078000
0781C00F0000
0781E01F0000
0F01E01E0000
0F01E03C0000
0F01E0780000
1E01E0F80000
1E01E0F00000
1E01E1E00000
1E01E3C00000
1E03C7C00000
1E03C7800000
1E03CF000000
1E079E000000
0F07BE000000
0F0F3C000000
079E78000000
03FCF0000000
01F1F0000000
0001E0000000
0003C3C003C0
00078FF00FF0
000F9E781E78
000F3C3C3C3C
001E3C3C3C3C
003C781E781E
007C781E781E
0078F81EF81E
00F0F01EF01E
01E0F01EF01E
03E0F01EF01E
03C0F01EF01E
0780F01EF01E
0F00F03EF03E
1F00F03CF03C
1E00F83CF83C
3C0078787878
780078787878
78003CF03CF0
30001FE01FE0
000007800780
000000000000
000000000000
ENDCHAR

STARTCHAR kor_A2B7
ENCODING 41655
SWIDTH 1024 0
DWIDTH 48 0
BBX 48 48 0 -6
BITMAP
000000000000
000000000000
000000000000
000000000180
000000000380
000000000F80
000000001F80
000000007F80
00000000FB80
00000003F380
00000007C380
0000001F8380
0000003E0380
000000FC0380
000001F00380
000007E00380
00000F800380
00003F000380
00007C000380
0001F8000380
0003E0000380
000FC0000380
001F00000380
007E00000380
00F800000380
007E00000380
001F00000380
000FC0000380
0003E0000380
0001F8000380
00007C000380
00003F000380
00000F800380
000007E00380
000001F00380
000000FC0380
0000003E0380
0000001F8380
00000007C380
00000003F380
00000000FB80
000000007F80
000000001F80
000000000F80
000000000380
000000000180
000000000000
000000000000
ENDCHAR

STARTCHAR kor_A2B8
ENCODING 41656
SWIDTH 1024 0
DWIDTH 48 0
BBX 48 48 0 -6
BITMAP
000000000000
000000000000
000000000000
000000000180
000000000380
000000000F80
000000001F80
000000007F80
00000000FF80
00000003FF80
00000007FF80
0000001FFF80
0000003FFF80
000000FFFF80
000001FFFF80
000007FFFF80
00000FFFFF80
00003FFFFF80
00007FFFFF80
0001FFFFFF80
0003FFFFFF80
000FFFFFFF80
001FFFFFFF80
007FFFFFFF80
00FFFFFFFF80
007FFFFFFF80
001FFFFFFF80
000FFFFFFF80
0003FFFFFF80
0001FFFFFF80
00007FFFFF80
00003FFFFF80
00000FFFFF80
000007FFFF80
000001FFFF80
000000FFFF80
0000003FFF80
0000001FFF80
00000007FF80
00000003FF80
00000000FF80
000000007F80
000000001F80
000000000F80
000000000380
000000000180
000000000000
000000000000
ENDCHAR

STARTCHAR kor_A2B9
ENCODING 41657
SWIDTH 1024 0
DWIDTH 48 0
BBX 48 48 0 -6
BITMAP
000000000000
000000000000
000000000000
018000000000
01C000000000
01F000000000
01F800000000
01FE00000000
01DF00000000
01CFC0000000
01C3E0000000
01C1F8000000
01C07C000000
01C03F000000
01C00F800000
01C007E00000
01C001F00000
01C000FC0000
01C0003E0000
01C0001F8000
01C00007C000
01C00003F000
01C00000F800
01C000007E00
01C000003F00
01C000007E00
01C00000F800
01C00003F000
01C00007C000
01C0001F8000
01C0003E0000
01C000FC0000
01C001F00000
01C007E00000
01C00F800000
01C03F000000
01C07C000000
01C1F8000000
01C3E0000000
01CFC0000000
01DF00000000
01FE00000000
01F800000000
01F000000000
01C000000000
018000000000
000000000000
000000000000
ENDCHAR

STARTCHAR kor_A2BA
ENCODING 41658
SWIDTH 1024 0
DWIDTH 48 0
BBX 48 48 0 -6
BITMAP
000000000000
000000000000
000000000000
018000000000
01C000000000
01F000000000
01F800000000
01FE00000000
01FF00000000
01FFC0000000
01FFE0000000
01FFF8000000
01FFFC000000
01FFFF000000
01FFFF800000
01FFFFE00000
01FFFFF00000
01FFFFFC0000
01FFFFFE0000
01FFFFFF8000
01FFFFFFC000
01FFFFFFF000
01FFFFFFF800
01FFFFFFFE00
01FFFFFFFF00
01FFFFFFFE00
01FFFFFFF800
01FFFFFFF000
01FFFFFFC000
01FFFFFF8000
01FFFFFE0000
01FFFFFC0000
01FFFFF00000
01FFFFE00000
01FFFF800000
01FFFF000000
01FFFC000000
01FFF8000000
01FFE0000000
01FFC0000000
01FF00000000
01FE00000000
01F800000000
01F000000000
01C000000000
018000000000
000000000000
000000000000
ENDCHAR

STARTCHAR kor_A2BB
ENCODING 41659
SWIDTH 1024 0
DWIDTH 48 0
BBX 48 48 0 -6
BITMAP
000000800000
000001C00000
000003E00000
000003E00000
000007F00000
00000F780000
00001E3C0000
00001E3C0000
00003C1E0000
0000780F0000
000070070000
0000F0078000
0001E003C000
0003C001E000
0003C001E000
00078000F000
000F00007800
001F00007C00
001E00003C00
003C00001E00
007C00001F00
007800000F00
00F000000780
00F000000780
01E0000003C0
01E0000003C0
03C0000001C0
03C0000001E0
03C0000001E0
0380000000E0
0380000000E0
03C0000001E0
03C0063001E0
01C00F7801C0
01E01F7C03C0
01F03F7E07C0
00FCFF7F9F80
007FFE3FFF00
003FEE3BFE00
000F8E38F800
00000E380000
00001C1C0000
00001C1C0000
0000380E0000
00003FFE0000
00007FFF0000
00007FFF0000
000000000000
ENDCHAR

STARTCHAR kor_A2BC
ENCODING 41660
SWIDTH 1024 0
DWIDTH 48 0
BBX 48 48 0 -6
BITMAP
000000800000
000001C00000
000003E00000
000003E00000
000007F00000
00000FF80000
00001FFC0000
00001FFC0000
00003FFE0000
00007FFF0000
00007FFF0000
0000FFFF8000
0001FFFFC000
0003FFFFE000
0003FFFFE000
0007FFFFF000
000FFFFFF800
001FFFFFFC00
001FFFFFFC00
003FFFFFFE00
007FFFFFFF00
007FFFFFFF00
00FFFFFFFF80
00FFFFFFFF80
01FFFFFFFFC0
01FFFFFFFFC0
01FFFFFFFFC0
03FFFFFFFFE0
03FFFFFFFFE0
03FFFFFFFFE0
03FFFFFFFFE0
03FFFFFFFFE0
03FFFFFFFFE0
01FFFFFFFFC0
01FFFFFFFFC0
01FFFFFFFFC0
00FFFFFFFF80
007FFFFFFF00
003FEFFBFE00
000F8FF8F800
00001FFC0000
00001FFC0000
00001FFC0000
00003FFE0000
00003FFE0000
00007FFF0000
00007FFF0000
000000000000
ENDCHAR

STARTCHAR kor_A2BD
ENCODING 41661
SWIDTH 1024 0
DWIDTH 48 0
BBX 48 48 0 -6
BITMAP
000000000000
000000000000
000000000000
0007E003F000
001FF80FFC00
003FFC1FFE00
007E7E3F3F00
00F81F7C0F80
00F00FF80780
01E007F003C0
01E003E003C0
01C003E001C0
03C001C001E0
03C001C001E0
0380008000E0
0380000000E0
0380000000E0
0380000000E0
0380000000E0
03C0000001E0
03C0000001E0
01C0000001C0
01E0000003C0
01E0000003C0
00F000000780
00F000000780
007800000F00
007800000F00
003C00001E00
003C00001E00
001E00003C00
001F00007C00
000F00007800
00078000F000
0007C001F000
0003C001E000
0001E003C000
0000F0078000
0000780F0000
00007C1F0000
00003E3E0000
00001F7C0000
00000FF80000
000007F00000
000003E00000
000001C00000
000000800000
000000000000
ENDCHAR

STARTCHAR kor_A2BE
ENCODING 41662
SWIDTH 1024 0
DWIDTH 48 0
BBX 48 48 0 -6
BITMAP
000000000000
000000000000
000000000000
0007E003F000
001FF80FFC00
003FFC1FFE00
007FFE3FFF00
00FFFF7FFF80
00FFFFFFFF80
01FFFFFFFFC0
01FFFFFFFFC0
01FFFFFFFFC0
03FFFFFFFFE0
03FFFFFFFFE0
03FFFFFFFFE0
03FFFFFFFFE0
03FFFFFFFFE0
03FFFFFFFFE0
03FFFFFFFFE0
03FFFFFFFFE0
03FFFFFFFFE0
01FFFFFFFFC0
01FFFFFFFFC0
01FFFFFFFFC0
00FFFFFFFF80
00FFFFFFFF80
007FFFFFFF00
007FFFFFFF00
003FFFFFFE00
003FFFFFFE00
001FFFFFFC00
001FFFFFFC00
000FFFFFF800
0007FFFFF000
0007FFFFF000
0003FFFFE000
0001FFFFC000
0000FFFF8000
00007FFF0000
00007FFF0000
00003FFE0000
00001FFC0000
00000FF80000
000007F00000
000003E00000
000001C00000
000000800000
000000000000
ENDCHAR

STARTCHAR kor_A2BF
ENCODING 41663
SWIDTH 1024 0
DWIDTH 48 0
BBX 48 48 0 -6
BITMAP
000000000000
000000000000
00000FFC0000
00003FFF0000
00007FFF8000
0000F807C000
0001E001E000
0001C000E000
0003C000F000
000380007000
000380007000
000380007000
000380007000
000380007000
0003C000F000
0003C000E000
0001E001E000
0001F003C000
0000F8078000
00FE7C0F1F80
03FFBE1E7FE0
07FFDF7DFFF0
0FC3EF7BE0F8
1F00F777803C
1E007F7F001C
3C003F7E001E
3C001F7C000E
38000E38000E
38000000000E
38000000000E
38000000000E
38000770000E
38000F78000E
3C001F7C001E
1C003F7E001C
1E007F7F003C
0F81F777C0F8
07FFE773FFF0
03FFC639FFE0
00FF0E387F80
00000E380000
00000E380000
00001C1C0000
00001C1C0000
00003FFE0000
00003FFE0000
00003FFE0000
000000000000
ENDCHAR

STARTCHAR kor_A2C0
ENCODING 41664
SWIDTH 1024 0
DWIDTH 48 0
BBX 48 48 0 -6
BITMAP
000000000000
000000000000
00000FFC0000
00003FFF0000
00007FFF8000
0000FFFFC000
0001FFFFE000
0001FFFFE000
0003FFFFF000
0003FFFFF000
0003FFFFF000
0003FFFFF000
0003FFFFF000
0003FFFFF000
0003FFFFF000
0003FFFFE000
0001FFFFE000
0001FFFFC000
0000FFFF8000
00FE7FFF1F80
03FFBFFE7FE0
07FFDFFDFFF0
0FFFEFFBFFF8
1FFFF7F7FFFC
1FFFFFFFFFFC
3FFFFFFFFFFE
3FFFFFFFFFFE
3FFFFFFFFFFE
3FFFFFFFFFFE
3FFFFFFFFFFE
3FFFFFFFFFFE
3FFFFFFFFFFE
3FFFFFFFFFFE
3FFFFFFFFFFE
1FFFFFFFFFFC
1FFFFFFFFFFC
0FFFF7F7FFF8
07FFE7F3FFF0
03FFC7F9FFE0
00FF0FF87F80
00000FF80000
00000FF80000
00001FFC0000
00001FFC0000
00003FFE0000
00003FFE0000
00003FFE0000
000000000000
ENDCHAR

STARTCHAR kor_A2C1
ENCODING 41665
SWIDTH 1024 0
DWIDTH 48 0
BBX 48 48 0 -6
BITMAP
000000000000
000000000000
000000000000
00001FFE0000
0000FFFFC000
0003FFFFF000
000FE001FC00
001F00003E00
003C00000F00
007807F80780
00F03FFF03C0
01E0FFFFC1E0
03C1FFFFE0F0
0383FFFFF070
0707FFFFF878
070FFFFFFC38
0E1FFFFFFE3C
0E1FFFFFFE1C
0E3FFFFFFF1C
1C3FFFFFFF1E
1C3FFFFFFF0E
1C7FFFFFFF8E
1C7FFFFFFF8E
1C7FFFFFFF8E
1C7FFFFFFF8E
1C7FFFFFFF8E
1C7FFFFFFF8E
1C7FFFFFFF8E
1C3FFFFFFF0E
1C3FFFFFFF0E
0E3FFFFFFF1C
0E1FFFFFFE1C
0E1FFFFFFE1C
070FFFFFFC38
0707FFFFF838
0383FFFFF070
03C1FFFFE0F0
01E0FFFFC1E0
00F03FFF03C0
007807F80780
003C00000F00
001F00003E00
000FE001FC00
0003FFFFF000
0000FFFFC000
00001FFE0000
000000000000
000000000000
ENDCHAR

STARTCHAR kor_A2C2
ENCODING 41666
SWIDTH 1024 0
DWIDTH 48 0
BBX 48 48 0 -6
BITMAP
000000000000
000001000000
000003800000
000007C00000
00000FE00000
00001EF00000
00003C780000
0000783C0000
0000F01E0000
0001E10F0000
0003C3878000
000787C3C000
000F0FE1E000
001E1FF0F000
003C3FF87800
00787FFC3C00
00F0FFFE1E00
01E1FFFF0F00
03C3FFFF8780
0787FFFFC3C0
0F0FFFFFE1E0
1E1FFFFFF0F0
3C3FFFFFF878
787FFFFFFC3C
3C3FFFFFFE1E
1E1FFFFFFC3C
0F0FFFFFF878
0787FFFFF0F0
03C3FFFFE1E0
01E1FFFFC3C0
00F0FFFF8780
00787FFF0F00
003C3FFE1E00
001E1FFC3C00
000F0FF87800
000787F0F000
0003C3E1E000
0001E1C3C000
0000F0878000
0000780F0000
00003C1E0000
00001E3C0000
00000F780000
000007F00000
000003E00000
000001C00000
000000800000
000000000000
ENDCHAR

STARTCHAR kor_A2C3
ENCODING 41667
SWIDTH 1024 0
DWIDTH 48 0
BBX 48 48 0 -6
BITMAP
000000000000
000000000000
3FFFFFFFFFFC
3FFFFFFFFFFC
3FFFFFFFFFFC
38000000001C
38000000001C
38000000001C
38000000001C
38000000001C
38000000001C
38000000001C
380FFFFFF01C
380FFFFFF01C
380FFFFFF01C
380FFFFFF01C
380FFFFFF01C
380FFFFFF01C
380FFFFFF01C
380FFFFFF01C
380FFFFFF01C
380FFFFFF01C
380FFFFFF01C
380FFFFFF01C
380FFFFFF01C
380FFFFFF01C
380FFFFFF01C
380FFFFFF01C
380FFFFFF01C
380FFFFFF01C
380FFFFFF01C
380FFFFFF01C
380FFFFFF01C
380FFFFFF01C
380FFFFFF01C
380FFFFFF01C
38000000001C
38000000001C
38000000001C
38000000001C
38000000001C
38000000001C
38000000001C
3FFFFFFFFFFC
3FFFFFFFFFFC
3FFFFFFFFFFC
000000000000
000000000000
ENDCHAR

STARTCHAR kor_A2C4
ENCODING 41668
SWIDTH 1024 0
DWIDTH 48 0
BBX 48 48 0 -6
BITMAP
000000000000
000000000000
000000000000
00003FFE0000
0001FFFFC000
0007FFFFF000
001FFF81FC00
003FFF803E00
007FFF800F00
00FFFF800780
01FFFF8003C0
03FFFF8001E0
07FFFF8000F0
07FFFF800070
0FFFFF800038
0FFFFF800038
1FFFFF80001C
1FFFFF80001C
1FFFFF80001C
3FFFFF80000E
3FFFFF80000E
3FFFFF80000E
3FFFFF80000E
3FFFFF80000E
3FFFFF80000E
3FFFFF80000E
3FFFFF80000E
3FFFFF80000E
3FFFFF80000E
3FFFFF80000E
1FFFFF80001C
1FFFFF80001C
1FFFFF80001C
0FFFFF800038
0FFFFF800038
07FFFF800070
07FFFF8000F0
03FFFF8001E0
01FFFF8003C0
00FFFF800780
007FFF800F00
003FFF803E00
001FFF81FC00
0007FFFFF000
0001FFFFC000
00003FFE0000
000000000000
000000000000
ENDCHAR

STARTCHAR kor_A2C5
ENCODING 41669
SWIDTH 1024 0
DWIDTH 48 0
BBX 48 48 0 -6
BITMAP
000000000000
000000000000
000000000000
00003FFE0000
0001FFFFC000
0007FFFFF000
001FC0FFFC00
003F00FFFE00
007C00FFFF00
00F000FFFF80
01E000FFFFC0
03C000FFFFE0
078000FFFFF0
070000FFFFF0
0E0000FFFFF8
0E0000FFFFF8
1C0000FFFFFC
1C0000FFFFFC
1C0000FFFFFC
380000FFFFFE
380000FFFFFE
380000FFFFFE
380000FFFFFE
380000FFFFFE
380000FFFFFE
380000FFFFFE
380000FFFFFE
380000FFFFFE
380000FFFFFE
380000FFFFFE
1C0000FFFFFC
1C0000FFFFFC
1C0000FFFFFC
0E0000FFFFF8
0E0000FFFFF8
070000FFFFF0
078000FFFFF0
03C000FFFFE0
01E000FFFFC0
00F000FFFF80
007800FFFF00
003E00FFFE00
001FC0FFFC00
0007FFFFF000
0001FFFFC000
00003FFE0000
000000000000
000000000000
ENDCHAR

STARTCHAR kor_A2C6
ENCODING 41670
SWIDTH 1024 0
DWIDTH 48 0
BBX 48 48 0 -6
BITMAP
000000000000
000000000000
3FFFFFFFFFF8
3FFFFFFFFFF8
3FFFFFFFFFF8
380000000038
380000000038
3860300C0338
38F0781E07B8
38F0781E07B8
3860300C0338
380000000038
380000000038
380000000038
380000000038
380000000038
380000000038
3B030180C0F8
3F8783C1E1F8
3F8783C1E1F8
3B030180C0F8
380000000038
380000000038
380000000038
380000000038
380000000038
380000000038
3860300C0638
38F0781E0F38
38F0781E0F38
3860300C0638
380000000038
380000000038
380000000038
380000000038
380000000038
380000000038
3B030180C0F8
3F8783C1E1F8
3F8783C1E1F8
3B030180C0F8
380000000038
3FFFFFFFFFF8
3FFFFFFFFFF8
3FFFFFFFFFF8
000000000000
000000000000
000000000000
ENDCHAR

STARTCHAR kor_A2C7
ENCODING 41671
SWIDTH 1024 0
DWIDTH 48 0
BBX 48 48 0 -6
BITMAP
000000000000
000000000000
3FFFFFFFFFF8
3FFFFFFFFFF8
3FFFFFFFFFF8
380000000038
380000000038
380000000038
380000000038
380000000038
380000000038
380000000038
3FFFFFFFFFF8
3FFFFFFFFFF8
3FFFFFFFFFF8
380000000038
380000000038
380000000038
380000000038
380000000038
380000000038
380000000038
3FFFFFFFFFF8
3FFFFFFFFFF8
3FFFFFFFFFF8
380000000038
380000000038
380000000038
380000000038
380000000038
380000000038
380000000038
3FFFFFFFFFF8
3FFFFFFFFFF8
3FFFFFFFFFF8
380000000038
380000000038
380000000038
380000000038
380000000038
380000000038
380000000038
3FFFFFFFFFF8
3FFFFFFFFFF8
3FFFFFFFFFF8
000000000000
000000000000
000000000000
ENDCHAR

STARTCHAR kor_A2C8
ENCODING 41672
SWIDTH 1024 0
DWIDTH 48 0
BBX 48 48 0 -6
BITMAP
000000000000
000000000000
3FFFFFFFFFF8
3FFFFFFFFFF8
3FFFFFFFFFF8
380E0380E038
380E0380E038
380E0380E038
380E0380E038
380E0380E038
380E0380E038
380E0380E038
380E0380E038
380E0380E038
380E0380E038
380E0380E038
380E0380E038
380E0380E038
380E0380E038
380E0380E038
380E0380E038
380E0380E038
380E0380E038
380E0380E038
380E0380E038
380E0380E038
380E0380E038
380E0380E038
380E0380E038
380E0380E038
380E0380E038
380E0380E038
380E0380E038
380E0380E038
380E0380E038
380E0380E038
380E0380E038
380E0380E038
380E0380E038
380E0380E038
380E0380E038
380E0380E038
3FFFFFFFFFF8
3FFFFFFFFFF8
3FFFFFFFFFF8
000000000000
000000000000
000000000000
ENDCHAR

STARTCHAR kor_A2C9
ENCODING 41673
SWIDTH 1024 0
DWIDTH 48 0
BBX 48 48 0 -6
BITMAP
000000000000
000000000000
3FFFFFFFFFF8
3FFFFFFFFFF8
3FFFFFFFFFF8
380001E00038
380003C00078
3800078000F8
38000F0001F8
38001E0003F8
38003C0007B8
380078000F38
3800F0001E38
3801E0003C38
3803C0007838
38078000F038
380F0001E038
381E0003C038
383C00078038
3878000F0038
38F0001E0038
39E0003C0038
3BC000780038
3F8000F00038
3F0001E00078
3E0003C000F8
3C00078001F8
38000F0003F8
38001E0007B8
38003C000F38
380078001E38
3800F0003C38
3801E0007838
3803C000F038
38078001E038
380F0003C038
381E00078038
383C000F0038
3878001E0038
38F0003C0038
39E000780038
3BC000F00038
3FFFFFFFFFF8
3FFFFFFFFFF8
3FFFFFFFFFF8
000000000000
000000000000
000000000000
ENDCHAR

STARTCHAR kor_A2CA
ENCODING 41674
SWIDTH 1024 0
DWIDTH 48 0
BBX 48 48 0 -6
BITMAP
000000000000
000000000000
3FFFFFFFFFF8
3FFFFFFFFFF8
3FFFFFFFFFF8
3E0003800038
3F0003C00038
3F8001E00038
3BC000F00038
39E000780038
38F0003C0038
3878001E0038
383C000F0038
381E00078038
380F0003C038
38078001E038
3803C000F038
3801E0007838
3800F0003C38
380078001E38
38003C000F38
38001E0007B8
38000F0003F8
3C00078001F8
3E0003C000F8
3F0001E00078
3F8000F00038
3BC000780038
39E0003C0038
38F0001E0038
3878000F0038
383C00078038
381E0003C038
380F0001E038
38078000F038
3803C0007838
3801E0003C38
3800F0001E38
380078000F38
38003C0007B8
38001E0003F8
38000F0001F8
3FFFFFFFFFF8
3FFFFFFFFFF8
3FFFFFFFFFF8
000000000000
000000000000
000000000000
ENDCHAR

STARTCHAR kor_A2CB
ENCODING 41675
SWIDTH 1024 0
DWIDTH 48 0
BBX 48 48 0 -6
BITMAP
000000000000
000000000000
3FFFFFFFFFF8
3FFFFFFFFFF8
3FFFFFFFFFF8
380E0380E038
380E0380E038
380E0380E038
380E0380E038
380E0380E038
380E0380E038
380E0380E038
3FFFFFFFFFF8
3FFFFFFFFFF8
3FFFFFFFFFF8
380E0380E038
380E0380E038
380E0380E038
380E0380E038
380E0380E038
380E0380E038
380E0380E038
3FFFFFFFFFF8
3FFFFFFFFFF8
3FFFFFFFFFF8
380E0380E038
380E0380E038
380E0380E038
380E0380E038
380E0380E038
380E0380E038
380E0380E038
3FFFFFFFFFF8
3FFFFFFFFFF8
3FFFFFFFFFF8
380E0380E038
380E0380E038
380E0380E038
380E0380E038
380E0380E038
380E0380E038
380E0380E038
3FFFFFFFFFF8
3FFFFFFFFFF8
3FFFFFFFFFF8
000000000000
000000000000
000000000000
ENDCHAR

STARTCHAR kor_A2CC
ENCODING 41676
SWIDTH 1024 0
DWIDTH 48 0
BBX 48 48 0 -6
BITMAP
000000000000
000000000000
3FFFFFFFFFF8
3FFFFFFFFFF8
3FFFFFFFFFF8
3E0001C00038
3F0003E00078
3F8007F000F8
3BC00F7801F8
39E01E3C03F8
38F03C1E07B8
3878780F0F38
383CF0079E38
381FE003FC38
380FC001F838
38078000F038
380FC001F838
381FE003FC38
383CF0079E38
3878780F0F38
38F03C1E07B8
39E01E3C03F8
3BC00F7801F8
3F8007F000F8
3F0003E00078
3F0007E000F8
3F800FF001F8
3BC01E7803F8
39E03C3C07B8
38F0781E0F38
3878F00F1E38
383DE007BC38
381FC003F838
380F8001F038
380F8001F038
381FC003F838
383DE007BC38
3878F00F1E38
38F0781E0F38
39E03C3C07B8
3BC01E7803F8
3F800FF001F8
3FFFFFFFFFF8
3FFFFFFFFFF8
3FFFFFFFFFF8
000000000000
000000000000
000000000000
ENDCHAR

STARTCHAR kor_A2CD
ENCODING 41677
SWIDTH 1024 0
DWIDTH 48 0
BBX 48 48 0 -6
BITMAP
000000000000
000000200000
000000600000
000020C04000
000061C0C000
0000C1C18000
0001C3838000
000183870000
000387870000
0003878F0000
0007070E0000
00070F0E0000
00070F1E0000
000F0F1E0000
000F1F1E0000
000F9F1F0000
000F9F9F0000
000F9F9F0000
000F9F8F0000
0007CF8F8000
0007CFCF8000
0007CFC78000
0003E7C7C000
0003E7E7C000
0001E7E7C000
0001E3E3C000
001FE3E3FC00
00FFE3E3FF00
03F1E3C38FC0
07C1C3C783E0
0F81C7C781F0
1F03C78700F8
1F03878700F8
3E03870E007C
3E078F0E007C
3F070E0C00FC
3F070E1C00FC
1F8E1C1801F8
1FEC181003F8
0FF810000FF0
07FF00007FE0
03FFFFFFFFC0
01FFFFFFFF80
007FFFFFFE00
001FFFFFF000
0001FFFF0000
000000000000
000000000000
ENDCHAR

STARTCHAR kor_A2CE
ENCODING 41678
SWIDTH 1024 0
DWIDTH 48 0
BBX 48 48 0 -6
BITMAP
000000000000
000000000000
000000000000
000000000000
000000000000
000000000000
000000000000
00001FFC0000
0007FFFFE000
003FE003FC00
01FC00003F80
07E0000007E0
0F07BFFDE0F0
1C0FBFFDF038
381DB00DB81C
3039B00D9C0C
7031B81D8C0E
60319FF98C06
603987E18C06
601B8001D806
601B8FF1D806
7FFF3FFCFFFE
3FF6781E6FFC
000EE0077000
001DC003B800
003980019C00
00738001CE00
00E30000C700
01C30000C380
01830000C180
03830000C1C0
03030000C0C0
07030000C0E0
06038001C060
060180018060
0E01C0038030
0C00E0070030
0C00781E0030
0C003FFC0030
0C000FF00030
0C0000000030
0FFFFFFFFFF0
07FFFFFFFFE0
000000000000
000000000000
000000000000
000000000000
000000000000
ENDCHAR

STARTCHAR kor_A2CF
ENCODING 41679
SWIDTH 1024 0
DWIDTH 48 0
BBX 48 48 0 -6
BITMAP
000000000000
000000000000
000000000000
000000000000
000000000000
000000000000
000000000000
00001FFC0000
0007FFFFE000
003FFFFFFC00
01FFFFFFFF80
07FFFFFFFFE0
0FFFFFFFFFF0
1FFFFFFFFFF8
3FFDF00FBFFC
3FF9F00F9FFC
7FF1F81F8FFE
7FF1FFFF8FFE
7FF9FFFF8FFE
7FFBFFFFDFFE
7FFBFFFFDFFE
7FFFFFFFFFFE
3FF7FFFFEFFC
000FF81FF000
001FE007F800
003FC003FC00
007FC003FE00
00FF8001FF00
01FF8001FF80
01FF8001FF80
03FF8001FFC0
03FF8001FFC0
07FF8001FFE0
07FFC003FFE0
07FFC003FFE0
0FFFE007FFF0
0FFFF81FFFF0
0FFFFFFFFFF0
0FFFFFFFFFF0
0FFFFFFFFFF0
0FFFFFFFFFF0
0FFFFFFFFFF0
07FFFFFFFFE0
000000000000
000000000000
000000000000
000000000000
000000000000
ENDCHAR

STARTCHAR kor_A2D0
ENCODING 41680
SWIDTH 1024 0
DWIDTH 48 0
BBX 48 48 0 -6
BITMAP
000000000000
000000000000
000000000000
000000000000
000000000000
000000000000
000000000000
000000000000
000000000000
000000000000
000000000000
000000000000
000000000000
0001FFFF8000
01FFFFFFE000
3FFE00FE787E
7E0003FC1E7E
6000070007E6
60000C0001E6
7FFFF8000066
3FFFF0000066
0031C3F80066
003387FC0066
00330EFC0066
003FFBDE0066
001FFF9F8066
000FFE3DC066
000DF87CF866
000F01CC3866
0007FF9C00E6
0001FE3807E6
0000E0F01F7E
00007FFFF87E
00003FFFE000
000000000000
000000000000
000000000000
000000000000
000000000000
000000000000
000000000000
000000000000
000000000000
000000000000
000000000000
000000000000
000000000000
000000000000
ENDCHAR

STARTCHAR kor_A2D1
ENCODING 41681
SWIDTH 1024 0
DWIDTH 48 0
BBX 48 48 0 -6
BITMAP
000000000000
000000000000
000000000000
000000000000
000000000000
000000000000
000000000000
000000000000
000000000000
000000000000
000000000000
000000000000
000000000000
0001FFF80000
0007FFFFFF80
7E1FFE07FFFC
7E38FFC0007E
67E003E00006
67C000300006
6600001FFFFE
6600000FFFFC
66003FC39C00
66003FE0CC00
66007F78CC00
6600FFFFDC00
6601DDFFB800
66039E7FF000
660F3F1FF000
660E3BC07000
660019FFE000
67E01C7FC000
7FF80F030000
7E1FFFFF0000
0007FFFE0000
000000000000
000000000000
000000000000
000000000000
000000000000
000000000000
000000000000
000000000000
000000000000
000000000000
000000000000
000000000000
000000000000
000000000000
ENDCHAR

STARTCHAR kor_A2D2
ENCODING 41682
SWIDTH 1024 0
DWIDTH 48 0
BBX 48 48 0 -6
BITMAP
000000000000
000000000000
00003FFFFFC0
0001FFFFFFC0
0007F3C0F800
000FC3C0F000
001F03C0F000
003E03C0F000
003C03C0F000
007C03C0F000
007803C0F000
007803C0F000
007803C0F000
007803C0F000
007803C0F000
007803C0F000
007C03C0F000
003C03C0F000
003E03C0F000
001F03C0F000
000FC3C0F000
0007F3C0F000
0001FFC0F000
00003FC0F000
000003C0F000
000003C0F000
000003C0F000
000003C0F000
000003C0F000
000003C0F000
000003C0F000
000003C0F000
000003C0F000
000003C0F000
000003C0F000
000003C0F000
000003C0F000
000003C0F000
000003C0F000
000003C0F000
000003C0F000
000003C0F000
000003C0F000
000003C0F000
000007C0F800
0000FFC0FFC0
0000FFC0FFC0
000000000000
ENDCHAR

STARTCHAR kor_A2D3
ENCODING 41683
SWIDTH 1024 0
DWIDTH 48 0
BBX 48 48 0 -6
BITMAP
000000000000
000003C00000
000003C00000
000003C00000
000003C00000
000003C00000
000003C00000
000003C00000
000003C00000
000003C00000
000003C00000
000003C00000
000003C00000
003FFFFFFE00
003FFFFFFE00
003FFFFFFE00
003FFFFFFE00
000003C00000
000003C00000
000003C00000
000003C00000
000003C00000
000003C00000
000003C00000
000003C00000
000003C00000
000003C00000
000003C00000
000003C00000
000003C00000
000003C00000
000003C00000
000003C00000
000003C00000
000003C00000
000003C00000
000003C00000
000003C00000
000003C00000
000003C00000
000003C00000
000003C00000
000003C00000
000003C00000
000003C00000
000003C00000
000003C00000
000000000000
ENDCHAR

STARTCHAR kor_A2D4
ENCODING 41684
SWIDTH 1024 0
DWIDTH 48 0
BBX 48 48 0 -6
BITMAP
000000000000
000003C00000
000003C00000
000003C00000
000003C00000
000003C00000
000003C00000
000003C00000
007FFFFFFE00
007FFFFFFE00
007FFFFFFE00
007FFFFFFE00
000003C00000
000003C00000
000003C00000
003FFFFFFC00
003FFFFFFC00
003FFFFFFC00
003FFFFFFC00
000003C00000
000003C00000
000003C00000
000003C00000
000003C00000
000003C00000
000003C00000
000003C00000
000003C00000
000003C00000
000003C00000
000003C00000
000003C00000
000003C00000
000003C00000
000003C00000
000003C00000
000003C00000
000003C00000
000003C00000
000003C00000
000003C00000
000003C00000
000003C00000
000003C00000
000003C00000
000003C00000
000003C00000
000000000000
ENDCHAR

STARTCHAR kor_A2D5
ENCODING 41685
SWIDTH 1024 0
DWIDTH 48 0
BBX 48 48 0 -6
BITMAP
000000000000
000000800000
000001C00000
000003E00000
000007F00000
00000FF80000
00001FFC0000
00003FFE0000
00007DDF0000
0000F1C78000
0001C1C1C000
000381C0E000
000301C06000
000001C00000
000001C00000
000001C00000
000001C00000
000001C00000
000001C00000
000001C00000
000001C00000
000001C00000
000001C00000
000001C00000
000001C00000
000001C00000
000001C00000
000001C00000
000001C00000
000001C00000
000001C00000
000001C00000
000001C00000
000001C00000
000001C00000
000301C06000
000381C0E000
0001C1C1C000
0000F1C78000
00007DDF0000
00003FFE0000
00001FFC0000
00000FF80000
000007F00000
000003E00000
000001C00000
000000800000
000000000000
ENDCHAR

STARTCHAR kor_A2D6
ENCODING 41686
SWIDTH 1024 0
DWIDTH 48 0
BBX 48 48 0 -6
BITMAP
000000000000
000000000000
000000000000
000000000000
000000000000
000000000000
000000000000
0000003FFF00
0000000FFF00
00000003FF00
00000000FF00
000000007F00
00000000FF00
00000001EF00
00000003CF00
000000078700
0000000F0700
0000001E0300
0000003C0300
000000780100
000000F00100
000001E00000
000003C00000
000007800000
00000F000000
00001E000000
00003C000000
000078000000
0000F0000000
0001E0000000
0003C0000000
000780000000
000F00000000
001E00000000
003C00000000
007800000000
00F000000000
01E000000000
03C000000000
038000000000
010000000000
000000000000
000000000000
000000000000
000000000000
000000000000
000000000000
000000000000
ENDCHAR

STARTCHAR kor_A2D7
ENCODING 41687
SWIDTH 1024 0
DWIDTH 48 0
BBX 48 48 0 -6
BITMAP
000000000000
000000000000
000000000000
000000000000
000000000000
000000000000
000000000000
000000000000
0000000000C0
0000000001E0
0000000003C0
000000000780
000000000F00
000000001E00
000000003C00
000000007800
00000000F000
00000001E000
00000003C000
000000078000
0000000F0000
0000001E0000
0000003C0000
000000780000
000000F00000
000001E00000
002003C00000
002007800000
00300F000000
00301E000000
00383C000000
003878000000
003CF0000000
003DE0000000
003FC0000000
003F80000000
003F00000000
003FC0000000
003FF0000000
003FFE000000
003FFF800000
000000000000
000000000000
000000000000
000000000000
000000000000
000000000000
000000000000
ENDCHAR

STARTCHAR kor_A2D8
ENCODING 41688
SWIDTH 1024 0
DWIDTH 48 0
BBX 48 48 0 -6
BITMAP
000000000000
000000000000
000000000000
000000000000
000000000000
000000000000
000000000000
000000000000
000000000000
003FFF000000
003FFE000000
003FF0000000
003FC0000000
003F00000000
003F80000000
003FC0000000
003DE0000000
0038F0000000
003878000000
00303C000000
00301E000000
00300F000000
002007800000
000003C00000
000001E00000
000000F00000
000000780000
0000003C0000
0000001E0000
0000000F0000
000000078000
00000003C000
00000001E000
00000000F000
000000007800
000000003C00
000000001E00
000000000F00
000000000780
0000000003C0
0000000001E0
0000000000C0
000000000000
000000000000
000000000000
000000000000
000000000000
000000000000
ENDCHAR

STARTCHAR kor_A2D9
ENCODING 41689
SWIDTH 1024 0
DWIDTH 48 0
BBX 48 48 0 -6
BITMAP
000000000000
000000000000
000000000000
000000000000
000000000000
000000000000
000000000000
008000000000
01C000000000
01E000000000
00F000000000
007800000000
003C00000000
001E00000000
000F00000000
000780000000
0003C0000000
0001E0000000
0000F0000000
000078000000
00003C000000
00001E000000
00000F000000
000007800000
000003C00000
000001E00200
000000F00200
000000780600
0000003C0600
0000001E0600
0000000F0E00
000000078E00
00000003DE00
00000001FE00
00000000FE00
00000000FE00
00000003FE00
0000001FFE00
0000007FFE00
000000000000
000000000000
000000000000
000000000000
000000000000
000000000000
000000000000
000000000000
000000000000
ENDCHAR

STARTCHAR kor_A2DA
ENCODING 41690
SWIDTH 1024 0
DWIDTH 48 0
BBX 48 48 0 -6
BITMAP
000000000000
000000000000
000000000000
000000000000
000000000000
0000E0000000
0000E0000000
0000E0000000
0000E0000000
0000E0000000
0000E0000000
0000E0000000
0000E0000000
0000E0000000
0000E0000000
0000E0000000
0000E0000000
0000E1F80000
0000E7FE0000
0000EFFF0000
0000FE1F8000
0000F80F8000
0000F00FC000
0000F007C000
0000E007C000
0000E007C000
0000E007C000
0000E007C000
0000E007C000
0000E00FC000
0000E00F8000
0000E00F8000
0000E01F0000
0000E01F0000
0000E03E0000
0000E07C0000
0000E0F80000
0000E1F00000
0000E3E00000
0000EF800000
0000FF000000
0000FC000000
0000E0000000
000000000000
000000000000
000000000000
000000000000
000000000000
ENDCHAR

STARTCHAR kor_A2DB
ENCODING 41691
SWIDTH 1024 0
DWIDTH 48 0
BBX 48 48 0 -6
BITMAP
000000000000
000000000000
000000380000
000000380000
000000380000
000000380000
000000380000
000000380000
000000380000
000000380000
000000380000
000000380000
000000380000
000000380000
000000380000
000000380000
000000380000
000000380000
000000380000
000000380000
000000380000
000000380000
000000380000
000000380000
000000380000
000000380000
000000380000
000000380000
000000380000
000000380000
000000380000
000000380000
000000380000
000000380000
000000380000
000000380000
000000380000
000003F80000
00000FF80000
00003FF00000
00007FF00000
00007FE00000
0000FFE00000
0000FFC00000
0000FF800000
0000FF000000
00007C000000
000000000000
ENDCHAR

STARTCHAR kor_A2DC
ENCODING 41692
SWIDTH 1024 0
DWIDTH 48 0
BBX 48 48 0 -6
BITMAP
000000000000
000000000000
000000000000
000010000000
000018000000
00001C000000
00001E000000
00001F000000
00001FC00000
00001FE00000
00001FF00000
00001FF80000
00001DFC0000
00001CFF0000
00001C7F8000
00001C1FC000
00001C0FE000
00001C07F000
00001C03F000
00001C01F800
00001C00F800
00001C00F800
00001C007800
00001C007800
00001C007800
00001C007800
00001C00F000
00001C00F000
00001C00E000
00001C01E000
00001C01C000
00001C038000
00001C070000
00001C0E0000
00001C1C0000
00001C300000
00001C000000
0001FC000000
0007FC000000
000FFC000000
001FF8000000
001FF8000000
003FF0000000
003FF0000000
003FE0000000
003FC0000000
001F00000000
000000000000
ENDCHAR

STARTCHAR kor_A2DD
ENCODING 41693
SWIDTH 1024 0
DWIDTH 48 0
BBX 48 48 0 -6
BITMAP
000000000000
000000000000
000000000300
000000001F00
00000001FF00
0000001FFF00
000001FFFF00
00001FFFFF00
0001FFFFF700
0007FFFF0700
0007FFF00700
0007FF007F00
0007F007FF00
0007007FFF00
000707FFFF00
00077FFFFF00
0007FFFFC700
0007FFFC0700
0007FFC00700
0007FC000700
0007C0000700
000700000700
000700000700
000700000700
000700000700
000700000700
000700000700
000700000700
000700000700
000700000700
000700003F00
00070000FF00
00070003FF00
00070007FF00
00070007FE00
0007000FFE00
003F000FFC00
00FF000FFC00
03FF000FF800
07FF000FF000
07FE0007C000
0FFE00000000
0FFC00000000
0FFC00000000
0FF800000000
0FF000000000
07C000000000
000000000000
ENDCHAR

STARTCHAR kor_A2DE
ENCODING 41694
SWIDTH 1024 0
DWIDTH 48 0
BBX 48 48 0 -6
BITMAP
000000000000
000000000000
00000FFC0000
00007FFF8000
0003FFFFF000
000FF803FC00
001F80007E00
003E00001F00
007C00000780
00F8000003C0
01F0000001E0
03E0000000F0
03C000000070
078000000078
07803C0F8038
0F003C1F003C
0F003C3E001C
0E003C7C001C
1E003CF8001C
1C003DF00000
1C003FE00000
1C003FC00000
1C003F800000
1FFC3F003FFC
1FFC3F803FFC
1FFC3FC03FFC
00003FE0001C
00003DF0001C
00003CF8001C
00003C7C003C
1C003C3E003C
1C003C1F0038
1C003C0F8078
1E003C07C078
0E00000000F0
0F00000000F0
0780000001E0
07C0000003E0
03E0000007C0
01F000000F80
00F800001F00
007E00007E00
003FC003FC00
001FFFFFF800
0007FFFFE000
0001FFFF8000
00003FFC0000
000000000000
ENDCHAR

STARTCHAR kor_A2DF
ENCODING 41695
SWIDTH 1024 0
DWIDTH 48 0
BBX 48 48 0 -6
BITMAP
000000000000
000000000000
000000000000
004000000200
00C000000300
018000007980
03980003FDC0
071FFFFFFCE0
070FFFFFF8E0
0E07F1E00070
0E01C1F00070
1C0001F00038
1C0003E00038
3C0007E0003C
38000FF8001C
38001F3E001C
38003E0FE01C
7800FC07F81E
7001F001FC0E
7007E000FE0E
701F80003E0E
707E00000E0E
71F80000000E
77C00000000E
700000001E0E
77000000FF8E
77FFFFFFFFCE
73FFFFFFFFCE
70FF01E0000E
703801E0000E
700001E0000E
700001E0001E
780001E0001C
380001E0001C
380001E0001C
3C0001E00038
1C0001E00038
1C0001E00038
0E0001E00070
0E0001E00070
070001C000E0
070001C000E0
038001C001C0
018001800180
00C001800300
004001000200
000000000000
000000000000
ENDCHAR

STARTCHAR kor_A2E0
ENCODING 41696
SWIDTH 1024 0
DWIDTH 48 0
BBX 48 48 0 -6
BITMAP
000000000000
000000000000
000000000000
000000000000
7F007FE00000
7F007FE00000
3F800F000000
1F8006000000
0FC006000000
0FC006000000
0FE006000000
0FE006000000
0FF006000000
0DF006000000
0DF806000000
0CF806000000
0CFC0600F000
0C7C0603FC00
0C7E06070E00
0C3E060E0700
0C3F060E0700
0C1F061C0380
0C1F861C0380
0C0F861C0380
0C0FC63C03C0
0C07C63C03C0
0C07E63C03C0
0C03E63C03C0
0C03F63C03C0
0C01F63C03C0
0C01FE3C03C0
0C00FE3C03C0
0C00FE3C03C0
0C007E3C03C0
0C007E1C0380
0C003E1C0380
0C003E1C039C
0C001E0E073E
0C001E0E073E
1E000E070E3E
7FC00E03FC1C
7FC00601F000
000000000000
000000000000
000000000000
000000000000
000000000000
000000000000
ENDCHAR

STARTCHAR kor_A2E1
ENCODING 41697
SWIDTH 1024 0
DWIDTH 48 0
BBX 48 48 0 -6
BITMAP
000000000000
000000000000
000000000000
001FC3000000
007FF3000000
00F07F000000
01C01F000000
03800F000000
07800F000000
070007000000
0F0007000000
0F0003000000
0E0003000000
1E0003000000
1E0000000000
1E0000000000
3C0000007800
3C000001FE00
3C0000038700
3C0000070380
3C0000070380
3C00000E01C0
3C00000E01C0
3C00001E01E0
3C00001E01E0
3C00001E01E0
3C00001E01E0
3E00001E01E0
1E00001E01E0
1E00001E01E0
1E00019E01E0
1F00019E01E0
0F00019E01E0
0F00019E01E0
0F80039E01E0
0780030E01C0
07C0070E01C0
03E00E07039C
01F01E0703BE
00FC7C03873E
007FF801FE3E
003FF000781C
000FC0000000
000000000000
000000000000
000000000000
000000000000
000000000000
ENDCHAR

STARTCHAR kor_A2E2
ENCODING 41698
SWIDTH 1024 0
DWIDTH 48 0
BBX 48 48 0 -6
BITMAP
000000000000
000000000000
000000000000
000000000000
000000000000
1FFFFBFC007E
1FFFFBFE00FE
1E3C787E00FC
3C3C3C3E00F8
383C1C3E00F8
383C1C3E00F8
703C0E3F00F8
703C0E3F00F8
603C063F01F8
603C063F01F8
403C023701F8
003C003781F8
003C003781F8
003C003781F8
003C003783F8
003C003383F8
003C0033C3F8
003C0033C378
003C0033C378
003C0033C378
003C0031C778
003C0031E778
003C0031E678
003C0031E678
003C0031E678
003C0030E678
003C0030FE78
003C0030FE78
003C0030FC78
003C0030FC78
003C00307C78
003C00307C78
003C00307C78
003C00307C78
003C00307878
007E007838FC
07FFE3FF39FE
07FFE3FF39FE
000000000000
000000000000
000000000000
000000000000
000000000000
ENDCHAR

STARTCHAR kor_A2E3
ENCODING 41699
SWIDTH 1024 0
DWIDTH 48 0
BBX 48 48 0 -6
BITMAP
000000000000
000000000000
000000000000
000000000000
000000000000
000000000000
000000000000
000000000000
000000000000
000000000000
000000000000
000000000000
000000000000
000000000000
000000000000
000000000000
000000000000
000000000000
000000000000
000000000000
03E00FEF1E00
0FF80FFFBF00
1E7C03FFFF80
3C3C01F7EF80
783E01E3C780
7C1E01E3C780
7C1E01E3C780
7C1E01E3C780
387E01E3C780
01FE01E3C780
07DE01E3C780
1F9E01E3C780
3E1E01E3C780
3C1E01E3C780
781E01E3C780
781E01E3C780
781E01E3C780
783EC1E3C780
7CFFD9E3C78C
7FFFFFF7EFDE
3FCFFFFFFFFE
1F071FFFFFEC
000000000000
000000000000
000000000000
000000000000
000000000000
000000000000
ENDCHAR

STARTCHAR kor_A2E4
ENCODING 41700
SWIDTH 1024 0
DWIDTH 48 0
BBX 48 48 0 -6
BITMAP
000000000000
000000000000
000000000000
000000000000
000000000000
000000000000
000000000000
000000000000
000000000000
000000000000
000000000000
000000000000
000000000000
000000000000
000000000000
000000000000
000000000000
000000000000
000000000000
067800000000
1EFE0FCF1E00
7FFF0FFFBF00
7F8783FFFF80
1F03C1F7EF80
1E03C1E3C780
1E01E1E3C780
1E01E1E3C780
1E01E1E3C780
1E01E1E3C780
1E01E1E3C780
1E01E1E3C780
1E01E1E3C780
1E01E1E3C780
1E03C1E3C780
1E03C1E3C780
1F0781E3C780
1F8F81E3C780
1FFF01E3C780
1EFC63F7EFCC
1E00F7FFFFFE
1E00F7FFFFFE
1E006000000C
1E0000000000
1E0000000000
3F0000000000
7F8000000000
7F8000000000
000000000000
ENDCHAR

STARTCHAR kor_A2E5
ENCODING 41701
SWIDTH 1024 0
DWIDTH 48 0
BBX 48 48 0 -6
BITMAP
000000000000
000000000000
000000000000
000000000018
0FFFFF000038
0FFFFF0000F8
0F8F1F0007F8
1E0F078007F8
1C0F03800078
1C0F03800078
380F01C00078
300F00C00078
300F00C00078
200F00400078
000F00000078
000F001F0078
000F007FC078
000F00F1E078
000F01E0F078
000F01E07078
000F03C07878
000F03C07878
000F03C03878
000F07803C78
000F07803C78
000F07803C78
000F07FFFC78
000F07FFFC78
000F07800078
000F07800078
000F07800078
000F07800078
000F07800C78
000F03C00C78
000F03C00C78
000F03C01C78
000F01E03878
000F01F8F878
001F80FFF0FC
00FFF07FE1FE
00FFF01F81FE
000000000000
000000000000
000000000000
000000000000
000000000000
000000000000
000000000000
ENDCHAR

STARTCHAR default_char
ENCODING 41702
SWIDTH 48 0
DWIDTH 48 0
BBX 48 48 0 -6
BITMAP
000000000000
000000000000
30000000000C
30000000000C
000000000000
000000000000
000000000000
000000000000
000000000000
000000000000
000000000000
000000000000
000000000000
000000000000
000000000000
000000000000
000000000000
000000000000
000000000000
000000000000
000000000000
000000000000
000000000000
000000000000
000000000000
000000000000
000000000000
000000000000
000000000000
000000000000
000000000000
000000000000
000000000000
000000000000
000000000000
000000000000
000000000000
000000000000
000000000000
000000000000
000000000000
000000000000
000000000000
000000000000
30000000000C
30000000000C
000000000000
000000000000
ENDCHAR

STARTCHAR kor_A3A1
ENCODING 41889
SWIDTH 1024 0
DWIDTH 48 0
BBX 48 48 0 -6
BITMAP
000000000000
000000000000
000003C00000
000007E00000
000007E00000
000007E00000
000007E00000
000007E00000
000007E00000
000007E00000
000007E00000
000003C00000
000003C00000
000003C00000
000003C00000
000003C00000
000003C00000
000003C00000
000003C00000
000003C00000
000003C00000
000001800000
000001800000
000001800000
000001800000
000001800000
000001800000
000001800000
000001800000
000000000000
000000000000
000000000000
000000000000
000000000000
000001800000
000003C00000
000007E00000
000007E00000
000003C00000
000001800000
000000000000
000000000000
000000000000
000000000000
000000000000
000000000000
000000000000
000000000000
ENDCHAR

STARTCHAR kor_A3A2
ENCODING 41890
SWIDTH 1024 0
DWIDTH 48 0
BBX 48 48 0 -6
BITMAP
000000000000
000000000000
00000E070000
00001F0F8000
00001F0F8000
00003F1F8000
00003E1F0000
00007C3E0000
0000783C0000
0000F0780000
0000E0700000
0001C0E00000
000180C00000
000301800000
000201000000
000000000000
000000000000
000000000000
000000000000
000000000000
000000000000
000000000000
000000000000
000000000000
000000000000
000000000000
000000000000
000000000000
000000000000
000000000000
000000000000
000000000000
000000000000
000000000000
000000000000
000000000000
000000000000
000000000000
000000000000
000000000000
000000000000
000000000000
000000000000
000000000000
000000000000
000000000000
000000000000
000000000000
ENDCHAR

STARTCHAR kor_A3A3
ENCODING 41891
SWIDTH 1024 0
DWIDTH 48 0
BBX 48 48 0 -6
BITMAP
000000000000
000000000000
000000000000
00000381C000
00000381C000
00000381C000
00000381C000
00000381C000
00000783C000
000007038000
000007038000
000007038000
000007038000
000007038000
00000F078000
0007FFFFFF00
0007FFFFFF00
0007FFFFFF00
00000E070000
00000E070000
00000E070000
00001E0F0000
00001C0E0000
00001C0E0000
00001C0E0000
00001C0E0000
00001C0E0000
00003C1E0000
0000381C0000
0000381C0000
001FFFFFF800
001FFFFFF800
001FFFFFF800
0000381C0000
000070380000
000070380000
000070380000
000070380000
000070380000
0000F0780000
0000E0700000
0000E0700000
0000E0700000
0000E0700000
0000E0700000
000000000000
000000000000
000000000000
ENDCHAR

STARTCHAR kor_A3A4
ENCODING 41892
SWIDTH 1024 0
DWIDTH 48 0
BBX 48 48 0 -6
BITMAP
000000000000
00000E1C0000
00000E1C0000
00000E1C0000
00001FFC2000
00007FFE6000
0001FE1FE000
0003CE1DE000
00078E1CF000
000F0E1C7000
000F0E1C3000
001E0E1C3800
001E0E1C1800
001E0E1C1800
001E0E1C1800
001F0E1C0000
001F8E1C0000
000FEE1C0000
000FFE1C0000
0007FF1C0000
0003FFDC0000
0000FFFC0000
00003FFE0000
00000FFF8000
00000FFFE000
00000E7FF000
00000E1FF800
00000E1DFC00
00000E1C7C00
00000E1C3E00
00000E1C3E00
00000E1C1E00
00200E1C1E00
00300E1C1E00
00180E1C1E00
001C0E1C3E00
001E0E1C3C00
000F0E1C7C00
000F8E1CF800
000FEE1DF000
0007FF1FE000
00067FFFC000
00040FFF0000
00000E1C0000
00000E1C0000
00000E1C0000
00000E1C0000
000000000000
ENDCHAR

STARTCHAR kor_A3A5
ENCODING 41893
SWIDTH 1024 0
DWIDTH 48 0
BBX 48 48 0 -6
BITMAP
000000000000
001F80000000
007FE000000C
00F0F000001C
01E07800003C
01C038000078
03C03C0000F0
03C03C0001E0
07801C0003C0
07801E000780
07801E000F00
07801E001E00
07801E003C00
07801E007800
07801E00F000
07801E01E000
07801C03C000
03C03C078000
03C03C0F0000
01C0381E0000
01E0783C0000
00F0F0780000
007FE0F00000
001F81E00000
000003C0FC00
00000783FF00
00000F078780
00001E0F03C0
00003C0E01C0
0000781E01E0
0000F01E01E0
0001E03C00F0
0003C03C00F0
0007803C00F0
000F003C00F0
001E003C00F0
003C003C00F0
0078003C00F0
00F0003C00F0
01E0003C00F0
03C0001E01E0
0780001E01E0
0F00000E01C0
1E00000F03C0
1C0000078780
18000003FF00
00000000FC00
000000000000
ENDCHAR

STARTCHAR kor_A3A6
ENCODING 41894
SWIDTH 1024 0
DWIDTH 48 0
BBX 48 48 0 -6
BITMAP
000000000000
000000000000
000000000000
00000FC00000
00007FF00000
0000F8780000
0001E03C0000
0003C03C0000
0003C01E0000
0007801E0000
0007801E0000
0007801E0000
0007803E0000
0007803C0000
0007807C0000
0007C0F80000
0003C1F00000
0003E7E00000
0003FF800000
0001FE07FFF0
0003F807FFF0
000FF800FF80
003EF8003E00
00787C001C00
00F07E003C00
01F03E003800
01E01F003800
03E00F807000
03E00F807000
07C007C0E000
07C007E0E000
07C003E1C000
07C001F1C000
07C001FB8000
07C000FF8000
03E0007F0030
03E0003E0070
01F0003F00E0
01F800FFC3C0
00FE07FFFF80
007FFFC7FF00
001FFF00FC00
0003F8000000
000000000000
000000000000
000000000000
000000000000
000000000000
ENDCHAR

STARTCHAR kor_A3A7
ENCODING 41895
SWIDTH 1024 0
DWIDTH 48 0
BBX 48 48 0 -6
BITMAP
000000000000
000000000000
000001C00000
000003E00000
000003E00000
000003E00000
000003E00000
000003E00000
000003E00000
000001C00000
000001C00000
000001C00000
000001C00000
000001C00000
000001C00000
000000800000
000000800000
000000800000
000000000000
000000000000
000000000000
000000000000
000000000000
000000000000
000000000000
000000000000
000000000000
000000000000
000000000000
000000000000
000000000000
000000000000
000000000000
000000000000
000000000000
000000000000
000000000000
000000000000
000000000000
000000000000
000000000000
000000000000
000000000000
000000000000
000000000000
000000000000
000000000000
000000000000
ENDCHAR

STARTCHAR kor_A3A8
ENCODING 41896
SWIDTH 1024 0
DWIDTH 48 0
BBX 48 48 0 -6
BITMAP
000000000000
000000000006
00000000000C
000000000018
000000000030
000000000070
0000000000E0
0000000000E0
0000000001C0
0000000001C0
000000000380
000000000380
000000000780
000000000700
000000000700
000000000F00
000000000F00
000000000E00
000000001E00
000000001E00
000000001E00
000000001E00
000000001E00
000000001E00
000000001E00
000000001E00
000000001E00
000000001E00
000000001E00
000000001E00
000000000E00
000000000F00
000000000F00
000000000700
000000000700
000000000780
000000000380
000000000380
0000000001C0
0000000001C0
0000000000E0
0000000000E0
000000000070
000000000030
000000000018
00000000000C
000000000006
000000000000
ENDCHAR

STARTCHAR kor_A3A9
ENCODING 41897
SWIDTH 1024 0
DWIDTH 48 0
BBX 48 48 0 -6
BITMAP
000000000000
600000000000
300000000000
180000000000
0C0000000000
0E0000000000
070000000000
070000000000
038000000000
038000000000
01C000000000
01C000000000
01E000000000
00E000000000
00E000000000
00F000000000
00F000000000
007000000000
007800000000
007800000000
007800000000
007800000000
007800000000
007800000000
007800000000
007800000000
007800000000
007800000000
007800000000
007800000000
007000000000
00F000000000
00F000000000
00E000000000
00E000000000
01E000000000
01C000000000
01C000000000
038000000000
038000000000
070000000000
070000000000
0E0000000000
0C0000000000
180000000000
300000000000
600000000000
000000000000
ENDCHAR

STARTCHAR kor_A3AA
ENCODING 41898
SWIDTH 1024 0
DWIDTH 48 0
BBX 48 48 0 -6
BITMAP
000000000000
000000000000
000000000000
000000000000
000000000000
000000000000
000000000000
000000000000
000000000000
000000000000
000000000000
000000000000
000001C00000
000003E00000
000003E00000
000003E00000
0000E1C38000
0001F1C7C000
0001F9CFC000
0000FDDF8000
00003EBE0000
00000FF80000
000003E00000
00000FF80000
00003EBE0000
0000FDDF8000
0001F9CFC000
0001F1C7C000
0000E1C38000
000003E00000
000003E00000
000003E00000
000001C00000
000000000000
000000000000
000000000000
000000000000
000000000000
000000000000
000000000000
000000000000
000000000000
000000000000
000000000000
000000000000
000000000000
000000000000
000000000000
ENDCHAR

STARTCHAR kor_A3AB
ENCODING 41899
SWIDTH 1024 0
DWIDTH 48 0
BBX 48 48 0 -6
BITMAP
000000000000
000000000000
000000000000
000000000000
000000000000
000000000000
000000000000
000001C00000
000001C00000
000001C00000
000001C00000
000001C00000
000001C00000
000001C00000
000001C00000
000001C00000
000001C00000
000001C00000
000001C00000
000001C00000
000001C00000
000001C00000
000001C00000
01FFFFFFFFC0
01FFFFFFFFC0
01FFFFFFFFC0
000001C00000
000001C00000
000001C00000
000001C00000
000001C00000
000001C00000
000001C00000
000001C00000
000001C00000
000001C00000
000001C00000
000001C00000
000001C00000
000001C00000
000001C00000
000001C00000
000000000000
000000000000
000000000000
000000000000
000000000000
000000000000
ENDCHAR

STARTCHAR kor_A3AC
ENCODING 41900
SWIDTH 1024 0
DWIDTH 48 0
BBX 48 48 0 -6
BITMAP
000000000000
000000000000
000000000000
000000000000
000000000000
000000000000
000000000000
000000000000
000000000000
000000000000
000000000000
000000000000
000000000000
000000000000
000000000000
000000000000
000000000000
000000000000
000000000000
000000000000
000000000000
000000000000
000000000000
000000000000
000000000000
000000000000
000000000000
000000000000
000000000000
000000000000
000000000000
000000000000
000000000000
078000000000
0FC000000000
1FE000000000
1FE000000000
1FE000000000
0FE000000000
07E000000000
03C000000000
03C000000000
078000000000
070000000000
0E0000000000
1C0000000000
300000000000
000000000000
ENDCHAR

STARTCHAR kor_A3AD
ENCODING 41901
SWIDTH 1024 0
DWIDTH 48 0
BBX 48 48 0 -6
BITMAP
000000000000
000000000000
000000000000
000000000000
000000000000
000000000000
000000000000
000000000000
000000000000
000000000000
000000000000
000000000000
000000000000
000000000000
000000000000
000000000000
000000000000
000000000000
000000000000
000000000000
000000000000
000000000000
0FFFFFFFFFF0
0FFFFFFFFFF0
0FFFFFFFFFF0
000000000000
000000000000
000000000000
000000000000
000000000000
000000000000
000000000000
000000000000
000000000000
000000000000
000000000000
000000000000
000000000000
000000000000
000000000000
000000000000
000000000000
000000000000
000000000000
000000000000
000000000000
000000000000
000000000000
ENDCHAR

STARTCHAR kor_A3AE
ENCODING 41902
SWIDTH 1024 0
DWIDTH 48 0
BBX 48 48 0 -6
BITMAP
000000000000
000000000000
000000000000
000000000000
000000000000
000000000000
000000000000
000000000000
000000000000
000000000000
000000000000
000000000000
000000000000
000000000000
000000000000
000000000000
000000000000
000000000000
000000000000
000000000000
000000000000
000000000000
000000000000
000000000000
000000000000
000000000000
000000000000
000000000000
000000000000
000000000000
000000000000
000000000000
000000000000
000000000000
000000000000
0E0000000000
1F0000000000
3F8000000000
3F8000000000
3F8000000000
1F0000000000
0E0000000000
000000000000
000000000000
000000000000
000000000000
000000000000
000000000000
ENDCHAR

STARTCHAR kor_A3AF
ENCODING 41903
SWIDTH 1024 0
DWIDTH 48 0
BBX 48 48 0 -6
BITMAP
000000000000
000000000000
00000000000C
00000000001E
00000000003C
000000000078
0000000000F0
0000000001E0
0000000003C0
000000000780
000000000F00
000000001E00
000000003C00
000000007800
00000000F000
00000001E000
00000003C000
000000078000
0000000F0000
0000001E0000
0000003C0000
000000780000
000000F00000
000001E00000
000003C00000
000007800000
00000F000000
00001E000000
00003C000000
000078000000
0000F0000000
0001E0000000
0003C0000000
000780000000
000F00000000
001E00000000
003C00000000
007800000000
00F000000000
01E000000000
03C000000000
078000000000
0F0000000000
1E0000000000
3C0000000000
380000000000
100000000000
000000000000
ENDCHAR

STARTCHAR kor_A3B0
ENCODING 41904
SWIDTH 1024 0
DWIDTH 48 0
BBX 48 48 0 -6
BITMAP
000000000000
000000000000
000000000000
000007E00000
00001FF80000
00003C3C0000
0000781E0000
0000F00F0000
0000F00F0000
0001E0078000
0001E0078000
0001E0078000
0003C003C000
0003C003C000
0003C003C000
0003C003C000
0003C003C000
0003C003C000
0003C003C000
0003C003C000
0003C003C000
0003C003C000
0003C003C000
0003C003C000
0003C003C000
0003C003C000
0003C003C000
0003C003C000
0003C003C000
0003C003C000
0003C003C000
0001E0078000
0001E0078000
0001E0078000
0000F00F0000
0000F00F0000
0000781E0000
00003C3C0000
00001FF80000
000007E00000
000000000000
000000000000
000000000000
000000000000
000000000000
000000000000
000000000000
000000000000
ENDCHAR

STARTCHAR kor_A3B1
ENCODING 41905
SWIDTH 1024 0
DWIDTH 48 0
BBX 48 48 0 -6
BITMAP
000000000000
000000000000
000000000000
000003800000
000007800000
00000F800000
00003F800000
0001FF800000
0001FF800000
000007800000
000007800000
000007800000
000007800000
000007800000
000007800000
000007800000
000007800000
000007800000
000007800000
000007800000
000007800000
000007800000
000007800000
000007800000
000007800000
000007800000
000007800000
000007800000
000007800000
000007800000
000007800000
000007800000
000007800000
000007800000
000007800000
000007800000
00000FC00000
00007FF80000
0007FFFF8000
0007FFFF8000
000000000000
000000000000
000000000000
000000000000
000000000000
000000000000
000000000000
000000000000
ENDCHAR

STARTCHAR kor_A3B2
ENCODING 41906
SWIDTH 1024 0
DWIDTH 48 0
BBX 48 48 0 -6
BITMAP
000000000000
000000000000
000000000000
00000FF00000
00003FFC0000
00007C3E0000
0000F01F0000
0001E00F8000
0001E00F8000
0003F007C000
0003F807C000
0003F807C000
0003F807C000
0001F007C000
0000E00FC000
0000000F8000
0000000F8000
0000001F0000
0000001F0000
0000003E0000
0000007C0000
000000780000
000000F80000
000001F00000
000003E00000
000007C00000
000007800000
00000F000000
00001E000000
00003C00C000
00007800C000
0000F001C000
0001E001C000
0001C0038000
0003C0078000
0003FFFF8000
0003FFFF0000
0003FFFF0000
0003FFFF0000
000000000000
000000000000
000000000000
000000000000
000000000000
000000000000
000000000000
000000000000
000000000000
ENDCHAR

STARTCHAR kor_A3B3
ENCODING 41907
SWIDTH 1024 0
DWIDTH 48 0
BBX 48 48 0 -6
BITMAP
000000000000
000000000000
000000000000
000007F80000
00001FFE0000
00003E1F0000
00007C0F8000
00007C07C000
0000FC07C000
0000FC03E000
0000FC03E000
0000FC03E000
00007803E000
00000003E000
00000007C000
00000007C000
0000000F8000
0000001F0000
0000007E0000
00000FFC0000
00000FF00000
0000007C0000
0000001E0000
0000000F0000
000000078000
00000007C000
00000003C000
00000003E000
00000003E000
00000003E000
0001E003E000
0003F003E000
0003F003E000
0003F003E000
0003F007C000
0001F007C000
0001F00F8000
0000F01F0000
0000787E0000
00003FFC0000
00000FF00000
000000000000
000000000000
000000000000
000000000000
000000000000
000000000000
000000000000
ENDCHAR

STARTCHAR kor_A3B4
ENCODING 41908
SWIDTH 1024 0
DWIDTH 48 0
BBX 48 48 0 -6
BITMAP
000000000000
000000000000
000000000000
000000000000
0000001C0000
0000001C0000
0000003C0000
0000003C0000
0000007C0000
0000007C0000
000000FC0000
000000FC0000
000001FC0000
000001FC0000
000003BC0000
000003BC0000
0000073C0000
0000073C0000
00000E3C0000
00000E3C0000
00001C3C0000
00001C3C0000
0000383C0000
0000383C0000
0000703C0000
0000703C0000
0000E03C0000
0000E03C0000
0001C03C0000
0001C03C0000
0003FFFFE000
0003FFFFE000
0003FFFFE000
0000003C0000
0000003C0000
0000003C0000
0000003C0000
0000003C0000
0000007E0000
000007FFE000
000007FFE000
000000000000
000000000000
000000000000
000000000000
000000000000
000000000000
000000000000
ENDCHAR

STARTCHAR kor_A3B5
ENCODING 41909
SWIDTH 1024 0
DWIDTH 48 0
BBX 48 48 0 -6
BITMAP
000000000000
000000000000
000000000000
000000000000
0003FFFF8000
0003FFFF0000
0003FFFF0000
0003FFFE0000
000380000000
000380000000
000380000000
000380000000
000380000000
000380000000
000380000000
000380000000
000380000000
00038FF00000
0003BFFC0000
0003F87E0000
0003E01F0000
0003C00F8000
0003800F8000
00000007C000
00000007C000
00000007E000
00000003E000
00000003E000
00000003E000
00000003E000
0003C003E000
0007E007E000
0007E007C000
0007E007C000
0007E00F8000
0003E00F8000
0003E01F0000
0001E03E0000
0000F0FC0000
00007FF00000
00001FC00000
000000000000
000000000000
000000000000
000000000000
000000000000
000000000000
000000000000
ENDCHAR

STARTCHAR kor_A3B6
ENCODING 41910
SWIDTH 1024 0
DWIDTH 48 0
BBX 48 48 0 -6
BITMAP
000000000000
000000000000
000000FC0000
000003FF0000
0000078F8000
00000F07C000
00001E07E000
00003C07E000
00003C07E000
00007807E000
00007803C000
0000F8000000
0000F0000000
0000F0000000
0001F0000000
0001E0000000
0001E0000000
0003E3F80000
0003EFFE0000
0003FF1F8000
0003FC07C000
0003F003C000
0003E003E000
0003E001E000
0003E001F000
0003E000F000
0003E000F000
0003E000F000
0003E000F000
0003E000F000
0001E000F000
0001F000F000
0001F000F000
0000F001E000
0000F801E000
00007803C000
00007C078000
00003E1F0000
00001FFE0000
000007F80000
000000000000
000000000000
000000000000
000000000000
000000000000
000000000000
000000000000
000000000000
ENDCHAR

STARTCHAR kor_A3B7
ENCODING 41911
SWIDTH 1024 0
DWIDTH 48 0
BBX 48 48 0 -6
BITMAP
000000000000
000000000000
000000000000
0000FFFFE000
0000FFFFE000
0000FFFFE000
0001FFFFE000
0001F001C000
0001C001C000
000380038000
000300038000
000300070000
000200070000
0000000E0000
0000000E0000
0000001C0000
0000001C0000
000000380000
000000380000
000000700000
000000700000
000000F00000
000000E00000
000001E00000
000001E00000
000003C00000
000003C00000
000003C00000
000007C00000
000007800000
000007800000
00000F800000
00000F800000
00000F800000
00001F800000
00001F800000
00001F800000
00001F800000
00001F800000
00000F000000
000000000000
000000000000
000000000000
000000000000
000000000000
000000000000
000000000000
000000000000
ENDCHAR

STARTCHAR kor_A3B8
ENCODING 41912
SWIDTH 1024 0
DWIDTH 48 0
BBX 48 48 0 -6
BITMAP
000000000000
000000000000
000000000000
000007F00000
00001FFC0000
00003E3E0000
0000780F0000
0000F0078000
0000F0078000
0001E003C000
0001E003C000
0001E003C000
0001E003C000
0001F003C000
0000F0078000
0000F8078000
00007C0F0000
00003E1E0000
00001FBC0000
00000FF80000
000007F00000
00000FF80000
00003FFE0000
00007C7F0000
0000F81F8000
0001F00FC000
0001E007C000
0003E003E000
0003C003E000
0003C001E000
0003C001E000
0003C001E000
0003C001E000
0003E003E000
0001E003C000
0001F007C000
0000F80F8000
00007C3F0000
00003FFE0000
00000FF80000
000000000000
000000000000
000000000000
000000000000
000000000000
000000000000
000000000000
000000000000
ENDCHAR

STARTCHAR kor_A3B9
ENCODING 41913
SWIDTH 1024 0
DWIDTH 48 0
BBX 48 48 0 -6
BITMAP
000000000000
000000000000
000000000000
000000000000
000007F00000
00001FFC0000
00003E3E0000
0000780F0000
0000F0078000
0001F0078000
0001E003C000
0003E003C000
0003E003E000
0003E003E000
0003E003E000
0003E003E000
0003E003E000
0003E003E000
0003E003E000
0003F003E000
0001F007E000
0001F80FE000
0000FE3FE000
00007FFFE000
00003FFBE000
00000FE3E000
00000003E000
00000003E000
00000003C000
00000007C000
00000007C000
0000F0078000
0001F80F8000
0001F80F0000
0001F81F0000
0001F81E0000
0000F83C0000
0000FCF80000
00007FF00000
00001FC00000
000000000000
000000000000
000000000000
000000000000
000000000000
000000000000
000000000000
000000000000
ENDCHAR

STARTCHAR kor_A3BA
ENCODING 41914
SWIDTH 1024 0
DWIDTH 48 0
BBX 48 48 0 -6
BITMAP
000000000000
000000000000
000000000000
000000000000
000000000000
000000000000
000000000000
000000000000
000000000000
000000000000
000000000000
000000000000
000000000000
000000000000
000001C00000
000003E00000
000007F00000
000007F00000
000007F00000
000003E00000
000001C00000
000000000000
000000000000
000000000000
000000000000
000000000000
000000000000
000000000000
000000000000
000000000000
000000000000
000000000000
000000000000
000001C00000
000003E00000
000007F00000
000007F00000
000007F00000
000003E00000
000001C00000
000000000000
000000000000
000000000000
000000000000
000000000000
000000000000
000000000000
000000000000
ENDCHAR

STARTCHAR kor_A3BB
ENCODING 41915
SWIDTH 1024 0
DWIDTH 48 0
BBX 48 48 0 -6
BITMAP
000000000000
000000000000
000000000000
000000000000
000000000000
000000000000
000000000000
000000000000
000000000000
000000000000
000000000000
000000000000
000000000000
000000000000
000001C00000
000003E00000
000007F00000
000007F00000
000007F00000
000003E00000
000001C00000
000000000000
000000000000
000000000000
000000000000
000000000000
000000000000
000000000000
000000000000
000000000000
000000000000
000000000000
000000000000
000001C00000
000003E00000
000007F00000
000007F00000
000007F00000
000003F00000
000000F00000
000000F00000
000000E00000
000001E00000
000001C00000
000003800000
000007000000
00000C000000
000000000000
ENDCHAR

STARTCHAR kor_A3BC
ENCODING 41916
SWIDTH 1024 0
DWIDTH 48 0
BBX 48 48 0 -6
BITMAP
000000000000
000000000000
000000000000
000000000000
000000000000
000000000000
0000000000E0
0000000003E0
000000000FE0
000000003F80
00000000FE00
00000003F800
0000000FE000
0000003F8000
000000FE0000
000003F80000
00000FE00000
00003F800000
0000FE000000
0003F8000000
000FE0000000
003F80000000
00FE00000000
03F800000000
07E000000000
03F800000000
00FE00000000
003F80000000
000FE0000000
0003F8000000
0000FE000000
00003F800000
00000FE00000
000003F80000
000000FE0000
0000003F8000
0000000FE000
00000003F800
00000000FE00
000000003F80
000000000FE0
0000000003E0
0000000000E0
000000000000
000000000000
000000000000
000000000000
000000000000
ENDCHAR

STARTCHAR kor_A3BD
ENCODING 41917
SWIDTH 1024 0
DWIDTH 48 0
BBX 48 48 0 -6
BITMAP
000000000000
000000000000
000000000000
000000000000
000000000000
000000000000
000000000000
000000000000
000000000000
000000000000
000000000000
000000000000
000000000000
000000000000
000000000000
000000000000
000000000000
0FFFFFFFFFF0
0FFFFFFFFFF0
0FFFFFFFFFF0
000000000000
000000000000
000000000000
000000000000
000000000000
000000000000
000000000000
0FFFFFFFFFF0
0FFFFFFFFFF0
0FFFFFFFFFF0
000000000000
000000000000
000000000000
000000000000
000000000000
000000000000
000000000000
000000000000
000000000000
000000000000
000000000000
000000000000
000000000000
000000000000
000000000000
000000000000
000000000000
000000000000
ENDCHAR

STARTCHAR kor_A3BE
ENCODING 41918
SWIDTH 1024 0
DWIDTH 48 0
BBX 48 48 0 -6
BITMAP
000000000000
000000000000
000000000000
000000000000
000000000000
000000000000
070000000000
07C000000000
07F000000000
01FC00000000
007F00000000
001FC0000000
0007F0000000
0001FC000000
00007F000000
00001FC00000
000007F00000
000001FC0000
0000007F0000
0000001FC000
00000007F000
00000001FC00
000000007F00
000000001FC0
0000000007E0
000000001FC0
000000007F00
00000001FC00
00000007F000
0000001FC000
0000007F0000
000001FC0000
000007F00000
00001FC00000
00007F000000
0001FC000000
0007F0000000
001FC0000000
007F00000000
01FC00000000
07F000000000
07C000000000
070000000000
000000000000
000000000000
000000000000
000000000000
000000000000
ENDCHAR

STARTCHAR kor_A3BF
ENCODING 41919
SWIDTH 1024 0
DWIDTH 48 0
BBX 48 48 0 -6
BITMAP
000000000000
000000000000
000000000000
000007F00000
00003FFC0000
00007C3F0000
0000F00F8000
0001E007C000
0001C007C000
0003E003E000
0003F003E000
0003F003E000
0003F003E000
0003F007E000
0001E007E000
00000007C000
0000000FC000
0000000F8000
0000001F0000
0000003E0000
0000007C0000
000000F80000
000000F00000
000001E00000
000001E00000
000001C00000
000003C00000
000003800000
000003800000
000003800000
000003000000
000003000000
000003000000
000000000000
000000000000
000000000000
000003800000
000007C00000
00000FE00000
00000FE00000
00000FE00000
000007C00000
000003800000
000000000000
000000000000
000000000000
000000000000
000000000000
ENDCHAR

STARTCHAR kor_A3C0
ENCODING 41920
SWIDTH 1024 0
DWIDTH 48 0
BBX 48 48 0 -6
BITMAP
000000000000
000000000000
000000000000
000000000000
000000000000
000000000000
000001FE0000
00000FFFC000
00003F03F000
0000F8007800
0001E0001C00
000380000E00
000700000700
000E00000300
001C00000380
003800F87180
003003FE71C0
007007CFF0C0
00600F03F0C0
00601E01E0C0
00E03C01E0C0
00C03C01E0C0
00C07803C0C0
00C07803C1C0
00C0F003C180
00C0F0078180
00C0F0078380
00C0F00F8300
00E0F01F0700
0060787F0E00
00607FF7BC00
00703FC7F800
00300F03E000
0038000000C0
001C000001C0
000E00000380
000700000700
000380001E00
0001E0007C00
0000FC03F000
00003FFFC000
000007FE0000
000000000000
000000000000
000000000000
000000000000
000000000000
000000000000
ENDCHAR

STARTCHAR kor_A3C1
ENCODING 41921
SWIDTH 1024 0
DWIDTH 48 0
BBX 48 48 0 -6
BITMAP
000000000000
000000000000
000000600000
000001E00000
000003F00000
000003F00000
000007F00000
000007F80000
000007F80000
00000EF80000
00000EFC0000
00000C7C0000
00001C7C0000
00001C7E0000
0000183E0000
0000383E0000
0000383F0000
0000301F0000
0000701F0000
0000701F8000
0000600F8000
0000E00F8000
0000E00FC000
0000C007C000
0001C007C000
0001FFFFE000
0001FFFFE000
00038003E000
00038003F000
00030001F000
00070001F000
00070001F800
00060000F800
000E0000F800
000E0000FC00
000C00007C00
001C00007E00
003E0000FF00
01FFC007FFE0
01FFC007FFE0
000000000000
000000000000
000000000000
000000000000
000000000000
000000000000
000000000000
000000000000
ENDCHAR

STARTCHAR kor_A3C2
ENCODING 41922
SWIDTH 1024 0
DWIDTH 48 0
BBX 48 48 0 -6
BITMAP
000000000000
000000000000
00FFFFFE0000
00FFFFFFC000
000FE03FF000
0007C007F800
0007C001FC00
0007C000FC00
0007C000FE00
0007C0007E00
0007C0007E00
0007C0007E00
0007C0007E00
0007C000FC00
0007C000FC00
0007C001F800
0007C003F000
0007C00FE000
0007FFFF8000
0007FFFF8000
0007C03FE000
0007C007F800
0007C001FC00
0007C000FE00
0007C0007F00
0007C0003F00
0007C0003F80
0007C0001F80
0007C0001F80
0007C0001F80
0007C0001F80
0007C0001F80
0007C0003F00
0007C0003F00
0007C0007E00
0007C000FC00
0007C003F800
000FE01FF000
00FFFFFFC000
00FFFFFE0000
000000000000
000000000000
000000000000
000000000000
000000000000
000000000000
000000000000
000000000000
ENDCHAR

STARTCHAR kor_A3C3
ENCODING 41923
SWIDTH 1024 0
DWIDTH 48 0
BBX 48 48 0 -6
BITMAP
000000000000
000000000000
000003FC1800
00001FFFB800
00007E07F800
0000F801FC00
0001F0007C00
0003E0003C00
0007C0001E00
000F80000E00
000F80000600
001F00000700
001F00000300
003F00000300
003E00000000
003E00000000
007E00000000
007E00000000
007E00000000
007E00000000
007E00000000
007E00000000
007E00000000
007E00000000
007E00000000
007E00000000
007E00000000
003E00000000
003F00000180
003F00000180
001F00000380
001F80000300
000F80000700
000FC0000600
0007E0000E00
0003F0001C00
0001F8007800
0000FE03F000
00007FFFE000
00001FFF8000
000003FC0000
000000000000
000000000000
000000000000
000000000000
000000000000
000000000000
000000000000
ENDCHAR

STARTCHAR kor_A3C4
ENCODING 41924
SWIDTH 1024 0
DWIDTH 48 0
BBX 48 48 0 -6
BITMAP
000000000000
000000000000
01FFFFF80000
01FFFFFF0000
001FC03FC000
000F8007F000
000F8001F800
000F8000FC00
000F80007E00
000F80003E00
000F80003F00
000F80001F80
000F80001F80
000F80000FC0
000F80000FC0
000F80000FC0
000F800007E0
000F800007E0
000F800007E0
000F800007E0
000F800007E0
000F800007E0
000F800007E0
000F800007E0
000F800007E0
000F80000FC0
000F80000FC0
000F80000FC0
000F80001F80
000F80001F80
000F80003F00
000F80003E00
000F80007E00
000F8000FC00
000F8001F800
000F8003F000
000F800FE000
001FC07F8000
01FFFFFE0000
01FFFFF00000
000000000000
000000000000
000000000000
000000000000
000000000000
000000000000
000000000000
000000000000
ENDCHAR

STARTCHAR kor_A3C5
ENCODING 41925
SWIDTH 1024 0
DWIDTH 48 0
BBX 48 48 0 -6
BITMAP
000000000000
000000000000
007FFFFFFC00
007FFFFFFC00
0007F001FE00
0003E0007E00
0003E0001F00
0003E0000F00
0003E0000780
0003E0000380
0003E0000180
0003E0000080
0003E0000000
0003E0018000
0003E0018000
0003E0018000
0003E0038000
0003E0038000
0003E0078000
0003FFFF8000
0003FFFF8000
0003E0078000
0003E0038000
0003E0038000
0003E0018000
0003E0018000
0003E0018000
0003E0000000
0003E0000000
0003E0000000
0003E0000040
0003E00000C0
0003E00001C0
0003E0000380
0003E0000780
0003E0000F00
0003E0003F00
0007F000FF00
007FFFFFFE00
007FFFFFFE00
000000000000
000000000000
000000000000
000000000000
000000000000
000000000000
000000000000
000000000000
ENDCHAR

STARTCHAR kor_A3C6
ENCODING 41926
SWIDTH 1024 0
DWIDTH 48 0
BBX 48 48 0 -6
BITMAP
000000000000
000000000000
000000000000
007FFFFFFE00
007FFFFFFE00
0007F000FE00
0003E0003F00
0003E0000F00
0003E0000700
0003E0000380
0003E0000180
0003E0000080
0003E0000000
0003E0030000
0003E0030000
0003E0030000
0003E0070000
0003E0070000
0003E00F0000
0003FFFF0000
0003FFFF0000
0003FFFF0000
0003E00F0000
0003E0070000
0003E0070000
0003E0070000
0003E0030000
0003E0030000
0003E0030000
0003E0000000
0003E0000000
0003E0000000
0003E0000000
0003E0000000
0003E0000000
0003E0000000
0003E0000000
0007F0000000
00FFFFC00000
00FFFFC00000
000000000000
000000000000
000000000000
000000000000
000000000000
000000000000
000000000000
000000000000
ENDCHAR

STARTCHAR kor_A3C7
ENCODING 41927
SWIDTH 1024 0
DWIDTH 48 0
BBX 48 48 0 -6
BITMAP
000000000000
000000000000
00001FF80000
00007FFE1000
0001F81FB000
0003E003F800
0007C000F800
000F80007C00
001F00003C00
001F00001E00
003E00000E00
003E00000600
007C00000700
007C00000300
00FC00000000
00F800000000
00F800000000
01F800000000
01F800000000
01F800000000
01F800000000
01F800000000
01F800000000
01F8001FFFF0
01F8001FFFF0
01F80000FE00
01F800007C00
00F800007C00
00FC00007C00
00FC00007C00
007C00007C00
007E00007C00
007E00007C00
003F00007C00
003F0000FC00
001F8000FC00
000FC001F000
0007E003E000
0003F80FC000
0000FFFF0000
00001FFC0000
000000000000
000000000000
000000000000
000000000000
000000000000
000000000000
000000000000
ENDCHAR

STARTCHAR kor_A3C8
ENCODING 41928
SWIDTH 1024 0
DWIDTH 48 0
BBX 48 48 0 -6
BITMAP
000000000000
000000000000
07FFF00FFFE0
07FFF00FFFE0
007F0000FE00
003E00007C00
003E00007C00
003E00007C00
003E00007C00
003E00007C00
003E00007C00
003E00007C00
003E00007C00
003E00007C00
003E00007C00
003E00007C00
003E00007C00
003E00007C00
003E00007C00
003E00007C00
003FFFFFFC00
003FFFFFFC00
003E00007C00
003E00007C00
003E00007C00
003E00007C00
003E00007C00
003E00007C00
003E00007C00
003E00007C00
003E00007C00
003E00007C00
003E00007C00
003E00007C00
003E00007C00
003E00007C00
003E00007C00
007F0000FE00
07FFF00FFFE0
07FFF00FFFE0
000000000000
000000000000
000000000000
000000000000
000000000000
000000000000
000000000000
000000000000
ENDCHAR

STARTCHAR kor_A3C9
ENCODING 41929
SWIDTH 1024 0
DWIDTH 48 0
BBX 48 48 0 -6
BITMAP
000000000000
000000000000
00007FFF0000
00007FFF0000
000007F00000
000003E00000
000003E00000
000003E00000
000003E00000
000003E00000
000003E00000
000003E00000
000003E00000
000003E00000
000003E00000
000003E00000
000003E00000
000003E00000
000003E00000
000003E00000
000003E00000
000003E00000
000003E00000
000003E00000
000003E00000
000003E00000
000003E00000
000003E00000
000003E00000
000003E00000
000003E00000
000003E00000
000003E00000
000003E00000
000003E00000
000003E00000
000003E00000
000007F00000
00007FFF0000
00007FFF0000
000000000000
000000000000
000000000000
000000000000
000000000000
000000000000
000000000000
000000000000
ENDCHAR

STARTCHAR kor_A3CA
ENCODING 41930
SWIDTH 1024 0
DWIDTH 48 0
BBX 48 48 0 -6
BITMAP
000000000000
000000000000
00003FFF8000
00003FFF8000
000003F80000
000001F00000
000001F00000
000001F00000
000001F00000
000001F00000
000001F00000
000001F00000
000001F00000
000001F00000
000001F00000
000001F00000
000001F00000
000001F00000
000001F00000
000001F00000
000001F00000
000001F00000
000001F00000
000001F00000
000001F00000
000001F00000
000001F00000
000001F00000
000001F00000
000001F00000
000001F00000
000001F00000
000001F00000
000001F00000
000001F00000
000001F00000
000001F00000
000001F00000
000381E00000
0007C3E00000
000FC3E00000
000FC3C00000
000FC7C00000
0007EF800000
0003FF000000
0000FC000000
000000000000
000000000000
ENDCHAR

STARTCHAR kor_A3CB
ENCODING 41931
SWIDTH 1024 0
DWIDTH 48 0
BBX 48 48 0 -6
BITMAP
000000000000
000000000000
03FFFC1FFFC0
03FFFC1FFFC0
003F8001FC00
001F0000F000
001F0001C000
001F00038000
001F00070000
001F000E0000
001F001C0000
001F00380000
001F00700000
001F00E00000
001F01C00000
001F03800000
001F07C00000
001F0FC00000
001F1FE00000
001F3BF00000
001F71F00000
001FE1F80000
001FC0FC0000
001F807C0000
001F007E0000
001F003F0000
001F001F0000
001F001F8000
001F000FC000
001F0007C000
001F0007E000
001F0003F000
001F0001F000
001F0001F800
001F0000FC00
001F0000FE00
001F00007F00
003F8000FF80
03FFFC1FFFF8
03FFFC1FFFF8
000000000000
000000000000
000000000000
000000000000
000000000000
000000000000
000000000000
000000000000
ENDCHAR

STARTCHAR kor_A3CC
ENCODING 41932
SWIDTH 1024 0
DWIDTH 48 0
BBX 48 48 0 -6
BITMAP
000000000000
000000000000
00FFFF800000
00FFFF800000
0007F0000000
0003E0000000
0003E0000000
0003E0000000
0003E0000000
0003E0000000
0003E0000000
0003E0000000
0003E0000000
0003E0000000
0003E0000000
0003E0000000
0003E0000000
0003E0000000
0003E0000000
0003E0000000
0003E0000000
0003E0000000
0003E0000000
0003E0000000
0003E0000000
0003E0000000
0003E0000000
0003E0000000
0003E0000000
0003E0000100
0003E0000300
0003E0000700
0003E0000E00
0003E0001E00
0003E0003E00
0003E0007C00
0007F001FC00
007FFFFFF800
007FFFFFF800
000000000000
000000000000
000000000000
000000000000
000000000000
000000000000
000000000000
000000000000
000000000000
ENDCHAR

STARTCHAR kor_A3CD
ENCODING 41933
SWIDTH 1024 0
DWIDTH 48 0
BBX 48 48 0 -6
BITMAP
000000000000
000000000000
3FFC00000FFE
3FFE00001FFE
03FE00001FE0
01FE00001FC0
01BF00003FC0
01BF00003FC0
019F00003FC0
019F800077C0
019F800077C0
018F800067C0
018FC000E7C0
018FC000E7C0
0187C000C7C0
0187E001C7C0
0187E001C7C0
0183E00187C0
0183F00387C0
0183F00387C0
0181F00307C0
0181F80707C0
0181F80707C0
0180F80607C0
0180FC0E07C0
0180FC0E07C0
01807C0C07C0
01807E1C07C0
01807E1C07C0
01803E1807C0
01803F3807C0
01803F3807C0
01801F3007C0
01801FF007C0
01801FF007C0
01800FE007C0
01800FE007C0
03C00FE00FE0
3FFC07C0FFFE
3FFC07C0FFFE
000000000000
000000000000
000000000000
000000000000
000000000000
000000000000
000000000000
000000000000
ENDCHAR

STARTCHAR kor_A3CE
ENCODING 41934
SWIDTH 1024 0
DWIDTH 48 0
BBX 48 48 0 -6
BITMAP
000000000000
000000000000
03FF0001FFE0
03FF8001FFE0
003FC0001E00
001FC0000C00
001FE0000C00
001BF0000C00
001BF0000C00
0019F8000C00
0018FC000C00
0018FC000C00
00187E000C00
00183F000C00
00183F000C00
00181F800C00
00180FC00C00
00180FC00C00
001807E00C00
001803F00C00
001803F00C00
001801F80C00
001800FC0C00
001800FC0C00
0018007E0C00
0018003F0C00
0018003F0C00
0018001F8C00
0018000FCC00
0018000FCC00
00180007EC00
00180003FC00
00180003FC00
00180001FC00
00180000FC00
00180000FC00
001800007C00
003C00003C00
03FFE0003C00
03FFE0001C00
000000000000
000000000000
000000000000
000000000000
000000000000
000000000000
000000000000
000000000000
ENDCHAR

STARTCHAR kor_A3CF
ENCODING 41935
SWIDTH 1024 0
DWIDTH 48 0
BBX 48 48 0 -6
BITMAP
000000000000
000000000000
00000FFC0000
00007FFF8000
0001FC0FE000
0003F003F000
0007E001F800
000FC000FC00
001F80007E00
001F80007E00
003F00003F00
003F00003F00
007E00001F80
007E00001F80
007E00001F80
00FC00000FC0
00FC00000FC0
00FC00000FC0
00FC00000FC0
00FC00000FC0
00FC00000FC0
00FC00000FC0
00FC00000FC0
00FC00000FC0
00FC00000FC0
00FC00000FC0
00FC00000FC0
00FC00000FC0
007E00001F80
007E00001F80
007E00001F80
003F00003F00
003F00003F00
001F80007E00
001F80007E00
000FC000FC00
0007E001F800
0003F007F000
0001FC1FE000
00007FFF8000
00000FFC0000
000000000000
000000000000
000000000000
000000000000
000000000000
000000000000
000000000000
ENDCHAR

STARTCHAR kor_A3D0
ENCODING 41936
SWIDTH 1024 0
DWIDTH 48 0
BBX 48 48 0 -6
BITMAP
000000000000
000000000000
003FFFFF0000
003FFFFFE000
0003F81FF800
0001F003FC00
0001F000FE00
0001F0007F00
0001F0003F00
0001F0003F80
0001F0001F80
0001F0001F80
0001F0001F80
0001F0001F80
0001F0001F80
0001F0003F80
0001F0003F00
0001F0007F00
0001F000FE00
0001F003FC00
0001F01FF000
0001FFFFC000
0001FFFE0000
0001F0000000
0001F0000000
0001F0000000
0001F0000000
0001F0000000
0001F0000000
0001F0000000
0001F0000000
0001F0000000
0001F0000000
0001F0000000
0001F0000000
0001F0000000
0001F0000000
0003F8000000
003FFF800000
003FFF800000
000000000000
000000000000
000000000000
000000000000
000000000000
000000000000
000000000000
000000000000
ENDCHAR

STARTCHAR kor_A3D1
ENCODING 41937
SWIDTH 1024 0
DWIDTH 48 0
BBX 48 48 0 -6
BITMAP
000000000000
000000000000
00000FFC0000
00007FFF8000
0001FC0FE000
0003F003F000
0007E001F800
000FC000FC00
001F80007E00
001F80007E00
003F00003F00
003F00003F00
007E00001F80
007E00001F80
007E00001F80
00FC00000FC0
00FC00000FC0
00FC00000FC0
00FC00000FC0
00FC00000FC0
00FC00000FC0
00FC00000FC0
00FC00000FC0
00FC00000FC0
00FC00000FC0
00FC00000FC0
00FC00000FC0
00FC00000FC0
007E00001F80
007E1FC01F80
007E7FF01F80
003FFFF83F00
003FE0FC3F00
001FC03C7E00
001F801E7E00
000FC01EFC00
0007E00FF800
0003F00FF000
0001FC1FE020
00007FFF8060
00000FFFC0E0
00000007C1C0
00000007E7C0
00000003FF80
00000003FF00
00000001FE00
000000007800
000000000000
ENDCHAR

STARTCHAR kor_A3D2
ENCODING 41938
SWIDTH 1024 0
DWIDTH 48 0
BBX 48 48 0 -6
BITMAP
000000000000
000000000000
00FFFFFE0000
00FFFFFFC000
000FE07FF000
0007C00FF800
0007C003FC00
0007C001FC00
0007C000FE00
0007C000FE00
0007C0007E00
0007C0007E00
0007C0007E00
0007C0007E00
0007C000FE00
0007C000FC00
0007C001FC00
0007C003F800
0007C00FF000
0007C07FE000
0007FFFF8000
0007FFFE0000
0007C07E0000
0007C03F0000
0007C03F0000
0007C01F8000
0007C01F8000
0007C00FC000
0007C00FC000
0007C007E000
0007C007E000
0007C003F000
0007C003F000
0007C001F800
0007C001FC00
0007C000FE00
0007C000FF80
000FE0007FE0
00FFFE003FE0
00FFFE000000
000000000000
000000000000
000000000000
000000000000
000000000000
000000000000
000000000000
000000000000
ENDCHAR

STARTCHAR kor_A3D3
ENCODING 41939
SWIDTH 1024 0
DWIDTH 48 0
BBX 48 48 0 -6
BITMAP
000000000000
000000000000
00000FE0C000
00007FFDC000
0001F83FE000
0003E00FE000
0007C003E000
000F8001F000
000F8000F000
001F00007000
001F00003800
001F00003800
001F80001800
001F80000000
000FC0000000
000FE0000000
0007F8000000
0003FF000000
0001FFE00000
0000FFFC0000
00003FFF0000
00000FFFC000
000001FFE000
0000003FF000
00000007F800
00000001F800
00000000FC00
00000000FC00
000000007C00
000000007C00
003000007C00
003800007C00
003C00007C00
001E0000F800
001F0000F800
000F8001F000
000FC003F000
0007F007E000
0007FC1FC000
0003BFFF0000
000307FC0000
000000000000
000000000000
000000000000
000000000000
000000000000
000000000000
000000000000
ENDCHAR

STARTCHAR kor_A3D4
ENCODING 41940
SWIDTH 1024 0
DWIDTH 48 0
BBX 48 48 0 -6
BITMAP
000000000000
000000000000
007FFFFFFF00
007FFFFFFF00
00FF07F07F80
00FC03E01F80
00F803E00F80
01F003E007C0
01E003E003C0
01C003E001C0
038003E000E0
030003E00060
020003E00020
000003E00000
000003E00000
000003E00000
000003E00000
000003E00000
000003E00000
000003E00000
000003E00000
000003E00000
000003E00000
000003E00000
000003E00000
000003E00000
000003E00000
000003E00000
000003E00000
000003E00000
000003E00000
000003E00000
000003E00000
000003E00000
000003E00000
000003E00000
000003E00000
000007F00000
0000FFFF8000
0000FFFF8000
000000000000
000000000000
000000000000
000000000000
000000000000
000000000000
000000000000
000000000000
ENDCHAR

STARTCHAR kor_A3D5
ENCODING 41941
SWIDTH 1024 0
DWIDTH 48 0
BBX 48 48 0 -6
BITMAP
000000000000
000000000000
07FFFC01FFF8
07FFFC01FFF8
003F80000F00
001F00000600
001F00000600
001F00000600
001F00000600
001F00000600
001F00000600
001F00000600
001F00000600
001F00000600
001F00000600
001F00000600
001F00000600
001F00000600
001F00000600
001F00000600
001F00000600
001F00000600
001F00000600
001F00000600
001F00000600
001F00000600
001F00000600
001F00000600
001F00000600
001F00000600
001F00000600
001F80000E00
000F80000C00
000F80001C00
0007C0001800
0007C0003800
0003E0007000
0001F001E000
0000FC0FC000
00003FFF0000
000007F80000
000000000000
000000000000
000000000000
000000000000
000000000000
000000000000
000000000000
ENDCHAR

STARTCHAR kor_A3D6
ENCODING 41942
SWIDTH 1024 0
DWIDTH 48 0
BBX 48 48 0 -6
BITMAP
000000000000
000000000000
03FFFC03FFE0
03FFFC03FFE0
007FC0007F00
003F80003C00
001F80003800
000F80003800
000FC0003000
0007C0007000
0007C0007000
0007E0006000
0003E000E000
0003E000E000
0003F000C000
0001F001C000
0001F001C000
0001F8018000
0000F8038000
0000F8038000
0000FC030000
00007C070000
00007C070000
00007E060000
00003E0E0000
00003E0E0000
00003F0C0000
00001F1C0000
00001F1C0000
00001F980000
00000FB80000
00000FF80000
00000FF00000
000007F00000
000007F00000
000007E00000
000003E00000
000003E00000
000003C00000
000001C00000
000000000000
000000000000
000000000000
000000000000
000000000000
000000000000
000000000000
000000000000
ENDCHAR

STARTCHAR kor_A3D7
ENCODING 41943
SWIDTH 1024 0
DWIDTH 48 0
BBX 48 48 0 -6
BITMAP
000000000000
000000000000
7FF01FFC07FE
7FF01FFC07FE
1FC007F001F8
0F8003E000F0
0F8003E000E0
07C003F000E0
07C003F000C0
07C007F001C0
07C007F001C0
03E007F801C0
03E006F80180
03E00EF80380
03E00EF80380
01F00E7C0380
01F00C7C0300
01F01C7C0700
01F01C7C0700
00F81C3E0700
00F8183E0600
00F8383E0E00
00F8383E0E00
007C381F0E00
007C301F0C00
007C701F1C00
007C701F1C00
003E700F9C00
003E600F9800
003EE00FB800
003EE00FB800
001FE007F800
001FC007F000
001FC007F000
001FC007F000
000FC003F000
000F8003E000
000F8003E000
000F8003E000
00078001C000
00070001C000
000000000000
000000000000
000000000000
000000000000
000000000000
000000000000
000000000000
ENDCHAR

STARTCHAR kor_A3D8
ENCODING 41944
SWIDTH 1024 0
DWIDTH 48 0
BBX 48 48 0 -6
BITMAP
000000000000
000000000000
01FFFC07FFE0
01FFFC07FFE0
003FE000FF00
001FC0007C00
000FC0007000
0007E000E000
0003F000E000
0003F001C000
0001F8038000
0000FC038000
0000FC070000
00007E0E0000
00003F0C0000
00003F1C0000
00001FB80000
00000FF00000
00000FE00000
000007E00000
000003F00000
000003F80000
000007F80000
000007FC0000
00000E7E0000
00001C7F0000
0000383F0000
0000301F8000
0000701FC000
0000E00FC000
0001C007E000
00018007F000
00038003F000
00070001F800
000E0001FC00
001C0000FE00
007E0001FF80
03FFC00FFFF0
03FFC00FFFF0
000000000000
000000000000
000000000000
000000000000
000000000000
000000000000
000000000000
000000000000
000000000000
ENDCHAR

STARTCHAR kor_A3D9
ENCODING 41945
SWIDTH 1024 0
DWIDTH 48 0
BBX 48 48 0 -6
BITMAP
000000000000
000000000000
1FFFF800FFFC
1FFFF800FFFC
01FF80000FC0
007F00000700
003F00000E00
001F80001C00
000F80001800
000FC0003000
0007E0007000
0003F0006000
0003F000C000
0001F801C000
0000FC018000
00007C030000
00007E070000
00003F060000
00001F0C0000
00001F9C0000
00000FF80000
000007F00000
000007F00000
000003E00000
000003E00000
000003E00000
000003E00000
000003E00000
000003E00000
000003E00000
000003E00000
000003E00000
000003E00000
000003E00000
000003E00000
000003E00000
000003E00000
000007F00000
0000FFFF8000
0000FFFF8000
000000000000
000000000000
000000000000
000000000000
000000000000
000000000000
000000000000
000000000000
ENDCHAR

STARTCHAR kor_A3DA
ENCODING 41946
SWIDTH 1024 0
DWIDTH 48 0
BBX 48 48 0 -6
BITMAP
000000000000
000000000000
0003FFFFFE00
0003FFFFFE00
0003F800FC00
0007E001F800
0007C001F800
00078003F000
000F0007E000
000E0007E000
000C000FC000
000C001F8000
0008001F8000
0000003F0000
0000007E0000
0000007E0000
000000FC0000
000001F80000
000001F80000
000003F00000
000007E00000
000007E00000
00000FC00000
00001F800000
00001F800000
00003F000000
00007E000000
00007E000000
0000FC000000
0001F8000400
0001F8000C00
0003F0000C00
0007E0001C00
0007E0003C00
000FC0007800
001F8000F800
001F8001F800
003F0007F000
003FFFFFF000
003FFFFFF000
000000000000
000000000000
000000000000
000000000000
000000000000
000000000000
000000000000
000000000000
ENDCHAR

STARTCHAR kor_A3DB
ENCODING 41947
SWIDTH 1024 0
DWIDTH 48 0
BBX 48 48 0 -6
BITMAP
000000000000
00000001FFF0
00000001FFF0
00000001F000
00000001F000
00000001F000
00000001F000
00000001F000
00000001F000
00000001F000
00000001F000
00000001F000
00000001F000
00000001F000
00000001F000
00000001F000
00000001F000
00000001F000
00000001F000
00000001F000
00000001F000
00000001F000
00000001F000
00000001F000
00000001F000
00000001F000
00000001F000
00000001F000
00000001F000
00000001F000
00000001F000
00000001F000
00000001F000
00000001F000
00000001F000
00000001F000
00000001F000
00000001F000
00000001F000
00000001F000
00000001F000
00000001F000
00000001F000
00000001F000
00000001F000
00000001FFF0
00000001FFF0
000000000000
ENDCHAR

STARTCHAR kor_A3DC
ENCODING 41948
SWIDTH 1024 0
DWIDTH 48 0
BBX 48 48 0 -6
BITMAP
000000000000
000000000000
000000000000
000000000000
7FF81FFE07FE
7FF81FFE07FE
1FE007F801F8
0FC003F000F0
0F8003E000E0
0FC003F000C0
07C003F000C0
07C007F001C0
07C007F001C0
03E007F80180
03E00EF80180
03E00EF80380
03E00CF80380
7FFFFFFFFFFE
7FFFFFFFFFFE
01F01C7C0700
01F0187C0700
00F8183E0600
00F8383E0600
00F8383E0E00
00F8303E0E00
007C301F0C00
7FFFFFFFFFFE
7FFFFFFFFFFE
007C701F1C00
003E600F9800
003E600F9800
003EE00FB800
003EE00FB800
001FC007F000
001FC007F000
001FC007F000
001FC007F000
000F8003E000
000F8003E000
000F8003E000
000F0003C000
00070001C000
00070001C000
000000000000
000000000000
000000000000
000000000000
000000000000
ENDCHAR

STARTCHAR kor_A3DD
ENCODING 41949
SWIDTH 1024 0
DWIDTH 48 0
BBX 48 48 0 -6
BITMAP
000000000000
0FFF80000000
0FFF80000000
000F80000000
000F80000000
000F80000000
000F80000000
000F80000000
000F80000000
000F80000000
000F80000000
000F80000000
000F80000000
000F80000000
000F80000000
000F80000000
000F80000000
000F80000000
000F80000000
000F80000000
000F80000000
000F80000000
000F80000000
000F80000000
000F80000000
000F80000000
000F80000000
000F80000000
000F80000000
000F80000000
000F80000000
000F80000000
000F80000000
000F80000000
000F80000000
000F80000000
000F80000000
000F80000000
000F80000000
000F80000000
000F80000000
000F80000000
000F80000000
000F80000000
000F80000000
0FFF80000000
0FFF80000000
000000000000
ENDCHAR

STARTCHAR kor_A3DE
ENCODING 41950
SWIDTH 1024 0
DWIDTH 48 0
BBX 48 48 0 -6
BITMAP
000000000000
000000000000
000000000000
000000000000
000001E00000
000003F00000
000007F80000
00000FFC0000
00001FFE0000
00003F3F0000
00007C0F8000
0000F003C000
0001C000E000
000300003000
000000000000
000000000000
000000000000
000000000000
000000000000
000000000000
000000000000
000000000000
000000000000
000000000000
000000000000
000000000000
000000000000
000000000000
000000000000
000000000000
000000000000
000000000000
000000000000
000000000000
000000000000
000000000000
000000000000
000000000000
000000000000
000000000000
000000000000
000000000000
000000000000
000000000000
000000000000
000000000000
000000000000
000000000000
ENDCHAR

STARTCHAR kor_A3DF
ENCODING 41951
SWIDTH 1024 0
DWIDTH 48 0
BBX 48 48 0 -6
BITMAP
000000000000
000000000000
000000000000
000000000000
000000000000
000000000000
000000000000
000000000000
000000000000
000000000000
000000000000
000000000000
000000000000
000000000000
000000000000
000000000000
000000000000
000000000000
000000000000
000000000000
000000000000
000000000000
000000000000
000000000000
000000000000
000000000000
000000000000
000000000000
000000000000
000000000000
000000000000
000000000000
000000000000
000000000000
000000000000
000000000000
000000000000
000000000000
000000000000
000000000000
000000000000
000000000000
000000000000
7FFFFFFFFFFE
7FFFFFFFFFFE
7FFFFFFFFFFE
000000000000
000000000000
ENDCHAR

STARTCHAR kor_A3E0
ENCODING 41952
SWIDTH 1024 0
DWIDTH 48 0
BBX 48 48 0 -6
BITMAP
000000000000
000000000000
000000000000
000000000000
078000000000
0FC000000000
0FC000000000
0FE000000000
0FE000000000
07F000000000
07F000000000
03F800000000
01F800000000
00FC00000000
007C00000000
003E00000000
001E00000000
000F00000000
000700000000
000380000000
000180000000
000080000000
000000000000
000000000000
000000000000
000000000000
000000000000
000000000000
000000000000
000000000000
000000000000
000000000000
000000000000
000000000000
000000000000
000000000000
000000000000
000000000000
000000000000
000000000000
000000000000
000000000000
000000000000
000000000000
000000000000
000000000000
000000000000
000000000000
ENDCHAR

STARTCHAR kor_A3E1
ENCODING 41953
SWIDTH 1024 0
DWIDTH 48 0
BBX 48 48 0 -6
BITMAP
000000000000
000000000000
000000000000
000000000000
000000000000
000000000000
000000000000
000000000000
000000000000
000000000000
000000000000
000000000000
000000000000
000000000000
000000000000
00007FE00000
0001FFF80000
0003F0FC0000
0003E03E0000
0007E01E0000
0007E01F0000
0007E00F0000
0003C00F0000
0000000F0000
0000001F0000
000003FF0000
00001FFF0000
00007F8F0000
0001FC0F0000
0003F00F0000
0007E00F0000
0007C00F0000
000FC00F0000
000F801F0000
000F801F0000
000F803F0000
000F80FFB000
0007C3EFF000
0007FFCFF000
0003FF87E000
0000FE03C000
000000000000
000000000000
000000000000
000000000000
000000000000
000000000000
000000000000
ENDCHAR

STARTCHAR kor_A3E2
ENCODING 41954
SWIDTH 1024 0
DWIDTH 48 0
BBX 48 48 0 -6
BITMAP
000000000000
000000000000
0000E0000000
0001E0000000
0003E0000000
000FE0000000
003FE0000000
003FE0000000
0001E0000000
0001E0000000
0001E0000000
0001E0000000
0001E0000000
0001E0000000
0001E0000000
0001E0000000
0001E1FE0000
0001E7FF8000
0001EF0FC000
0001FC03E000
0001F801E000
0001F001F000
0001E000F000
0001E000F800
0001E000F800
0001E000F800
0001E000F800
0001E000F800
0001E000F800
0001E000F800
0001E000F800
0001E000F800
0001E000F000
0001E001F000
0001F001F000
0001F803E000
0001FC07E000
0001FF1FC000
0001CFFF8000
000187FE0000
000101F80000
000000000000
000000000000
000000000000
000000000000
000000000000
000000000000
000000000000
ENDCHAR

STARTCHAR kor_A3E3
ENCODING 41955
SWIDTH 1024 0
DWIDTH 48 0
BBX 48 48 0 -6
BITMAP
000000000000
000000000000
000000000000
000000000000
000000000000
000000000000
000000000000
000000000000
000000000000
000000000000
000000000000
000000000000
000000000000
000000000000
000003FC0000
00000FFF0000
00003F1F8000
00007C1FC000
0000F80FC000
0001F00FC000
0001F00FC000
0003E00FC000
0003E0078000
0007E0000000
0007C0000000
0007C0000000
0007C0000000
0007C0000000
0007C0000000
0007C0000000
0007C0000000
0007C0000000
0003E0000000
0003E0000000
0001F0002000
0001F8006000
0000FC00E000
00007F03C000
00003FFF8000
00000FFE0000
000003F80000
000000000000
000000000000
000000000000
000000000000
000000000000
000000000000
000000000000
ENDCHAR

STARTCHAR kor_A3E4
ENCODING 41956
SWIDTH 1024 0
DWIDTH 48 0
BBX 48 48 0 -6
BITMAP
000000000000
000000000000
00000001C000
00000003C000
00000007C000
0000001FC000
0000007FC000
0000007FC000
00000003C000
00000003C000
00000003C000
00000003C000
00000003C000
00000003C000
00000003C000
00000003C000
00001FC3C000
00007FF3C000
0000FC7BC000
0001F01FC000
0003E00FC000
0003C007C000
0007C003C000
00078003C000
000F8003C000
000F8003C000
000F8003C000
000F8003C000
000F8003C000
000F8003C000
000F8003C000
000F8003C000
000F8003C000
0007C003C000
0007C003C000
0003E007C000
0003F00FC000
0001FC3FC000
0000FFFBE000
00007FF3FC00
00001FC1FC00
000000000000
000000000000
000000000000
000000000000
000000000000
000000000000
000000000000
ENDCHAR

STARTCHAR kor_A3E5
ENCODING 41957
SWIDTH 1024 0
DWIDTH 48 0
BBX 48 48 0 -6
BITMAP
000000000000
000000000000
000000000000
000000000000
000000000000
000000000000
000000000000
000000000000
000000000000
000000000000
000000000000
000000000000
000000000000
000000000000
000007F80000
00001FFE0000
00003E3F0000
0000780F8000
0000F007C000
0001F003C000
0001E003E000
0003E001E000
0003C001E000
0007C001F000
0007C001F000
0007FFFFF000
0007FFFFF000
0007C0000000
0007C0000000
0007C0000000
0007C0000000
0003E0000000
0003E0000000
0003F0000000
0001F0002000
0001F8006000
0000FC00E000
00007F03C000
00003FFF8000
00000FFF0000
000003FC0000
000000000000
000000000000
000000000000
000000000000
000000000000
000000000000
000000000000
ENDCHAR

STARTCHAR kor_A3E6
ENCODING 41958
SWIDTH 1024 0
DWIDTH 48 0
BBX 48 48 0 -6
BITMAP
000000000000
000000000000
0000001E0000
0000007F8000
000000F3C000
000001E7E000
000003C7E000
000003C7E000
00000787E000
00000783C000
000007800000
00000F000000
00000F000000
00000F000000
00000F000000
00000F000000
0003FFFE0000
0003FFFE0000
00000F000000
00000F000000
00000F000000
00000F000000
00000F000000
00000F000000
00000F000000
00000F000000
00000F000000
00000F000000
00000F000000
00000F000000
00000F000000
00000F000000
00000F000000
00000F000000
00000F000000
00000F000000
00000F000000
00001F800000
0001FFF80000
0001FFF80000
000000000000
000000000000
000000000000
000000000000
000000000000
000000000000
000000000000
000000000000
ENDCHAR

STARTCHAR kor_A3E7
ENCODING 41959
SWIDTH 1024 0
DWIDTH 48 0
BBX 48 48 0 -6
BITMAP
000000000000
000000000000
000000000000
000000000000
000000000000
000000000000
000000000000
000000000000
000000000000
000000000000
000000000000
000000000000
000000000000
00003FC07000
0000FFF1F800
0001F9FBF800
0003E07FF800
0007C03EF800
0007C03E7000
000F801F0000
000F801F0000
000F801F0000
000F801F0000
000F801F0000
000F801F0000
0007C03E0000
0007C03E0000
0003E07C0000
0001F9F80000
0001FFF00000
0003FFC00000
000780000000
000FE0000000
000FFF000000
0007FFF00000
0001FFFE0000
0007FFFF8000
000F00FFC000
001E000FC000
003E0003E000
003E0001E000
003E0001E000
003F0003E000
001F800FC000
000FE07F8000
0003FFFE0000
00007FF00000
000000000000
ENDCHAR

STARTCHAR kor_A3E8
ENCODING 41960
SWIDTH 1024 0
DWIDTH 48 0
BBX 48 48 0 -6
BITMAP
000000000000
000000000000
0000E0000000
0001E0000000
0003E0000000
000FE0000000
003FE0000000
003FE0000000
0001E0000000
0001E0000000
0001E0000000
0001E0000000
0001E0000000
0001E0000000
0001E0000000
0001E1FC0000
0001E7FF0000
0001EF1F8000
0001FC07C000
0001F803C000
0001F003E000
0001E001E000
0001E001E000
0001E001E000
0001E001E000
0001E001E000
0001E001E000
0001E001E000
0001E001E000
0001E001E000
0001E001E000
0001E001E000
0001E001E000
0001E001E000
0001E001E000
0001E001E000
0001E001E000
0003F003F000
001FFE1FFE00
001FFE1FFE00
000000000000
000000000000
000000000000
000000000000
000000000000
000000000000
000000000000
000000000000
ENDCHAR

STARTCHAR kor_A3E9
ENCODING 41961
SWIDTH 1024 0
DWIDTH 48 0
BBX 48 48 0 -6
BITMAP
000000000000
000000000000
000007800000
00000FC00000
00000FC00000
00000FC00000
00000FC00000
000007800000
000000000000
000000000000
000000000000
000000000000
000000000000
000000000000
000001C00000
000003C00000
00000FC00000
00003FC00000
00003FC00000
000003C00000
000003C00000
000003C00000
000003C00000
000003C00000
000003C00000
000003C00000
000003C00000
000003C00000
000003C00000
000003C00000
000003C00000
000003C00000
000003C00000
000003C00000
000003C00000
000003C00000
000007E00000
00003FFC0000
00003FFC0000
000000000000
000000000000
000000000000
000000000000
000000000000
000000000000
000000000000
000000000000
000000000000
ENDCHAR

STARTCHAR kor_A3EA
ENCODING 41962
SWIDTH 1024 0
DWIDTH 48 0
BBX 48 48 0 -6
BITMAP
000000000000
000000000000
000003C00000
000007E00000
000007E00000
000007E00000
000007E00000
000003C00000
000000000000
000000000000
000000000000
000000000000
000000000000
000000000000
000000E00000
000001E00000
000003E00000
00000FE00000
00003FE00000
00003FE00000
000001E00000
000001E00000
000001E00000
000001E00000
000001E00000
000001E00000
000001E00000
000001E00000
000001E00000
000001E00000
000001E00000
000001E00000
000001E00000
000001E00000
000001E00000
000001E00000
000001E00000
000001E00000
000001E00000
0001C1E00000
0003E1E00000
0003E1E00000
0003E1E00000
0001E1C00000
0001F3C00000
0000FF800000
00003E000000
000000000000
ENDCHAR

STARTCHAR kor_A3EB
ENCODING 41963
SWIDTH 1024 0
DWIDTH 48 0
BBX 48 48 0 -6
BITMAP
000000000000
000000000000
000060000000
0000E0000000
0001E0000000
0007E0000000
003FE0000000
003FE0000000
0001E0000000
0001E0000000
0001E0000000
0001E0000000
0001E0000000
0001E0000000
0001E0000000
0001E0FFF800
0001E0FFF800
0001E03FE000
0001E01F8000
0001E01C0000
0001E0380000
0001E0700000
0001E0E00000
0001E1C00000
0001E3E00000
0001E7E00000
0001EFF00000
0001FDF80000
0001F8F80000
0001F07C0000
0001E07E0000
0001E03E0000
0001E01F0000
0001E01F8000
0001E00F8000
0001E007C000
0001E007E000
0003F00FF000
003FFF3FFE00
003FFF3FFE00
000000000000
000000000000
000000000000
000000000000
000000000000
000000000000
000000000000
000000000000
ENDCHAR

STARTCHAR kor_A3EC
ENCODING 41964
SWIDTH 1024 0
DWIDTH 48 0
BBX 48 48 0 -6
BITMAP
000000000000
000000000000
000000E00000
000001E00000
000003E00000
00000FE00000
00003FE00000
00003FE00000
000001E00000
000001E00000
000001E00000
000001E00000
000001E00000
000001E00000
000001E00000
000001E00000
000001E00000
000001E00000
000001E00000
000001E00000
000001E00000
000001E00000
000001E00000
000001E00000
000001E00000
000001E00000
000001E00000
000001E00000
000001E00000
000001E00000
000001E00000
000001E00000
000001E00000
000001E00000
000001E00000
000001E00000
000003F00000
00003FFF0000
00003FFF0000
000000000000
000000000000
000000000000
000000000000
000000000000
000000000000
000000000000
000000000000
000000000000
ENDCHAR

STARTCHAR kor_A3ED
ENCODING 41965
SWIDTH 1024 0
DWIDTH 48 0
BBX 48 48 0 -6
BITMAP
000000000000
000000000000
000000000000
000000000000
000000000000
000000000000
000000000000
000000000000
000000000000
000000000000
000000000000
000000000000
000000000000
000000000000
0060FC01F800
00E3FF07FE00
03E79F8F3F00
0FEE07DC0F80
0FFC03F80780
01F803F007C0
01F001E003C0
01E001E003C0
01E001E003C0
01E001E003C0
01E001E003C0
01E001E003C0
01E001E003C0
01E001E003C0
01E001E003C0
01E001E003C0
01E001E003C0
01E001E003C0
01E001E003C0
01E001E003C0
01E001E003C0
01E001E003C0
01E001E003C0
03F003F007E0
1FFE1FFE3FFC
1FFE1FFE3FFC
000000000000
000000000000
000000000000
000000000000
000000000000
000000000000
000000000000
000000000000
ENDCHAR

STARTCHAR kor_A3EE
ENCODING 41966
SWIDTH 1024 0
DWIDTH 48 0
BBX 48 48 0 -6
BITMAP
000000000000
000000000000
000000000000
000000000000
000000000000
000000000000
000000000000
000000000000
000000000000
000000000000
000000000000
000000000000
000000000000
000000000000
0001C1FC0000
0003C7FF0000
000FCF1F8000
003FDC07C000
003FF803C000
0003F003E000
0003E001E000
0003C001E000
0003C001E000
0003C001E000
0003C001E000
0003C001E000
0003C001E000
0003C001E000
0003C001E000
0003C001E000
0003C001E000
0003C001E000
0003C001E000
0003C001E000
0003C001E000
0003C001E000
0007E003F000
003FFC1FFE00
003FFC1FFE00
000000000000
000000000000
000000000000
000000000000
000000000000
000000000000
000000000000
000000000000
000000000000
ENDCHAR

STARTCHAR kor_A3EF
ENCODING 41967
SWIDTH 1024 0
DWIDTH 48 0
BBX 48 48 0 -6
BITMAP
000000000000
000000000000
000000000000
000000000000
000000000000
000000000000
000000000000
000000000000
000000000000
000000000000
000000000000
000000000000
000000000000
000000000000
000003F00000
00000FFC0000
00003E1F0000
000078078000
0000F003C000
0001F003E000
0001E001E000
0003E001F000
0003E001F000
0003C000F000
0007C000F800
0007C000F800
0007C000F800
0007C000F800
0007C000F800
0007C000F800
0003C000F000
0003E001F000
0003E001F000
0001E001E000
0001F003E000
0000F003C000
000078078000
00003E1F0000
00000FFC0000
000003F00000
000000000000
000000000000
000000000000
000000000000
000000000000
000000000000
000000000000
000000000000
ENDCHAR

STARTCHAR kor_A3F0
ENCODING 41968
SWIDTH 1024 0
DWIDTH 48 0
BBX 48 48 0 -6
BITMAP
000000000000
000000000000
000000000000
000000000000
000000000000
000000000000
000000000000
000000000000
000000000000
000000000000
000000000000
000000000000
000000000000
0000E1FE0000
0001E7FF8000
0007EF0FC000
001FFC03E000
001FF801F000
0001F001F000
0001E000F800
0001E000F800
0001E000F800
0001E0007C00
0001E0007C00
0001E0007C00
0001E0007C00
0001E0007C00
0001E0007C00
0001E0007C00
0001E000F800
0001E000F800
0001F000F000
0001F001F000
0001F801E000
0001FC03C000
0001EF0F8000
0001E7FE0000
0001E1F80000
0001E0000000
0001E0000000
0001E0000000
0001E0000000
0001E0000000
0001E0000000
0003F0000000
003FFF000000
003FFF000000
000000000000
ENDCHAR

STARTCHAR kor_A3F1
ENCODING 41969
SWIDTH 1024 0
DWIDTH 48 0
BBX 48 48 0 -6
BITMAP
000000000000
000000000000
000000000000
000000000000
000000000000
000000000000
000000000000
000000000000
000000000000
000000000000
000000000000
000000000000
000000000000
00001FC04000
00007FF0C000
0000FC79C000
0001F01FC000
0003E00FC000
0007C007C000
0007C007C000
000F8007C000
000F8007C000
001F8007C000
001F0007C000
001F0007C000
001F0007C000
001F0007C000
001F0007C000
001F0007C000
001F8007C000
001F8007C000
000F8007C000
000FC007C000
0007C007C000
0007E00FC000
0003F01FC000
0001FC7FC000
0000FFF7C000
00003FC7C000
00000007C000
00000007C000
00000007C000
00000007C000
0000000FE000
0000007FFC00
000000FFFE00
000000FFFE00
000000000000
ENDCHAR

STARTCHAR kor_A3F2
ENCODING 41970
SWIDTH 1024 0
DWIDTH 48 0
BBX 48 48 0 -6
BITMAP
000000000000
000000000000
000000000000
000000000000
000000000000
000000000000
000000000000
000000000000
000000000000
000000000000
000000000000
000000000000
000000000000
000000000000
00000E07C000
00001E1FE000
00007E7FE000
0001FEFFE000
0001FFE7E000
00001F83C000
00001F000000
00001E000000
00001E000000
00001E000000
00001E000000
00001E000000
00001E000000
00001E000000
00001E000000
00001E000000
00001E000000
00001E000000
00001E000000
00001E000000
00001E000000
00001E000000
00003F000000
0001FFE00000
0001FFE00000
000000000000
000000000000
000000000000
000000000000
000000000000
000000000000
000000000000
000000000000
000000000000
ENDCHAR

STARTCHAR kor_A3F3
ENCODING 41971
SWIDTH 1024 0
DWIDTH 48 0
BBX 48 48 0 -6
BITMAP
000000000000
000000000000
000000000000
000000000000
000000000000
000000000000
000000000000
000000000000
000000000000
000000000000
000000000000
000000000000
000000000000
000000000000
00000FE30000
00003FFF0000
00007C7F0000
0000F01F8000
0000E0078000
0001E0038000
0001E001C000
0001E000C000
0001F0004000
0000FC000000
0000FF000000
00007FE00000
00001FFC0000
000007FF0000
000000FF8000
0000001FC000
00000007C000
00000003E000
00010003E000
00018001E000
0001C001E000
0000E003C000
0000F003C000
00007C078000
00007F1F0000
00003FFE0000
000031F80000
000000000000
000000000000
000000000000
000000000000
000000000000
000000000000
000000000000
ENDCHAR

STARTCHAR kor_A3F4
ENCODING 41972
SWIDTH 1024 0
DWIDTH 48 0
BBX 48 48 0 -6
BITMAP
000000000000
000000000000
000000000000
000000000000
000000000000
000000000000
000003000000
000003000000
000003000000
000007000000
000007000000
000007000000
00000F000000
00000F000000
00001F000000
00007F000000
0001FFFF0000
0001FFFF0000
00000F000000
00000F000000
00000F000000
00000F000000
00000F000000
00000F000000
00000F000000
00000F000000
00000F000000
00000F000000
00000F000000
00000F000000
00000F000000
00000F000000
00000F000000
00000F004000
00000F00C000
00000F018000
00000F878000
000007FF0000
000007FE0000
000003FC0000
000000F00000
000000000000
000000000000
000000000000
000000000000
000000000000
000000000000
000000000000
ENDCHAR

STARTCHAR kor_A3F5
ENCODING 41973
SWIDTH 1024 0
DWIDTH 48 0
BBX 48 48 0 -6
BITMAP
000000000000
000000000000
000000000000
000000000000
000000000000
000000000000
000000000000
000000000000
000000000000
000000000000
000000000000
000000000000
000000000000
000000000000
00006000C000
0000E001C000
0003E007C000
001FE03FC000
001FE03FC000
0001E003C000
0001E003C000
0001E003C000
0001E003C000
0001E003C000
0001E003C000
0001E003C000
0001E003C000
0001E003C000
0001E003C000
0001E003C000
0001E003C000
0001E003C000
0001E003C000
0001E003C000
0001E007C000
0001F00FC000
0000F01FC000
0000F87BE000
00007FF3F800
00001FC1F800
000000000000
000000000000
000000000000
000000000000
000000000000
000000000000
000000000000
000000000000
ENDCHAR

STARTCHAR kor_A3F6
ENCODING 41974
SWIDTH 1024 0
DWIDTH 48 0
BBX 48 48 0 -6
BITMAP
000000000000
000000000000
000000000000
000000000000
000000000000
000000000000
000000000000
000000000000
000000000000
000000000000
000000000000
000000000000
000000000000
000000000000
000000000000
003FFE1FFC00
003FFE1FFC00
0007F003E000
0003E001C000
0001F0038000
0001F0038000
0001F0030000
0000F8070000
0000F8060000
0000F8060000
00007C0E0000
00007C0C0000
00007C0C0000
00003E1C0000
00003E180000
00003E180000
00001F380000
00001F300000
00001F300000
00000FF00000
00000FE00000
00000FE00000
000007E00000
000007C00000
000007C00000
000003C00000
000000000000
000000000000
000000000000
000000000000
000000000000
000000000000
000000000000
ENDCHAR

STARTCHAR kor_A3F7
ENCODING 41975
SWIDTH 1024 0
DWIDTH 48 0
BBX 48 48 0 -6
BITMAP
000000000000
000000000000
000000000000
000000000000
000000000000
000000000000
000000000000
000000000000
000000000000
000000000000
000000000000
000000000000
000000000000
000000000000
000000000000
07FF9FFC3FF0
07FF9FFC3FF0
01FC07F007C0
00F803E00380
007C01F00300
007C01F00700
003C01F00600
003E01F80600
003E03F80E00
001E03780C00
001F037C0C00
001F077C1C00
000F063C1800
000F863E1800
000F8E3E3800
00078C1E3000
0007CC1F3000
0007DC1F7000
0003F80F6000
0003F80FE000
0003F80FE000
0001F007C000
0001F007C000
0001F007C000
0000E0038000
000000000000
000000000000
000000000000
000000000000
000000000000
000000000000
000000000000
000000000000
ENDCHAR

STARTCHAR kor_A3F8
ENCODING 41976
SWIDTH 1024 0
DWIDTH 48 0
BBX 48 48 0 -6
BITMAP
000000000000
000000000000
000000000000
000000000000
000000000000
000000000000
000000000000
000000000000
000000000000
000000000000
000000000000
000000000000
000000000000
000000000000
000000000000
00FFFE1FFE00
00FFFE1FFE00
001FF003F000
0007E001C000
0003F0038000
0001F8070000
0000FC0E0000
00007E1C0000
00003F380000
00001FF00000
00000FE00000
000007E00000
000003F00000
000007F80000
00000EFC0000
00001C7E0000
0000383F0000
0000701F8000
0000E00FC000
0001C007E000
00038003F000
00070001F800
001F8003FE00
00FFF01FFFC0
00FFF01FFFC0
000000000000
000000000000
000000000000
000000000000
000000000000
000000000000
000000000000
000000000000
ENDCHAR

STARTCHAR kor_A3F9
ENCODING 41977
SWIDTH 1024 0
DWIDTH 48 0
BBX 48 48 0 -6
BITMAP
000000000000
000000000000
000000000000
000000000000
000000000000
000000000000
000000000000
000000000000
000000000000
000000000000
000000000000
000000000000
000000000000
000000000000
000000000000
003FFE07FF00
003FFE07FF00
0007F000FC00
0003E0007000
0003E0006000
0001F000E000
0001F000C000
0000F801C000
0000F8018000
00007C038000
00007C030000
00003E070000
00003E060000
00001F0E0000
00001F0C0000
00000F9C0000
00000F980000
000007F80000
000007F00000
000003F00000
000003E00000
000001E00000
000001C00000
000001C00000
000001800000
000E03800000
001F03000000
001F07000000
001F0E000000
001F9C000000
000FF8000000
0007E0000000
000000000000
ENDCHAR

STARTCHAR kor_A3FA
ENCODING 41978
SWIDTH 1024 0
DWIDTH 48 0
BBX 48 48 0 -6
BITMAP
000000000000
000000000000
000000000000
000000000000
000000000000
000000000000
000000000000
000000000000
000000000000
000000000000
000000000000
000000000000
000000000000
000000000000
000000000000
0000FFFFE000
0000FFFFE000
0001F80FC000
0001E00F8000
0001C01F0000
0003803F0000
0003003E0000
0003007C0000
000200F80000
000001F80000
000001F00000
000003E00000
000007C00000
00000FC00000
00000F800000
00001F000000
00003E002000
00007E006000
00007C006000
0000F800E000
0001F001C000
0003E003C000
0007E00FC000
0007FFFF8000
0007FFFF8000
000000000000
000000000000
000000000000
000000000000
000000000000
000000000000
000000000000
000000000000
ENDCHAR

STARTCHAR kor_A3FB
ENCODING 41979
SWIDTH 1024 0
DWIDTH 48 0
BBX 48 48 0 -6
BITMAP
000000000000
0000000000E0
0000000003C0
000000000780
000000000F00
000000000F00
000000001E00
000000001E00
000000001E00
000000003C00
000000003C00
000000003C00
000000003C00
000000003C00
000000003C00
000000003C00
000000003C00
000000003C00
000000003C00
000000003C00
000000003C00
000000003800
000000007800
00000001F000
00000007E000
00000001F000
000000007800
000000003800
000000003C00
000000003C00
000000003C00
000000003C00
000000003C00
000000003C00
000000003C00
000000003C00
000000003C00
000000003C00
000000003C00
000000001E00
000000001E00
000000001E00
000000000F00
000000000F00
000000000780
0000000001C0
000000000060
000000000000
ENDCHAR

STARTCHAR kor_A3FC
ENCODING 41980
SWIDTH 1024 0
DWIDTH 48 0
BBX 48 48 0 -6
BITMAP
000000000000
000003C00000
000003C00000
000003C00000
000003C00000
000003C00000
000003C00000
000003C00000
000003C00000
000003C00000
000003C00000
000003C00000
000003C00000
000003C00000
000003C00000
000003C00000
000003C00000
000003C00000
000003C00000
000003C00000
000003C00000
000003C00000
000003C00000
000003C00000
000003C00000
000003C00000
000003C00000
000003C00000
000003C00000
000003C00000
000003C00000
000003C00000
000003C00000
000003C00000
000003C00000
000003C00000
000003C00000
000003C00000
000003C00000
000003C00000
000003C00000
000003C00000
000003C00000
000003C00000
000003C00000
000003C00000
000003C00000
000000000000
ENDCHAR

STARTCHAR kor_A3FD
ENCODING 41981
SWIDTH 1024 0
DWIDTH 48 0
BBX 48 48 0 -6
BITMAP
000000000000
070000000000
03C000000000
01E000000000
00F000000000
00F000000000
007800000000
007800000000
007800000000
003C00000000
003C00000000
003C00000000
003C00000000
003C00000000
003C00000000
003C00000000
003C00000000
003C00000000
003C00000000
003C00000000
003C00000000
001C00000000
001E00000000
000F80000000
0007E0000000
000F80000000
001E00000000
001C00000000
003C00000000
003C00000000
003C00000000
003C00000000
003C00000000
003C00000000
003C00000000
003C00000000
003C00000000
003C00000000
003C00000000
007800000000
007800000000
007800000000
00F000000000
00F000000000
01E000000000
03C000000000
070000000000
000000000000
ENDCHAR

STARTCHAR kor_A3FE
ENCODING 41982
SWIDTH 1024 0
DWIDTH 48 0
BBX 48 48 0 -6
BITMAP
000000000000
000000000000
7FFFFFFFFFFE
7FFFFFFFFFFE
7FFFFFFFFFFE
000000000000
000000000000
000000000000
000000000000
000000000000
000000000000
000000000000
000000000000
000000000000
000000000000
000000000000
000000000000
000000000000
000000000000
000000000000
000000000000
000000000000
000000000000
000000000000
000000000000
000000000000
000000000000
000000000000
000000000000
000000000000
000000000000
000000000000
000000000000
000000000000
000000000000
000000000000
000000000000
000000000000
000000000000
000000000000
000000000000
000000000000
000000000000
000000000000
000000000000
000000000000
000000000000
000000000000
ENDCHAR

STARTCHAR kor_A4A1
ENCODING 42145
SWIDTH 1024 0
DWIDTH 48 0
BBX 48 48 0 -6
BITMAP
000000000000
000000000000
000000000000
000000000000
000000000000
000000000000
000000000000
000000000000
000000000000
000000000000
000000000000
000000000E00
038000007F00
01FFFFFFFF80
00FFFFFFFF80
003FC0000F00
000E00000F00
000000000F00
000000000F00
000000000F00
000000000F00
000000000F00
000000000F00
000000000F00
000000000F00
000000000F00
000000000F00
000000000F00
000000000F00
000000000F00
000000000F00
000000000F00
000000000E00
000000000E00
000000000E00
000000000C00
000000000C00
000000000800
000000000000
000000000000
000000000000
000000000000
000000000000
000000000000
000000000000
000000000000
000000000000
000000000000
ENDCHAR

STARTCHAR kor_A4A2
ENCODING 42146
SWIDTH 1024 0
DWIDTH 48 0
BBX 48 48 0 -6
BITMAP
000000000000
000000000000
000000000000
000000000000
000000000000
000000000000
000000000000
000000000000
000000000000
000000000000
00000C0000C0
0E007E7007E0
07FFFF3FFFF0
03FFFF1FFFF0
01FC1E0FE1E0
00701E0381E0
00001E0001E0
00001E0001E0
00001E0001E0
00001E0001E0
00001E0001E0
00001E0001E0
00001E0001E0
00001E0001E0
00001E0001E0
00001E0001E0
00001E0001E0
00001E0001E0
00001E0001E0
00001E0001E0
00001E0001E0
00001E0001E0
00001C0001E0
00001C0001C0
00001C0001C0
0000180001C0
000018000180
000010000180
000000000100
000000000000
000000000000
000000000000
000000000000
000000000000
000000000000
000000000000
000000000000
000000000000
ENDCHAR

STARTCHAR kor_A4A3
ENCODING 42147
SWIDTH 1024 0
DWIDTH 48 0
BBX 48 48 0 -6
BITMAP
000000000000
000000000000
000000000000
000000000000
000000000000
000000000000
000000000000
000000000000
000000000000
000000000000
000000078000
00001803E000
0E00FC01F800
07FFFE00FC00
03FFFE007C00
01F83C007C00
00603C007800
00003C00F800
00003C00F800
00003C00F000
00003C01F000
00003C01E000
00003C01E000
00003C03E000
00003C03F000
00003C07B800
00003C079C00
00003C0F0E00
00003C0E0700
00003C1E07C0
00003C1C03E0
00003C3801F0
00003C3801F8
00003C7000F8
00003CE0007C
000039C0007C
00003B80003C
00003F000018
00003E000000
00002C000000
000000000000
000000000000
000000000000
000000000000
000000000000
000000000000
000000000000
000000000000
ENDCHAR

STARTCHAR kor_A4A4
ENCODING 42148
SWIDTH 1024 0
DWIDTH 48 0
BBX 48 48 0 -6
BITMAP
000000000000
000000000000
000000000000
000000000000
000000000000
000000000000
000000000000
000000000000
000000000000
000000000000
000000000000
000000000000
000000000000
07C000000000
03F800000000
00FC00000000
007C00000000
003C00000000
003C00000000
003C00000000
003C00000000
003C00000000
003C00000000
003C00000000
003C00000000
003C00000000
003C00000000
003C00000000
003C00000000
003C00000000
003C00000000
003C00001F80
003E0001FFC0
001FFFFFFFC0
000FFFFFFF80
000000000000
000000000000
000000000000
000000000000
000000000000
000000000000
000000000000
000000000000
000000000000
000000000000
000000000000
000000000000
000000000000
ENDCHAR

STARTCHAR kor_A4A5
ENCODING 42149
SWIDTH 1024 0
DWIDTH 48 0
BBX 48 48 0 -6
BITMAP
000000000000
000000000000
000000000000
000000000000
000000000000
000000000000
000000000000
000000000000
000000000000
000000000000
000000000000
0000070007E0
000003FFFFF0
3E0001FFFFF0
1F8000FDE000
07C00030F800
03C000007C00
03C000007C00
03C000007800
03C00000F800
03C00000F000
03C00000F000
03C00001E000
03C00001E000
03C00003F000
03C00003F800
03C000079C00
03C000070E00
03C0008F0700
03C0019E07C0
03C0071C03E0
03C01E3C01F0
03C07C7801F8
03C3F0F000F8
03FFE1E0007C
03FF83C0007C
01FE0780003C
00F00E000018
000018000000
000000000000
000000000000
000000000000
000000000000
000000000000
000000000000
000000000000
000000000000
000000000000
ENDCHAR

STARTCHAR kor_A4A6
ENCODING 42150
SWIDTH 1024 0
DWIDTH 48 0
BBX 48 48 0 -6
BITMAP
000000000000
000000000000
000000000000
000000000000
000000000000
000000000000
000000000000
000000000000
000000000000
000000000000
000000380000
0000001FFE00
0000000FFF00
3E000003FE00
1F8000000000
07C000000000
03C00000001C
03C01C0001FE
03C00FFFFFFE
03C007FFFFFC
03C003FC0000
03C000E1E000
03C00001F000
03C00000F000
03C00007FC00
03C0001FFF00
03C0003F1F80
03C0007C07C0
03C0007803C0
03C001F803E0
03C003F001E0
03C00EF001E0
03C03CF001E0
03C0F8F001E0
03C7E0F803E0
03FFC07803C0
03FF007C07C0
01FC003F1F80
00F0001FFF00
00000007FC00
000000000000
000000000000
000000000000
000000000000
000000000000
000000000000
000000000000
000000000000
ENDCHAR

STARTCHAR kor_A4A7
ENCODING 42151
SWIDTH 1024 0
DWIDTH 48 0
BBX 48 48 0 -6
BITMAP
000000000000
000000000000
000000000000
000000000000
000000000000
000000000000
000000000000
000000000000
000000000000
000000000000
000000000000
000000000000
000000000000
000000003E00
1F800007FF00
0FFFFFFFFF00
03FFFFFFFE00
01F000000000
00F000000000
00F000000000
00F000000000
00F000000000
00F000000000
00F000000000
00F000000000
00F000000000
00F000000000
00F000000000
00F000000000
00F000000000
00F000000000
00F000000000
00F000000000
00F000000F80
00F80001FFC0
007FFFFFFFC0
003FFFFFFF80
000000000000
000000000000
000000000000
000000000000
000000000000
000000000000
000000000000
000000000000
000000000000
000000000000
000000000000
ENDCHAR

STARTCHAR kor_A4A8
ENCODING 42152
SWIDTH 1024 0
DWIDTH 48 0
BBX 48 48 0 -6
BITMAP
000000000000
000000000000
000000000000
000000000000
000000000000
000000000000
000000000000
000000000000
000000000000
000000000000
000000000000
0000780001E0
1F03FDF00FF0
0FFFFCFFFFF0
07FFF87FFFE0
03C0003C0000
03C0003C0000
03C0003C0000
03C0003C0000
03C0003C0000
03C0003C0000
03C0003C0000
03C0003C0000
03C0003C0000
03C0003C0000
03C0003C0000
03C0003C0000
03C0003C0000
03C000BC0000
03C003BC0000
03C00F3C0000
03C03E3C0000
03C0F83C0000
03C7F03C0038
03FFC03E03FC
03FF001FFFFC
01FC000FFFF8
00F000000000
000000000000
000000000000
000000000000
000000000000
000000000000
000000000000
000000000000
000000000000
000000000000
000000000000
ENDCHAR

STARTCHAR kor_A4A9
ENCODING 42153
SWIDTH 1024 0
DWIDTH 48 0
BBX 48 48 0 -6
BITMAP
000000000000
000000000000
000000000000
000000000000
000000000000
000000000000
000000000000
000000000000
000000000000
000000000000
000000000000
000000001800
01C00001FC00
00FFFFFFFE00
007FFFFFFE00
003F80003C00
000C00003C00
000000003C00
000000003C00
000000003C00
000000003800
000000003800
000000003800
07E000003C00
03FFFFFFFE00
00FFFFFFFE00
007800000000
007800000000
007800000000
007800000000
007800000000
007800000000
007800000000
007800000000
007800000F80
007C0000FFC0
003FFFFFFFC0
001FFFFFFF80
000000000000
000000000000
000000000000
000000000000
000000000000
000000000000
000000000000
000000000000
000000000000
000000000000
ENDCHAR

STARTCHAR kor_A4AA
ENCODING 42154
SWIDTH 1024 0
DWIDTH 48 0
BBX 48 48 0 -6
BITMAP
000000000000
000000000000
000000000000
000000000000
000000000000
000000000000
000000000000
000000000000
000000000000
000000000000
0000700001C0
1E01F87007E0
0FFFFC3FFFF0
07FFFC1FFFF0
03F0780FC1E0
00C0780301E0
0000780001E0
0000780001E0
0000700001E0
0000700001E0
0000700001E0
0000700001E0
3F00780001E0
1FFFFC0001E0
07FFFC0001E0
03C0000001E0
03C0000001E0
03C0000001E0
03C0000001E0
03C0002001E0
03C000E001E0
03C003C001E0
03C01F8001E0
03C0FE0001E0
03FFF80001C0
03FFE00001C0
01FF000001C0
00F800000180
000000000180
000000000100
000000000000
000000000000
000000000000
000000000000
000000000000
000000000000
000000000000
000000000000
ENDCHAR

STARTCHAR kor_A4AB
ENCODING 42155
SWIDTH 1024 0
DWIDTH 48 0
BBX 48 48 0 -6
BITMAP
000000000000
000000000000
000000000000
000000000000
000000000000
000000000000
000000000000
000000000000
000000000000
000000000000
000070000060
0E03F9F803F0
07FFFCFFFFF8
03FFFC3FFFF8
01F0781E00F0
00C0781E00F0
0000781E00F0
0000781E00F0
0000781E00F0
0000701E00F0
0000701E00F0
3F00781E00F0
1FFFFC1E00F0
07FFFC1E00F0
03C0001E00F0
03C0001E00F0
03C0001E00F0
03C0001E00F0
03C0001E00E0
03C0005E00E0
03C001DE00E0
03C0079E00E0
03C03F1E00E0
03C3FC1E00F0
03FFF01FFFF8
03FFC01FFFF8
01FE001C0000
00F800180000
000000100000
000000000000
000000000000
000000000000
000000000000
000000000000
000000000000
000000000000
000000000000
000000000000
ENDCHAR

STARTCHAR kor_A4AC
ENCODING 42156
SWIDTH 1024 0
DWIDTH 48 0
BBX 48 48 0 -6
BITMAP
000000000000
000000000000
000000000000
000000000000
000000000000
000000000000
000000000000
000000000000
000000000000
000000000000
000070000F80
0E01F80007E0
07FFFDE001F0
03FFFCF800F0
01F07C7C00F0
00C0783C00F0
0000783C00F0
0000783C00F0
0000783C00F0
0000703C00F0
0000703C00F0
3F00783C00F0
1FFFFC3FFFF0
07FFFC3FFFF0
03C0003C00F0
03C0003C00F0
03C0003C00F0
03C0003C00F0
03C0003C00F0
03C0003C00F0
03C001BC00F0
03C0073C00F0
03C03E3C00F0
03C3F83FFFE0
03FFE03FFFE0
03FF803800C0
01FE003000C0
00F800300080
000000200000
000000000000
000000000000
000000000000
000000000000
000000000000
000000000000
000000000000
000000000000
000000000000
ENDCHAR

STARTCHAR kor_A4AD
ENCODING 42157
SWIDTH 1024 0
DWIDTH 48 0
BBX 48 48 0 -6
BITMAP
000000000000
000000000000
000000000000
000000000000
000000000000
000000000000
000000000000
000000000000
000000000000
000000000000
00007003C000
0F01F801F000
07FFFC00FC00
03FFFC007E00
01F87C003E00
006078003C00
000078007C00
000078007800
000070007800
00007000F000
00007000F000
3F007800F000
1FFFFC01E000
07FFFC01E000
03C00003E000
03C00003F000
03C00007B800
03C000071C00
03C0000F0E00
03C0000E0700
03C0001C07C0
03C001BC03E0
03C0073801F0
03C03E7001F8
03C3F8F000F8
03FFE1E0007C
03FF83C0007C
01FE0780003C
00F80F000018
00001C000000
000000000000
000000000000
000000000000
000000000000
000000000000
000000000000
000000000000
000000000000
ENDCHAR

STARTCHAR kor_A4AE
ENCODING 42158
SWIDTH 1024 0
DWIDTH 48 0
BBX 48 48 0 -6
BITMAP
000000000000
000000000000
000000000000
000000000000
000000000000
000000000000
000000000000
000000000000
000000000000
000000000000
0000700000F0
0E01FBF007F8
07FFFDFFFFF8
03FFFC7FFFF0
01F8783C0000
0060783C0000
0000783C0000
0000783C0000
0000783C0000
0000703C0000
0000703C0000
3F00783C01E0
1FFFFC3C0FF0
07FFFC3FFFF0
03C0003FFFE0
03C0003C0000
03C0003C0000
03C0003C0000
03C0003C0000
03C0007C0000
03C001FC0000
03C007BC0000
03C03F3C0000
03C1FC3C0078
03FFF03E03FC
03FFC01FFFFC
01FE000FFFF8
00F800000000
000000000000
000000000000
000000000000
000000000000
000000000000
000000000000
000000000000
000000000000
000000000000
000000000000
ENDCHAR

STARTCHAR kor_A4AF
ENCODING 42159
SWIDTH 1024 0
DWIDTH 48 0
BBX 48 48 0 -6
BITMAP
000000000000
000000000000
000000000000
000000000000
000000000000
000000000000
000000000000
000000000000
000000000000
000000000000
000000000000
000018000038
0E00FCE001FC
07FFFE7FFFFC
03FFFE3FFFF8
01F83C1F8000
00603C060000
00003C001800
00003C001E00
00003C000F80
0000386007C0
0000387003E0
1F803C3003E0
0FFFFE3803C0
03FFFE3803C0
01E0001C0380
01E0001C0780
01E0001E0780
01E0000E0700
01E0000F0F00
01E0008F0E00
01E0038F0E00
01E00F0F1C00
01E03E061C00
01E1F800181C
01FFFE0039FE
01FFCFFFFFFE
00FF07FFFFFC
007C03F80000
000000E00000
000000000000
000000000000
000000000000
000000000000
000000000000
000000000000
000000000000
000000000000
ENDCHAR

STARTCHAR kor_A4B0
ENCODING 42160
SWIDTH 1024 0
DWIDTH 48 0
BBX 48 48 0 -6
BITMAP
000000000000
000000000000
000000000000
000000000000
000000000000
000000000000
000000000000
000000000000
000000000000
000000000000
000000180000
1C01E00FFE00
0FFFF007FF00
07FFF001FE00
03F1E0000000
00C1E0000000
0001E000001C
0001EE0001FE
0001E7FFFFFE
0001C3FFFFFC
0001C1FC0000
0001C071E000
3E01E001F000
1FFFF000F000
0FFFF007FC00
0780001FFF00
0780003F1F80
0780007C07C0
0780007803C0
078000F803E0
078000F001E0
078002F001E0
07800EF001E0
07807CF001E0
0783F07803C0
07FFC07803C0
07FF003C0780
03FC001F1F00
01F0000FFE00
00000003F800
000000000000
000000000000
000000000000
000000000000
000000000000
000000000000
000000000000
000000000000
ENDCHAR

STARTCHAR kor_A4B1
ENCODING 42161
SWIDTH 1024 0
DWIDTH 48 0
BBX 48 48 0 -6
BITMAP
000000000000
000000000000
000000000000
000000000000
000000000000
000000000000
000000000000
000000000000
000000000000
000000000000
000000000000
000000000E00
07E000007F00
03FFFFFFFF80
00FFFFFFFF80
007800000F80
007800000F00
007800000F00
007800000F00
007800000F00
007800000F00
007800000F00
007800000F00
007800000F00
007800000F00
007800000F00
007800000E00
007800000E00
007800000E00
007800000E00
007800000E00
007800000E00
007800000F00
007FFFFFFF80
007FFFFFFF80
007000000000
006000000000
004000000000
000000000000
000000000000
000000000000
000000000000
000000000000
000000000000
000000000000
000000000000
000000000000
000000000000
ENDCHAR

STARTCHAR kor_A4B2
ENCODING 42162
SWIDTH 1024 0
DWIDTH 48 0
BBX 48 48 0 -6
BITMAP
000000000000
000000000000
000000000000
000000000000
000000000000
000000000000
000000000000
000000000000
000000000000
00000003E000
00000001F800
000000007C00
01F000003C00
00FC00003C00
003E00003C00
001E00003C00
001E00003C00
001E00003C00
001E00003C00
001E00003C00
001E00003C00
001FFFFFFC00
001FFFFFFC00
001E00003C00
001E00003C00
001E00003C00
001E00003C00
001E00003C00
001E00003C00
001E00003C00
001E00003C00
001E00003C00
001E00003C00
001E00003C00
001FFFFFFC00
001FFFFFF800
001C00003800
001C00003000
001800002000
001000000000
000000000000
000000000000
000000000000
000000000000
000000000000
000000000000
000000000000
000000000000
ENDCHAR

STARTCHAR kor_A4B3
ENCODING 42163
SWIDTH 1024 0
DWIDTH 48 0
BBX 48 48 0 -6
BITMAP
000000000000
000000000000
000000000000
000000000000
000000000000
000000000000
000000000000
000000000000
000000000000
000000000780
0000007803E0
0001E03E01F0
0000F81F00F0
1E007C0F00F0
0F803C0F00F0
07C03C0F00F0
03C03C0F00F0
03C03C0F00F0
03C03C0F00F0
03C03C0F00F0
03C03C0F00F0
03C03C0FFFF0
03FFFC0FFFF0
03FFFC0F00F0
03C03C0F00F0
03C03C0F00F0
03C03C0F00F0
03C03C0F00F0
03C03C0F00F0
03C03C0F00F0
03C03C0F00F0
03C03C0F00F0
03C03C0F00F0
03C03C0F00F0
03C03C0F00F0
03C03C0FFFE0
03FFF80FFFE0
03FFF80E00C0
0380300C0080
030020080000
020000000000
000000000000
000000000000
000000000000
000000000000
000000000000
000000000000
000000000000
ENDCHAR

STARTCHAR kor_A4B4
ENCODING 42164
SWIDTH 1024 0
DWIDTH 48 0
BBX 48 48 0 -6
BITMAP
000000000000
000000000000
000000000000
000000000000
000000000000
000000000000
000000000000
000000000000
000000000000
0001E0078000
0000FC03E000
1F003E01F800
0FC01E00FC00
03E01E007C00
01E01E007C00
01E01E007C00
01E01E007800
01E01E007800
01E01E00F000
01E01E00F000
01E01E00F000
01FFFE01E000
01FFFE01E000
01E01E01E000
01E01E03F000
01E01E03B800
01E01E079C00
01E01E070E00
01E01E0F0700
01E01E0E0780
01E01E1C03E0
01E01E1C01F0
01E01E3801F8
01E01E3000F8
01E01E70007C
01FFFEE0007C
01FFFCC0003C
01C01D80003C
01801B000018
010016000000
000000000000
000000000000
000000000000
000000000000
000000000000
000000000000
000000000000
000000000000
ENDCHAR

ENDFONT
